<?xml version="1.0" encoding="utf-8"?>
<!-- Generator: Adobe Illustrator 18.0.0, SVG Export Plug-In . SVG Version: 6.00 Build 0)  -->
<!DOCTYPE svg PUBLIC "-//W3C//DTD SVG 1.1//EN" "http://www.w3.org/Graphics/SVG/1.1/DTD/svg11.dtd">
<svg version="1.1" id="Camada_1" xmlns="http://www.w3.org/2000/svg" xmlns:xlink="http://www.w3.org/1999/xlink" x="0px" y="0px"
	 viewBox="0 0 186.5 47.1" enable-background="new 0 0 186.5 47.1" xml:space="preserve">
<g>
	<g>
		
			<path fill="none" stroke="#F5A933" stroke-width="2" stroke-miterlimit="10" stroke-dasharray="6.9175,6.9175,6.9175,6.9175,6.9175,6.9175" d="
			M23.1,2.1h140c11.9,0,21.5,9.6,21.5,21.5c0,11.9-9.6,21.5-21.5,21.5h-140c-11.9,0-21.5-9.6-21.5-21.5C1.6,11.7,11.3,2.1,23.1,2.1z
			"/>
	</g>
</g>
<path fill="#F5A933" d="M164.5,21h-4.6v-4.7c0-1.5-1.2-2.6-2.6-2.6c-1.4,0-2.6,1.2-2.6,2.6V21h-4.7c-1.4,0-2.6,1.2-2.6,2.6
	s1.2,2.6,2.6,2.6h4.7v4.7c0,1.5,1.2,2.6,2.6,2.6c1.4,0,2.6-1.2,2.6-2.6v-4.7l4.6,0c1.4,0,2.6-1.2,2.6-2.6S165.9,21,164.5,21z"/>
<g>
	<path fill="#E41E1A" d="M29.4,17c0.1-0.3,0.5-0.4,1-0.4c0.2,0,0.3,0,0.4,0.1c0.5,0.9,1.1,2.2,1.8,3.9c0.7,1.7,1.4,3.2,2.1,4.7
		c0.7,1.5,1.5,2.7,2.4,3.7c0.8-0.2,1.8-1.7,2.7-4.6c0.4-1.2,0.8-2.4,1.2-3.6c0.4-1.2,0.9-2.2,1.4-3c0.5-0.8,1.1-1.2,1.6-1.2
		c0.2,0,0.4,0,0.7,0.1c-0.4,0.3-0.8,1-1.3,2.1c-0.4,1.1-0.9,2.2-1.3,3.5c-0.4,1.3-0.9,2.5-1.4,3.7c-0.5,1.2-1.1,2.3-1.7,3.1
		c-0.7,0.8-1.4,1.2-2.1,1.2c-1,0-2.3-1.4-3.6-4.3c-0.7-1.5-1.3-2.7-1.6-3.5c-0.4-0.9-0.8-1.9-1.3-3.1C29.8,18,29.5,17.3,29.4,17z"/>
	<path fill="#E41E1A" d="M51.2,16.4l3.6,0.1c1.2,0,2,0.1,2.5,0.3c0,0.3-0.2,0.6-0.5,0.7s-0.7,0.2-1.2,0.2l-5-0.1
		c-1.3,0-2.3,0-3.2,0.1c-0.2,0.7-0.3,1.7-0.3,3l0,0.8c0,0.4,0,0.7,0,1.1c0.7,0.1,1.6,0.1,2.8,0.1l2.8,0c1.1,0,1.7,0,1.8,0.1
		c0.2,0.1,0.2,0.2,0.2,0.3c0,0.5-0.7,0.7-2.2,0.7l-5.3-0.1c0,0.3,0,0.8,0,1.5c0,1.5-0.1,2.6-0.2,3.4c1,0,1.7,0.1,2.1,0.1
		s0.9,0,1.3,0s1.3,0,2.6-0.1s2.2-0.1,2.8-0.1c0.6,0,1.1,0,1.3,0.1c0.2,0.1,0.3,0.2,0.3,0.5c0,0.1,0,0.3-0.2,0.3
		c-0.1,0.1-0.2,0.1-0.3,0.1c-0.1,0-0.2,0.1-0.3,0.1c-0.1,0-0.2,0-0.3,0c-0.1,0-0.2,0-0.3,0c-0.1,0-0.3,0-0.3,0c-0.1,0-0.2,0-0.3,0
		h-0.3c-3,0.1-5,0.2-5.8,0.2c-2.5,0-3.8-0.3-3.8-0.9c0-1.1,0-2.2,0-3.3c0-3.4,0.1-6.3,0.4-8.5c0.3-0.4,1.3-0.6,2.8-0.7
		C49.6,16.4,50.5,16.4,51.2,16.4z"/>
	<path fill="#E41E1A" d="M65.8,16.7c0,0.9,0.1,2.4,0.3,4.3c0.2,1.9,0.3,3.4,0.3,4.4c0,1.4-0.3,2.5-1,3.3s-1.8,1.1-3.5,1.1
		c-1,0-2-0.2-2.8-0.5s-1.5-0.8-1.8-1.4c0.4-0.3,0.7-0.4,1-0.4c0.3,0,0.5,0.1,0.8,0.2c0.2,0.2,0.5,0.3,0.6,0.5c0.2,0.2,0.5,0.4,1,0.5
		c0.5,0.2,1.1,0.2,1.9,0.2c0.8,0,1.4-0.3,1.7-0.8c0.3-0.6,0.5-1.4,0.5-2.4c0-1-0.1-2.4-0.2-3.9s-0.2-2.7-0.2-3.4
		c0-0.7,0.1-1.2,0.2-1.4c0.2-0.2,0.4-0.3,0.6-0.3S65.6,16.7,65.8,16.7z"/>
	<path fill="#E41E1A" d="M82.1,29.6C81.9,29.9,81.5,30,81,30c-0.1,0-0.2,0-0.4,0c-0.3-0.6-0.6-1.5-0.8-2.6c-0.2-1.1-0.3-1.9-0.4-2.2
		c-1.7,0-3.4-0.1-5-0.1s-3.2,0.1-4.5,0.2c-0.1,0.5-0.3,1.3-0.5,2.3c-0.2,1-0.3,1.7-0.4,2c-0.6,0.4-1.1,0.4-1.5,0.1
		c0-0.3,0.1-0.8,0.2-1.4c0.1-0.6,0.2-1.2,0.2-1.6c0.1-0.5,0.2-1,0.3-1.7c0.1-0.7,0.3-1.3,0.4-1.8c0.1-0.5,0.3-1.1,0.5-1.7
		c0.2-0.6,0.5-1.2,0.7-1.6c0.2-0.4,0.6-0.9,0.9-1.4c0.4-0.5,0.8-0.8,1.2-1.1c1-0.6,2-0.9,3.1-0.9c1.1,0,2.1,0.3,2.8,1
		c0.7,0.7,1.3,1.6,1.7,2.7c0.4,1.1,0.7,2.3,0.9,3.4c0.2,1.1,0.5,2.3,0.7,3.5C81.7,28.2,81.9,29.1,82.1,29.6z M77.8,19.3
		c-0.3-0.6-0.7-1.1-1.1-1.4s-1-0.5-1.7-0.5c-0.7,0-1.3,0.3-2,0.8s-1.1,1.2-1.5,2c-0.7,1.5-1.1,2.8-1.3,4.1c1.5-0.1,3.1-0.2,4.7-0.2
		c1.6,0,3.1,0,4.5,0.1c-0.1-0.2-0.2-0.6-0.3-1.3c-0.2-0.7-0.3-1.3-0.5-1.8C78.4,20.5,78.1,19.9,77.8,19.3z"/>
	<path fill="#E41E1A" d="M87.9,22.3c0-2-0.1-3.8-0.4-5.5c0-0.3,0.2-0.4,0.7-0.4s1,0.3,1.8,1c0.7,0.7,1.5,1.4,2.1,2.3
		c0.7,0.8,1.4,1.6,2,2.3s1.2,1,1.5,1s0.8-0.4,1.4-1.1c0.7-0.7,1.3-1.5,1.9-2.4s1.3-1.6,2.1-2.4c0.7-0.7,1.4-1.1,1.8-1.1
		c0.5,0,0.7,0.1,0.7,0.3c0.1,1.5,0.2,2.9,0.2,4.1c0,1.2,0,2.2,0,2.9c0,0.7,0,1.3,0,1.6c0,0.3,0,1.1-0.1,2.3c0,1.2-0.1,1.9-0.1,2.1
		c-0.2,0.3-0.5,0.4-0.9,0.4c-0.2,0-0.3,0-0.5-0.1c-0.1-1.5-0.1-3.3-0.1-5.4s0-4.2,0.1-6.4c-0.3,0.2-0.7,0.7-1.3,1.4
		s-1.1,1.4-1.6,2.1s-1.1,1.4-1.8,1.9s-1.3,0.9-1.9,0.9c-0.6,0-1.2-0.3-2-1c-0.7-0.7-1.5-1.6-2.4-2.7c-0.9-1.1-1.5-1.9-1.7-2.1
		c0.1,1,0.1,2.1,0.1,3.2c0,1.1,0,1.9,0,2.3c0,2-0.1,3.8-0.1,5.4c-0.2,0.3-0.6,0.4-1.2,0.4c-0.1,0-0.3,0-0.4-0.1L87.9,22.3z"/>
	<path fill="#E41E1A" d="M119.9,29.6c-0.2,0.3-0.6,0.4-1.1,0.4c-0.1,0-0.2,0-0.4,0c-0.3-0.6-0.6-1.5-0.8-2.6
		c-0.2-1.1-0.3-1.9-0.4-2.2c-1.7,0-3.4-0.1-5-0.1s-3.2,0.1-4.5,0.2c-0.1,0.5-0.3,1.3-0.5,2.3c-0.2,1-0.3,1.7-0.4,2
		c-0.6,0.4-1.1,0.4-1.5,0.1c0-0.3,0.1-0.8,0.2-1.4c0.1-0.6,0.2-1.2,0.2-1.6c0.1-0.5,0.2-1,0.3-1.7c0.1-0.7,0.3-1.3,0.4-1.8
		c0.1-0.5,0.3-1.1,0.5-1.7c0.2-0.6,0.5-1.2,0.7-1.6c0.2-0.4,0.6-0.9,0.9-1.4c0.4-0.5,0.8-0.8,1.2-1.1c1-0.6,2-0.9,3.1-0.9
		c1.1,0,2.1,0.3,2.8,1c0.7,0.7,1.3,1.6,1.7,2.7c0.4,1.1,0.7,2.3,0.9,3.4c0.2,1.1,0.5,2.3,0.7,3.5C119.4,28.2,119.6,29.1,119.9,29.6z
		 M115.6,19.3c-0.3-0.6-0.7-1.1-1.1-1.4s-1-0.5-1.7-0.5c-0.7,0-1.3,0.3-2,0.8s-1.1,1.2-1.5,2c-0.7,1.5-1.1,2.8-1.3,4.1
		c1.5-0.1,3.1-0.2,4.7-0.2c1.6,0,3.1,0,4.5,0.1c-0.1-0.2-0.2-0.6-0.3-1.3c-0.2-0.7-0.3-1.3-0.5-1.8
		C116.1,20.5,115.9,19.9,115.6,19.3z"/>
	<path fill="#E41E1A" d="M123.3,16.7c-0.2,5.6-0.2,9.9-0.3,13.1c-0.2,0.2-0.4,0.3-0.6,0.3c-0.2,0-0.3,0-0.5-0.1
		c-0.4-0.2-0.5-0.5-0.5-1c0-5.9,0.1-9.4,0.2-10.4c0.1-1,0.2-1.6,0.3-1.8c0.2-0.2,0.3-0.2,0.6-0.2C122.7,16.5,123,16.5,123.3,16.7z"
		/>
	<path fill="#E41E1A" d="M127.2,17.2c0.6-0.3,1.2-0.5,1.9-0.7s1.4-0.2,2.1-0.2s1.3,0,1.9,0.1c0.6,0.1,1.2,0.2,1.8,0.3
		c0.6,0.2,1.1,0.4,1.5,0.7c0.4,0.3,0.6,0.7,0.7,1.2c0,0.2-0.1,0.3-0.3,0.4s-0.4,0.1-0.6,0.1c-0.2,0-0.4,0-0.5-0.1s-0.2-0.2-0.3-0.4
		c-0.6-1-1.9-1.4-3.8-1.4c-1.3,0-2.4,0.2-3.3,0.7c-0.9,0.5-1.3,1.1-1.3,2c0,0.5,0.2,0.9,0.6,1.3s0.9,0.6,1.5,0.8
		c0.6,0.2,1.3,0.4,2.1,0.5c0.7,0.2,1.5,0.3,2.2,0.5c0.7,0.2,1.4,0.4,2.1,0.7c0.6,0.3,1.1,0.7,1.5,1.1c0.4,0.5,0.6,1.1,0.6,1.8
		c0,1-0.6,1.8-1.8,2.5c-1.2,0.7-2.7,1-4.6,1c-1.4,0-2.8-0.2-4.2-0.7c-1.4-0.5-2-1-2-1.5c0-0.1,0.1-0.3,0.3-0.4
		c0.2-0.1,0.4-0.2,0.6-0.2s0.4,0,0.5,0.1s0.4,0.2,0.6,0.4c0.2,0.2,0.4,0.3,0.6,0.4c1.2,0.6,2.5,0.9,3.9,0.9c1,0,2-0.3,3-0.8
		c1-0.5,1.5-1.2,1.5-2c0-0.6-0.3-1-0.8-1.4c-0.5-0.4-1.2-0.6-2-0.8c-0.8-0.2-1.6-0.4-2.6-0.6s-1.8-0.4-2.6-0.6
		c-0.8-0.2-1.4-0.6-2-1.1c-0.5-0.5-0.8-1.1-0.8-1.8s0.2-1.3,0.5-1.8C126.2,17.9,126.6,17.5,127.2,17.2z"/>
</g>
</svg>
