<?xml version="1.0" encoding="utf-8"?>
<!-- Generator: Adobe Illustrator 18.0.0, SVG Export Plug-In . SVG Version: 6.00 Build 0)  -->
<!DOCTYPE svg PUBLIC "-//W3C//DTD SVG 1.1//EN" "http://www.w3.org/Graphics/SVG/1.1/DTD/svg11.dtd">
<svg version="1.1" xmlns="http://www.w3.org/2000/svg" xmlns:xlink="http://www.w3.org/1999/xlink" x="0px" y="0px"
	 viewBox="0 0 97.9 28.7" enable-background="new 0 0 97.9 28.7" xml:space="preserve">
<g id="Camada_1">
	<path fill-rule="evenodd" clip-rule="evenodd" fill="#E4191A" d="M10.1,16.1L3.5,9.3l6.6-6.8l0,0c0.2-0.2,0.4-0.5,0.4-0.9
		c0-0.7-0.6-1.3-1.3-1.3c-0.3,0-0.6,0.1-0.9,0.4l0,0L0.9,8.4l0,0C0.6,8.6,0.5,9,0.5,9.3c0,0,0,0,0,0c0,0,0,0,0,0
		c0,0.4,0.1,0.7,0.4,0.9l0,0L8.4,18l0,0c0.2,0.2,0.5,0.4,0.9,0.4c0.7,0,1.3-0.6,1.3-1.3C10.5,16.6,10.3,16.3,10.1,16.1z"/>
	<g>
		<path fill="#E41E1A" d="M13.1,2.9c0.1-0.3,0.5-0.4,1-0.4c0.2,0,0.3,0,0.4,0.1c0.5,0.9,1.1,2.2,1.8,3.9c0.7,1.7,1.4,3.2,2.1,4.7
			c0.7,1.5,1.5,2.7,2.3,3.7c0.8-0.2,1.8-1.7,2.7-4.6c0.4-1.2,0.8-2.4,1.2-3.6s0.9-2.2,1.4-3c0.5-0.8,1.1-1.2,1.6-1.2
			c0.2,0,0.4,0,0.7,0.1c-0.4,0.3-0.8,1-1.3,2.1c-0.4,1.1-0.9,2.2-1.3,3.5c-0.4,1.3-0.9,2.5-1.4,3.7c-0.5,1.2-1.1,2.2-1.7,3.1
			C22,15.6,21.3,16,20.5,16c-1,0-2.2-1.4-3.6-4.2c-0.7-1.5-1.3-2.6-1.6-3.5c-0.4-0.9-0.8-1.9-1.3-3.1C13.5,3.9,13.2,3.2,13.1,2.9z"
			/>
		<path fill="#E41E1A" d="M43.8,6.4c0.5,0.8,0.7,1.7,0.7,2.8s-0.3,2-0.8,3s-1.2,1.7-2.1,2.2c-1.8,1.1-3.7,1.7-5.9,1.7
			c-2.1,0-4-0.6-5.5-1.7c-1.5-1.1-2.3-2.6-2.3-4.6c0-1.1,0.2-2.1,0.7-3s1.1-1.6,1.8-2.1c1.6-1.1,3.5-1.7,5.7-1.7
			c2.2,0,4.1,0.5,5.7,1.5C42.7,4.9,43.4,5.6,43.8,6.4z M29.5,9.8c0,1.6,0.6,2.9,1.7,3.8c1.1,0.9,2.6,1.4,4.5,1.4
			c2.2,0,3.9-0.5,5.2-1.6c1.3-1.1,2-2.4,2-4c0-1.6-0.7-2.9-2-3.9C39.6,4.5,38,4,36.1,4c-1.9,0-3.5,0.5-4.7,1.5
			C30.1,6.5,29.5,7.9,29.5,9.8z"/>
		<path fill="#E41E1A" d="M48.2,3l-0.1,8.2c0,1.3,0,2.5,0.1,3.6c0.9,0,1.8,0.1,2.5,0.1l4.8-0.1c0.8,0,1.1,0.2,1.1,0.5
			c0,0.4-1.6,0.6-4.8,0.6c-0.8,0-1.8,0-3-0.1c-1.2-0.1-2-0.2-2.2-0.3c-0.1-1.3-0.1-3.4-0.1-6.4l0.1-6.5c0.4-0.2,0.7-0.4,1-0.4
			C48,2.3,48.2,2.5,48.2,3z"/>
		<path fill="#E41E1A" d="M52.6,3.3c0-0.6,2.6-0.9,7.9-0.9c1.2,0,2.8,0,4.7,0.1c1.9,0.1,2.9,0.2,3,0.3c0,0.6-0.7,0.8-1.9,0.8
			c-0.4,0-0.9,0-1.8-0.1c-0.8-0.1-1.5-0.1-2.1-0.1s-0.9,0.1-0.9,0.3c0,2.6-0.1,6.6-0.2,11.8c-0.3,0.2-0.8,0.3-1.4,0.3
			c0-0.5,0-1.2,0-1.9l0.1-8c0-1,0-1.8,0-2.4c-0.3,0-0.7,0-1.3,0s-1.3,0-2.4,0.1c-1.1,0.1-1.9,0.1-2.3,0.1C53,3.8,52.6,3.6,52.6,3.3z
			"/>
		<path fill="#E41E1A" d="M80.7,15.5c-0.2,0.3-0.6,0.4-1.1,0.4c-0.1,0-0.2,0-0.4,0c-0.3-0.6-0.6-1.5-0.8-2.6s-0.3-1.9-0.4-2.2
			c-1.7,0-3.4-0.1-5-0.1s-3.2,0.1-4.5,0.2c-0.1,0.5-0.3,1.3-0.5,2.3s-0.3,1.7-0.4,2c-0.6,0.4-1.1,0.4-1.5,0.1c0-0.3,0.1-0.8,0.2-1.4
			c0.1-0.6,0.2-1.2,0.2-1.6c0.1-0.4,0.2-1,0.3-1.7c0.1-0.7,0.3-1.3,0.4-1.8C67.6,8.5,67.8,8,68,7.4c0.2-0.6,0.5-1.2,0.7-1.6
			c0.2-0.4,0.5-0.9,0.9-1.3C70,4,70.4,3.6,70.8,3.3c1-0.6,2-0.9,3.1-0.9c1.1,0,2.1,0.3,2.8,1S78,5,78.4,6.1c0.4,1.1,0.7,2.2,0.9,3.4
			s0.5,2.3,0.7,3.5S80.5,15,80.7,15.5z M76.4,5.3c-0.3-0.6-0.7-1.1-1.1-1.4c-0.5-0.3-1-0.5-1.7-0.5s-1.3,0.3-2,0.8
			c-0.6,0.5-1.1,1.2-1.5,2c-0.7,1.5-1.1,2.8-1.2,4.1c1.5-0.1,3.1-0.2,4.6-0.2c1.6,0,3.1,0,4.5,0.1c-0.1-0.2-0.2-0.6-0.3-1.3
			c-0.2-0.7-0.3-1.3-0.5-1.8C76.9,6.4,76.7,5.9,76.4,5.3z"/>
		<path fill="#E41E1A" d="M83.8,12.1l0.1,2.8c0,0.4-0.1,0.6-0.3,0.8c-0.2,0.1-0.4,0.2-0.6,0.2c-0.2,0-0.4,0-0.5-0.1
			c-0.2-1.3-0.3-2.6-0.3-3.9c0-1.3,0-2.7,0.1-4.3c0.1-1.6,0.2-2.8,0.2-3.8c0-1,1.6-1.5,4.9-1.5c1.7,0,3.4,0.3,4.9,0.9
			c0.8,0.3,1.5,0.7,2,1.2S95,5.6,95,6.3s-0.2,1.3-0.6,1.8c-0.4,0.5-0.8,1-1.4,1.3c-0.6,0.4-1.2,0.7-2,0.9c-1.2,0.4-2.6,0.7-4.1,0.9
			c0.7,0.3,1.9,1.1,3.6,2.4c0.5,0.4,1.1,0.7,1.9,1s1.5,0.5,2.3,0.5c0.1,0,0.2,0,0.5,0c0.2,0,0.5-0.1,0.6-0.1c0.2,0,0.3,0,0.5,0.1
			c0.1,0.1,0.2,0.2,0.2,0.4c0,0.4-0.7,0.6-2,0.6c-1.5,0-3-0.5-4.5-1.4c-0.7-0.4-1.3-0.8-1.9-1.2c-1.6-1-3-1.7-4.4-2
			C83.8,11.6,83.8,11.8,83.8,12.1z M93.3,6.5c0-1-0.6-1.8-1.7-2.3s-2.6-0.8-4.4-0.8c-1.1,0-2.2,0.1-3.1,0.3c0,1,0,2.1-0.1,3.2
			c-0.1,1.2-0.1,2-0.1,2.4s0,0.8,0,1c2.3-0.1,4-0.4,5.3-0.6c1.3-0.3,2.3-0.7,3-1.1C92.8,8,93.3,7.3,93.3,6.5z"/>
	</g>
</g>
<g id="Camada_2">
	<g>
		<g>
			<path fill="#FDFDFD" d="M71.9,20.7c7.6,0,15.3,0.2,22.9-0.1c4.1-0.2,2.3,2.5,2.3,4.1s1.7,4.1-2.3,4.1
				c-19.4-0.2-38.7-0.1-58.1-0.1c-0.3-0.4-0.3-0.9,0-1.3c1.4-1,3.1-1.2,4.7-1.6c2.3-0.2,4.8,1.4,6.9-0.7c0.4-0.2,0.8-0.4,1.3-0.5
				c1.3-0.3,2.7-0.2,4,0c2.3,0.6,4.6,0.1,6.9,0c0.4-0.1,0.8-0.1,1.3-0.1c0.6,0,1.3,0.1,1.9,0.2c0.4,0.1,0.8,0.2,1.2,0.3
				c1.9,0.6,3.7,0.1,5.5-0.3c1-0.2,1.8,0.1,2.7,0.5c1.8,0.9,3.7,0.9,5.6,0.8c1.5,0.2,3-0.4,3.4-0.2c-0.2-0.1-1.7,0.3-3.1,0.2
				c-1.9,0-3.8,0.2-5.5-0.8c-0.4-0.2-0.8-0.5-1.1-0.8c-0.5-0.8-0.7-1.7-0.8-2.6C71.5,21.5,71.7,21.1,71.9,20.7z"/>
			<path fill="#FBFAFB" d="M1.6,27.7c0-2.3,0-4.7,0-7c18.6,0,37.1,0,55.7,0c0.3,0.5,0.3,0.9-0.1,1.4c-0.4,0.3-0.9,0.5-1.4,0.7
				c-2,0.3-4,0.3-6,1c-2.4,0.5-4.8,0.3-7.2,0.3c-2.7,0.1-5.4-0.3-8,0.7c-2.7,0.5-5.5,0.3-8.2,0.3c-2.1,0-4.1-0.2-6.2,0.5
				c-5.4,0.5-10.8,1-16.1,1.7c-0.4,0.2-0.9,0.4-1.3,0.6C2.4,28.2,2,28.1,1.6,27.7z"/>
			<path fill="#DDDDDD" d="M71.9,20.7c0,0.3,0,0.5,0,0.8c-0.2,0.2-0.3,0.4-0.5,0.7c-2.7,1.2-5.3,1.2-8,0c-0.5-0.4-0.6-0.9-0.3-1.5
				C66.1,20.7,69,20.7,71.9,20.7z"/>
			<path fill="#D2D1D2" d="M25,28.7c-2.3,0-4.6,0-6.8,0c-0.3-0.4-0.3-0.9,0-1.3c0.4-0.3,0.8-0.5,1.3-0.7c1.4-0.3,2.9-0.3,4.3,0
				c0.5,0.1,0.9,0.4,1.3,0.7C25.3,27.9,25.4,28.3,25,28.7z"/>
			<path fill="#F2F2F2" d="M63.1,20.7c0,0.3,0,0.6,0,0.8c-1.9,1.9-3.9,1.9-5.8,0c0-0.3,0-0.6,0-0.8C59.2,20.7,61.2,20.7,63.1,20.7z"
				/>
			<path fill="#F0EFEF" d="M36.8,27.9c0,0.3,0,0.5,0,0.8c-2,0-3.9,0-5.9,0c-0.3-0.5-0.3-1,0.2-1.4c0.9-0.6,1.9-0.8,3-0.8
				C35.1,26.7,36.1,26.9,36.8,27.9z"/>
			<path fill="#EEEEED" d="M30.9,27.9c0,0.3,0,0.5,0,0.8c-2,0-3.9,0-5.9,0c0-0.3,0-0.5,0-0.8c0.3-0.5,0.7-0.8,1.3-1.1
				C28,26.4,29.7,26.3,30.9,27.9z"/>
			<path fill="#2B2B2B" d="M11.4,28.7c-1.3,0-2.6,0-3.9,0c-0.3-0.5-0.3-1,0.1-1.4c1.2-0.7,2.4-0.7,3.6,0
				C11.7,27.8,11.7,28.2,11.4,28.7z"/>
			<path fill="#404040" d="M11.4,28.7c0-0.3,0-0.6,0.1-0.9c0.8-0.9,1.7-0.9,2.7-0.4c0.4,0.4,0.5,0.9,0.1,1.3
				C13.3,28.7,12.3,28.7,11.4,28.7z"/>
			<path fill="#535252" d="M18.4,27.9c0,0.3-0.1,0.6-0.2,0.9c-1,0-2,0-2.9,0c-0.4-0.5-0.3-1,0.2-1.4C16.5,26.9,17.5,26.9,18.4,27.9z
				"/>
			<path fill="#545454" d="M7.4,27.8c0.1,0.3,0.1,0.6,0.1,0.9c-0.7,0-1.3,0-2,0c-0.2-0.3-0.3-0.5-0.2-0.8c0.1-0.3,0.2-0.4,0.2-0.4
				C6.2,27.2,6.8,27.2,7.4,27.8z"/>
			<path fill="#C1C0C0" d="M3.6,28.7c-0.3,0-0.7,0-1,0c-0.2-0.3-0.5-0.6-0.8-0.9c0.3-0.2,0.5-0.2,0.8-0.1c0.3-0.3,0.7-0.4,1.1-0.1
				C3.9,28,3.9,28.4,3.6,28.7z"/>
			<path fill="#7D7D7E" d="M3.6,28.7c0-0.3,0-0.6-0.1-0.8c0.3-0.4,0.7-0.4,1.2-0.3c0.3,0.4,0.3,0.8-0.1,1.1
				C4.2,28.7,3.9,28.7,3.6,28.7z"/>
			<path fill="#191919" d="M4.5,28.7c0.1-0.3,0-0.7-0.1-1c0.4-0.3,0.8-0.3,1.2,0c-0.1,0.3-0.1,0.6-0.1,0.9
				C5.2,28.7,4.9,28.7,4.5,28.7z"/>
			<path fill="#191919" d="M15.4,27.8c-0.1,0.3-0.1,0.6-0.1,1c-0.3,0-0.7,0-1,0c0-0.3,0-0.6-0.1-0.9C14.6,27.5,15,27.5,15.4,27.8z"
				/>
			<path fill="#FCFCFC" d="M1.8,27.8c0.3,0.3,0.5,0.6,0.8,0.9c-0.8,0.2-1.2-0.1-1-1C1.6,27.7,1.8,27.8,1.8,27.8z"/>
			<path fill="#111111" d="M42.6,22.9c2.5-0.1,5.1-0.2,7.6-0.3c1.9-0.6,3.7-0.3,5.6-0.3c0.5,0.3,0.8,0.7,0.7,1.3
				c-1.9,2.3-5.1,0-7.1,2.1L49,25.9l-0.4,0c-0.4,0.3-0.8,0.4-1.3,0.3C45.9,24.9,43.1,25.6,42.6,22.9z"/>
			<path fill="#4B4B4B" d="M71.9,21.6c0.8,0.4,1,1.1,0.9,2c-1.3,1.8-3.6,0.9-5.2,2c-1.1,0.2-2.2,1.2-3.4,0.2l-0.2,0.1
				c-0.5-0.6-1.3-1-1.3-1.9c0.4-2.4,2.3-1.5,3.7-1.7c1.8-0.2,3.7,0.2,5.6-0.3L71.9,21.6z"/>
			<path fill="#343434" d="M36.8,27.9c-1-0.1-2-0.2-3-0.4c-0.2-0.4-0.2-0.8,0.1-1.2c0.8-0.7,1.9-1,2.8-1.6c1.7-0.9,3.4-1.1,5,0
				c0.4,0.6,0.5,1.3-0.1,1.8C40.3,28.1,38.4,27.4,36.8,27.9z"/>
			<path fill="#B7B7B7" d="M61.3,25.7c-2.3,0.9-4.6,0.9-7,0.2c-0.6-2.6,2.4-1,2.7-2.5c1.6-0.9,3.2-0.9,4.9,0
				c0.3,0.4,0.5,0.8,0.5,1.3C62.1,25.1,61.7,25.4,61.3,25.7z"/>
			<path fill="#5D5C5C" d="M41.6,26.6c0-0.6,0.1-1.2,0.1-1.8c0.2-0.2,0.3-0.3,0.5-0.5c1.8,0.1,3.5,0.6,5.2,1.1
				c0.4,0.1,0.8,0.3,1.2,0.4C46.6,28.8,44,27,41.6,26.6z"/>
			<path fill="#7E7D7D" d="M57.3,23.8c-0.7,1.1-2.5,0.6-3,2.1c-1.6-0.1-3.3-0.1-4.9-0.2c1.4-3.7,4.7-0.9,6.9-2.1
				C56.7,23.4,57,23.4,57.3,23.8z"/>
			<path fill="#D2D2D2" d="M67.2,24.6c1.6-1.6,3.8-0.4,5.6-1.1c0,0.4,0.1,0.8,0.1,1.3c0.3,0.4,0.2,0.7-0.2,1c-0.9,0-1.9-0.1-2.8-0.1
				C68.7,26.1,67.8,25.7,67.2,24.6z"/>
			<path fill="#282828" d="M67.2,24.6c0.9,0.4,1.8,0.8,2.7,1.1c-1.9,1.6-3.8,1.6-5.8,0C65.2,25.4,66.2,25,67.2,24.6z"/>
			<path fill="#9E9E9E" d="M72.7,25.8c0.1-0.3,0.1-0.7,0.2-1c1.9,0.3,3.9,0.6,5.8,0.8c0.3,0.2,0.5,0.4,0.4,0.6
				c-0.1,0.2-0.2,0.4-0.3,0.4C76.8,26.5,74.6,27.6,72.7,25.8z"/>
			<path fill="#5E5E5D" d="M78.8,26.7c0-0.3-0.1-0.7-0.1-1c1.9-0.3,3.7-0.2,5.8,0.4C82.5,27.3,80.6,26.6,78.8,26.7z"/>
			<path fill="#929292" d="M63.1,24.6c0.3,0.4,0.6,0.9,0.9,1.3c-0.6-0.1-1.3-0.2-1.9-0.3c-0.3-0.3-0.2-0.6,0.1-0.9l0,0.1
				C62.3,24.3,62.7,24.2,63.1,24.6z"/>
			<path fill="#616060" d="M62.1,24.7c-0.1,0.3-0.1,0.6-0.1,0.9c0,0-0.4,0.1-0.4,0.1s-0.4,0-0.4,0C61.6,25.3,61.9,25,62.1,24.7z"/>
			<path fill="#111111" d="M41.7,24.8c-1.5,0.9-3.4-0.5-4.8,0.9c-1.1,0-2.2,0-3.3,0.1c-1.9,0.3-3.8,0-5.7,0.4
				c-0.5,0.2-1.1,0.1-1.4,0.6c0,0.4-0.2,0.6-0.6,0.8c-0.3,0.1-0.6,0.2-0.9,0.3c-0.3-0.1-0.7-0.2-1-0.3c-1.6-1.1-3.3-0.7-4.9,0
				c-0.3,0.1-0.5,0.2-0.8,0.3c-1,0-2-0.1-3-0.1c-0.4,0-0.8,0-1.2,0c-0.9,0-1.8,0-2.8,0c-1.3,0-2.7,0-4,0c-0.6,0-1.2,0-1.8,0
				c-0.4,0-0.8,0-1.2,0c-0.3,0-0.6,0.1-1,0.1c-0.3-0.1-0.6-0.2-0.9-0.2c-0.5-1.6,0.3-2,1.7-2c5.2-0.1,10.3-1.5,15.6-1.1
				c2-0.9,4.2,0.2,6.1-0.7c2.9-0.1,5.7-0.2,8.6-0.2C37,23.5,39.7,21.9,41.7,24.8L41.7,24.8z"/>
			<path fill="#151515" d="M63.1,24.6c-0.3,0.1-0.6,0.1-1,0.2c-1.3-1.8-3.2-0.7-4.8-0.9c-0.3-0.1-0.7-0.2-1-0.3c0-0.2,0-0.5,0-0.7
				c-0.4-0.2-0.5-0.4-0.3-0.6c0.1-0.2,0.3-0.3,0.4-0.3c0.3-0.2,0.6-0.3,0.9-0.4c1.9,0,3.9,0,5.8,0c2.9,0.1,5.9,0.3,8.8,0.4
				c-1.7,1.4-3.7,0.6-5.5,0.8C65,22.9,63.4,22.5,63.1,24.6z"/>
			<path fill="#191919" d="M41.7,24.8c-2.1-2-4.8-0.5-7.1-1.1c2.6-1.5,5.3-0.8,8.1-0.8c1.3,1.5,3.9,0.3,4.8,2.5
				C45.4,26.1,43.6,25,41.7,24.8z"/>
			<path fill="#616060" d="M56.4,22c0,0.3,0,0.6-0.1,0.9c-2-0.1-4-0.2-6.1-0.2C52.2,21.7,54.3,22.2,56.4,22z"/>
			<path fill="#191919" d="M26,23.9c-1.9,1.5-4.1,0.6-6.1,0.7C21.8,23.3,23.9,23.9,26,23.9z"/>
			<path fill="#191919" d="M19.2,27.6c1.6-1.5,3.2-3,4.9,0C22.4,27.6,20.8,27.6,19.2,27.6z"/>
			<path fill="#191919" d="M26,27.6c0-0.3,0-0.5,0-0.8c1.2-0.7,2.4-0.8,3.6-0.1c-0.6-1.1-2.1,0.1-2.6-1c2.2-1.7,4.7-0.6,7.1-0.7
				c0.3,0.7-1.2,1.2-0.3,2c0,0.2,0,0.4,0,0.7c-1,0.1-1.9,0.2-2.9,0.4C29.3,27.8,27.6,27.7,26,27.6z"/>
			<path fill="#7C7C7C" d="M33.8,26.9c-2.8-1.1,0.3-1.3,0.3-2c1,0,2.1-0.3,2.9,0.8C36.2,27.1,34.9,26.6,33.8,26.9z"/>
			<path fill="#79797A" d="M27,25.6c0.9,0.1,1.9,0.2,2.8,0.3c0,0.2,0,0.3,0,0.5c-1.3,0.1-2.6,0.2-3.8,0.4
				C25.1,25.3,26.8,26.2,27,25.6z"/>
		</g>
	</g>
</g>
</svg>
