<?xml version="1.0" encoding="utf-8"?>
<!-- Generator: Adobe Illustrator 18.0.0, SVG Export Plug-In . SVG Version: 6.00 Build 0)  -->
<!DOCTYPE svg PUBLIC "-//W3C//DTD SVG 1.1//EN" "http://www.w3.org/Graphics/SVG/1.1/DTD/svg11.dtd">
<svg version="1.1" id="Camada_1" xmlns="http://www.w3.org/2000/svg" xmlns:xlink="http://www.w3.org/1999/xlink" x="0px" y="0px"
	 viewBox="0 0 287.3 56.7" enable-background="new 0 0 287.3 56.7" xml:space="preserve">
<linearGradient id="SVGID_1_" gradientUnits="userSpaceOnUse" x1="144.8333" y1="55.3331" x2="144.8333" y2="22.3331">
	<stop  offset="0" style="stop-color:#1B4790"/>
	<stop  offset="1" style="stop-color:#0080B9"/>
</linearGradient>
<path fill-rule="evenodd" clip-rule="evenodd" fill="url(#SVGID_1_)" d="M2.3,22.3l12,19l-12,13l285,1l-12-15l10-17L2.3,22.3z"/>
<path fill-rule="evenodd" clip-rule="evenodd" fill="#35B2B2" d="M43.8,1.8c13,0,23.5,10.5,23.5,23.5c0,13-10.5,23.5-23.5,23.5
	c-13,0-23.5-10.5-23.5-23.5C20.3,12.4,30.9,1.8,43.8,1.8z"/>
<path fill="#FFFFFF" d="M46.1,26.1L46.1,26.1c-0.8,0-1.5,0.7-1.5,1.5c0,0.8,0.7,1.5,1.5,1.5l0,0c0.8,0,1.5-0.7,1.5-1.5
	C47.6,26.8,47,26.1,46.1,26.1z M41.5,24.6c0.8,0,1.5-0.7,1.5-1.5c0-0.8-0.7-1.5-1.5-1.5c-0.8,0-1.5,0.7-1.5,1.5
	C40,23.9,40.7,24.6,41.5,24.6z M46.1,21.5L46.1,21.5c-0.8,0-1.5,0.7-1.5,1.5c0,0.8,0.7,1.5,1.5,1.5l0,0c0.8,0,1.5-0.7,1.5-1.5
	C47.6,22.2,47,21.5,46.1,21.5z M47.6,13.9H40v3.1h7.6V13.9z M50.7,24.6c0.8,0,1.5-0.7,1.5-1.5c0-0.8-0.7-1.5-1.5-1.5
	c-0.8,0-1.5,0.7-1.5,1.5C49.2,23.9,49.9,24.6,50.7,24.6z M50.7,29.1c0.8,0,1.5-0.7,1.5-1.5c0-0.8-0.7-1.5-1.5-1.5
	c-0.8,0-1.5,0.7-1.5,1.5C49.2,28.5,49.9,29.1,50.7,29.1z M41.5,29.1c0.8,0,1.5-0.7,1.5-1.5c0-0.8-0.7-1.5-1.5-1.5S40,26.8,40,27.6
	C40,28.5,40.7,29.1,41.5,29.1z M37,33.7c0.8,0,1.5-0.7,1.5-1.5c0-0.8-0.7-1.5-1.5-1.5c-0.8,0-1.5,0.7-1.5,1.5
	C35.4,33,36.1,33.7,37,33.7z M55.3,13.9h-1.5v3.1h1.5v19.8H32.4V16.9h1.5v-3.1h-1.5c-1.7,0-3.1,1.4-3.1,3.1v19.8
	c0,1.7,1.4,3.1,3.1,3.1h22.9c1.7,0,3.1-1.4,3.1-3.1V16.9C58.3,15.3,57,13.9,55.3,13.9z M37,29.1c0.8,0,1.5-0.7,1.5-1.5
	c0-0.8-0.7-1.5-1.5-1.5c-0.8,0-1.5,0.7-1.5,1.5C35.4,28.5,36.1,29.1,37,29.1z M37,24.6c0.8,0,1.5-0.7,1.5-1.5c0-0.8-0.7-1.5-1.5-1.5
	c-0.8,0-1.5,0.7-1.5,1.5C35.4,23.9,36.1,24.6,37,24.6z M41.5,33.7c0.8,0,1.5-0.7,1.5-1.5c0-0.8-0.7-1.5-1.5-1.5
	c-0.8,0-1.5,0.7-1.5,1.5C40,33,40.7,33.7,41.5,33.7z M37,16.9c0.8,0,1.5-0.7,1.5-1.5v-3.1c0-0.8-0.7-1.5-1.5-1.5
	c-0.8,0-1.5,0.7-1.5,1.5v3.1C35.4,16.3,36.1,16.9,37,16.9z M50.7,16.9c0.8,0,1.5-0.7,1.5-1.5v-3.1c0-0.8-0.7-1.5-1.5-1.5
	c-0.8,0-1.5,0.7-1.5,1.5v3.1C49.2,16.3,49.9,16.9,50.7,16.9z"/>
<g>
	<path fill="#FFFFFF" d="M95.8,34.9c-0.3,0.2-0.5,0.4-0.6,0.5c-0.2,0.1-0.4,0.1-0.5,0c-0.2-0.1-0.3-0.1-0.4-0.2
		c-0.1-0.1-0.2-0.2-0.4-0.5c-0.2-0.3-0.3-0.4-0.4-0.5c-0.9-1.1-1.9-1.6-3.3-1.6c-1.3,0-2.6,0.4-3.8,1.3c-1.2,0.9-2.1,2-2.8,3.4
		c-0.7,1.4-1.1,2.9-1.1,4.4c0,1.9,0.6,3.4,1.9,4.6c1.2,1.2,2.9,1.8,5,1.8c2.1,0,3.9-0.6,5.4-1.7c0.3-0.2,0.5-0.4,0.8-0.8
		c0.3-0.4,0.5-0.6,0.8-0.8c0.2-0.1,0.4-0.2,0.6-0.2c0.2,0,0.5,0.1,0.8,0.2c-0.7,1.4-1.9,2.5-3.6,3.3c-1.7,0.8-3.6,1.2-5.7,1.2
		s-3.9-0.6-5.4-1.8c-1.5-1.2-2.2-2.9-2.2-5.1c0-1.4,0.2-2.8,0.7-4.1c0.5-1.3,1.1-2.5,1.9-3.5c0.8-1,1.9-1.8,3.1-2.4
		c1.2-0.6,2.6-0.9,4-0.9C93.3,31.4,95,32.5,95.8,34.9z"/>
	<path fill="#FFFFFF" d="M113.4,48.9c-0.3,0.4-0.6,0.6-1.1,0.6c-0.1,0-0.3,0-0.4-0.1c-0.4-0.8-0.6-2-0.8-3.5c-0.2-1.5-0.3-2.5-0.4-3
		c-1.8-0.1-3.6-0.1-5.4-0.1c-1.8,0-3.4,0.1-4.9,0.2c-0.2,0.7-0.3,1.7-0.5,3.1c-0.2,1.4-0.3,2.3-0.4,2.7c-0.6,0.5-1.1,0.6-1.6,0.2
		c0-0.4,0.1-1,0.2-1.9c0.1-0.9,0.2-1.6,0.3-2.2c0.1-0.6,0.2-1.4,0.3-2.3c0.1-0.9,0.3-1.7,0.4-2.4s0.3-1.4,0.6-2.3
		c0.3-0.8,0.5-1.6,0.8-2.2c0.3-0.6,0.6-1.2,1-1.8c0.4-0.6,0.8-1.1,1.3-1.5c1-0.9,2.2-1.3,3.4-1.3c1.2,0,2.2,0.5,3,1.4
		c0.8,0.9,1.4,2.2,1.8,3.7c0.4,1.5,0.8,3,1,4.6c0.3,1.5,0.5,3.1,0.7,4.7C112.9,47,113.2,48.2,113.4,48.9z M108.8,35
		c-0.3-0.8-0.7-1.5-1.2-1.9c-0.5-0.5-1.1-0.7-1.9-0.7s-1.4,0.4-2.1,1.1c-0.7,0.7-1.2,1.6-1.6,2.7c-0.7,2-1.2,3.8-1.3,5.5
		c1.7-0.2,3.3-0.3,5-0.3c1.7,0,3.3,0.1,4.9,0.1c-0.1-0.3-0.2-0.8-0.4-1.8c-0.2-0.9-0.4-1.8-0.6-2.5C109.4,36.6,109.1,35.8,108.8,35z
		"/>
	<path fill="#FFFFFF" d="M117,32l-0.1,11.1c0,1.7,0,3.3,0.1,4.9c1,0.1,1.9,0.1,2.7,0.1l5.3-0.1c0.8,0,1.2,0.2,1.2,0.7
		c0,0.6-1.8,0.8-5.3,0.8c-0.9,0-1.9,0-3.3-0.1c-1.3-0.1-2.1-0.2-2.4-0.4c-0.1-1.8-0.1-4.7-0.1-8.7l0.1-8.8c0.4-0.3,0.8-0.5,1-0.5
		C116.7,31,117,31.3,117,32z"/>
	<path fill="#FFFFFF" d="M133.4,31.1l3.8,0.1c1.3,0,2.2,0.1,2.7,0.4c-0.1,0.5-0.2,0.8-0.5,0.9c-0.3,0.1-0.7,0.2-1.3,0.2l-5.4-0.1
		c-1.4,0-2.5,0-3.5,0.1c-0.2,0.9-0.3,2.3-0.3,4l0,1.1c0,0.5,0,1,0,1.6c0.8,0.1,1.8,0.2,3,0.2l3,0c1.1,0,1.8,0.1,1.9,0.2
		c0.2,0.1,0.3,0.2,0.3,0.4c0,0.6-0.8,0.9-2.4,0.9l-5.7-0.2c0,0.4,0,1.1-0.1,2c0,2-0.1,3.5-0.2,4.6c1.1,0.1,1.8,0.1,2.3,0.1
		c0.5,0,0.9,0,1.4,0c0.5,0,1.4-0.1,2.8-0.2c1.4-0.1,2.4-0.1,3.1-0.1c0.7,0,1.1,0,1.4,0.1c0.3,0.1,0.4,0.3,0.4,0.6
		c0,0.2-0.1,0.3-0.2,0.4c-0.1,0.1-0.2,0.1-0.3,0.2c-0.1,0-0.2,0.1-0.3,0.1c-0.1,0-0.2,0-0.3,0.1c-0.1,0-0.2,0-0.4,0
		c-0.2,0-0.3,0-0.4,0c-0.1,0-0.2,0-0.4,0h-0.4c-3.3,0.1-5.4,0.2-6.3,0.2c-2.8,0-4.1-0.4-4.1-1.1c0-1.6-0.1-3-0.1-4.4
		c0-4.6,0.2-8.5,0.5-11.5c0.4-0.6,1.4-0.9,3-1C131.7,31.1,132.6,31.1,133.4,31.1z"/>
	<path fill="#FFFFFF" d="M155.1,47.1l0.2-15.5c0.3-0.3,0.5-0.4,0.9-0.4c0.3,0,0.5,0.1,0.7,0.2c0.1,2.2,0.2,4,0.2,5.5l-0.2,11.6
		c0,0.3,0,0.6,0,0.9c-0.6,0.4-1,0.6-1.4,0.6l-0.3-0.1c-0.2-0.1-0.3-0.1-0.4-0.2c-0.1,0-0.2-0.2-0.4-0.4c-0.1-0.2-0.3-0.3-0.3-0.4
		c0-0.1-0.2-0.3-0.3-0.6c-0.2-0.3-0.3-0.5-0.4-0.6c-0.1-0.1-0.5-0.9-1.4-2.3c-0.9-1.4-1.4-2.3-1.7-2.6c-0.2-0.4-0.7-1.1-1.5-2.2
		c-0.8-1.1-1.4-2-1.8-2.5c-1.3-1.6-2.5-2.9-3.6-3.9c0.1,2.2,0.1,4.5,0.1,7s0,5.1-0.1,7.9c-0.2,0.3-0.8,0.4-1.7,0.4
		c0-9.4,0-15.2-0.1-17.4c0.3-0.3,0.6-0.5,0.9-0.5c0.3,0,0.6,0.1,0.9,0.3c0.4,0.3,0.9,0.7,1.5,1.2c1.8,1.8,3.4,3.8,5,6
		C151.6,41.4,153.3,44,155.1,47.1z"/>
	<path fill="#FFFFFF" d="M164.5,49.1l-2.1,0.1c-1.2,0-1.9-0.2-2.3-0.5c-0.2-0.2-0.3-0.4-0.3-0.7c0-1.9,0.1-4.4,0.2-7.4
		c0.1-3.1,0.2-5.4,0.2-7.1c0-0.7,0.6-1.2,1.9-1.6c1.3-0.4,2.6-0.6,4.1-0.6c2.7,0,5,0.8,6.8,2.3c1.8,1.5,2.7,3.5,2.7,6
		c0,1.2-0.2,2.4-0.6,3.4c-0.4,1.1-1,2-1.7,2.7c-0.7,0.8-1.5,1.4-2.5,1.9C168.9,48.6,166.8,49.1,164.5,49.1z M173.9,40.1
		c0-2.2-0.7-4-2.2-5.4c-1.5-1.5-3.3-2.2-5.7-2.2c-1.1,0-2.5,0.4-4,1.1c0,1.4-0.1,3.4-0.2,6.1c-0.1,2.7-0.2,4.6-0.2,5.6
		c0,1,0,1.8,0,2.2c0.9,0.2,1.9,0.3,3,0.3c2.7,0,4.9-0.7,6.7-2C173,44.4,173.9,42.6,173.9,40.1z"/>
	<path fill="#FFFFFF" d="M192.1,48.9c-0.3,0.4-0.6,0.6-1.1,0.6c-0.1,0-0.3,0-0.4-0.1c-0.4-0.8-0.7-2.3-0.9-4.4
		c-0.1-0.9-0.2-1.6-0.3-2.1c-1.8-0.1-3.6-0.1-5.4-0.1c-1.8,0-3.4,0.1-4.9,0.2c-0.2,0.7-0.3,1.7-0.5,3.1c-0.2,1.4-0.3,2.3-0.4,2.7
		c-0.3,0.3-0.7,0.4-1.1,0.4c-0.2,0-0.3-0.1-0.5-0.2c0-0.4,0.2-1.6,0.4-3.5c0.2-1.9,0.5-3.7,0.9-5.4c0.8-3.8,2-6.4,3.6-7.8
		c1-0.9,2.2-1.3,3.5-1.3c1.2,0,2.1,0.5,2.9,1.4c0.8,0.9,1.4,2.2,1.8,3.7c0.4,1.5,0.8,3,1,4.6c0.3,1.5,0.5,3.1,0.7,4.7
		C191.6,47,191.8,48.2,192.1,48.9z M184.4,32.4c-0.7,0-1.4,0.4-2.1,1.1c-0.7,0.7-1.2,1.6-1.6,2.7c-0.7,2-1.2,3.8-1.3,5.5
		c1.7-0.2,3.3-0.3,5-0.3c1.7,0,3.3,0.1,4.9,0.1c-0.1-0.3-0.2-0.8-0.4-1.8c-0.2-0.9-0.4-1.8-0.6-2.5c-0.2-0.7-0.5-1.5-0.8-2.3
		c-0.3-0.8-0.7-1.5-1.2-1.9C185.7,32.6,185.1,32.4,184.4,32.4z M183.5,27.2c1.1-0.7,1.8-1.1,2-1.3c0.2-0.2,0.5-0.2,0.7-0.2
		s0.5,0,0.8,0.1c0.3,0.1,0.4,0.2,0.4,0.3c0,0.1-0.1,0.2-0.3,0.4c-0.2,0.1-0.9,0.6-2,1.3c-1.1,0.7-2,1.3-2.6,1.7
		c-0.1,0.1-0.3,0.2-0.5,0.2c-0.2,0-0.5-0.1-0.8-0.2c-0.3-0.1-0.5-0.2-0.5-0.3c0-0.1,0-0.2,0.1-0.3C181.5,28.5,182.4,27.9,183.5,27.2
		z"/>
	<path fill="#FFFFFF" d="M195.4,44.2l0.1,3.8c0,0.5-0.1,0.9-0.4,1c-0.2,0.2-0.5,0.3-0.6,0.3c-0.2,0-0.4,0-0.6-0.1
		c-0.2-1.8-0.3-3.5-0.3-5.2s0.1-3.6,0.2-5.8c0.1-2.2,0.2-3.9,0.2-5.1c0-1.3,1.8-2,5.4-2c1.9,0,3.7,0.4,5.3,1.2
		c0.9,0.4,1.6,1,2.1,1.7c0.5,0.7,0.8,1.5,0.8,2.4s-0.2,1.7-0.6,2.4c-0.4,0.7-0.9,1.3-1.5,1.8c-0.6,0.5-1.3,0.9-2.1,1.2
		c-1.3,0.6-2.8,1-4.4,1.2c0.8,0.4,2.1,1.5,3.9,3.3c0.5,0.5,1.2,1,2,1.4c0.8,0.4,1.7,0.6,2.5,0.6c0.1,0,0.3,0,0.5-0.1
		c0.3,0,0.5-0.1,0.7-0.1c0.2,0,0.4,0,0.5,0.1c0.2,0.1,0.2,0.3,0.2,0.5c0,0.6-0.7,0.9-2.1,0.9c-1.6,0-3.3-0.6-4.9-1.9
		c-0.7-0.5-1.4-1.1-2.1-1.6c-1.7-1.4-3.3-2.3-4.7-2.7C195.4,43.5,195.4,43.8,195.4,44.2z M205.7,36.7c0-1.4-0.6-2.5-1.9-3.2
		c-1.3-0.7-2.9-1.1-4.8-1.1c-1.2,0-2.4,0.1-3.4,0.4c0,1.3,0,2.8-0.1,4.4c-0.1,1.6-0.1,2.7-0.1,3.3c0,0.6,0,1,0,1.3
		c2.5-0.2,4.4-0.5,5.7-0.9c1.4-0.4,2.5-0.9,3.3-1.6C205.3,38.7,205.7,37.8,205.7,36.7z"/>
	<path fill="#FFFFFF" d="M211.8,31.4c-0.2,7.5-0.3,13.4-0.3,17.7c-0.3,0.3-0.5,0.4-0.7,0.4c-0.2,0-0.4,0-0.5-0.1
		c-0.4-0.3-0.6-0.7-0.6-1.4c0-8,0.1-12.7,0.2-14.1c0.1-1.4,0.2-2.2,0.4-2.4c0.2-0.2,0.4-0.3,0.6-0.3
		C211.2,31.1,211.5,31.2,211.8,31.4z"/>
	<path fill="#FFFFFF" d="M231,36.5c0.5,1.1,0.8,2.3,0.8,3.8c0,1.4-0.3,2.8-0.9,4s-1.3,2.2-2.3,3c-1.9,1.5-4,2.3-6.4,2.3
		c-2.3,0-4.3-0.8-6-2.3c-1.7-1.5-2.5-3.6-2.5-6.2c0-1.5,0.2-2.9,0.7-4.1s1.2-2.2,2-2.9c1.7-1.5,3.8-2.3,6.1-2.3
		c2.3,0,4.4,0.7,6.2,2.1C229.8,34.5,230.5,35.4,231,36.5z M215.5,41.1c0,2.1,0.6,3.9,1.8,5.1c1.2,1.3,2.9,1.9,4.9,1.9
		c2.4,0,4.2-0.7,5.7-2.2c1.4-1.4,2.1-3.3,2.1-5.5c0-2.2-0.7-4-2.1-5.3c-1.4-1.3-3.2-2-5.2-2c-2,0-3.8,0.7-5.1,2
		C216.1,36.6,215.5,38.6,215.5,41.1z"/>
</g>
</svg>
