<?xml version="1.0" encoding="utf-8"?>
<!-- Generator: Adobe Illustrator 18.0.0, SVG Export Plug-In . SVG Version: 6.00 Build 0)  -->
<!DOCTYPE svg PUBLIC "-//W3C//DTD SVG 1.1//EN" "http://www.w3.org/Graphics/SVG/1.1/DTD/svg11.dtd">
<svg version="1.1" id="Camada_1" xmlns="http://www.w3.org/2000/svg" xmlns:xlink="http://www.w3.org/1999/xlink" x="0px" y="0px"
	 viewBox="0 0 319.6 108.7" enable-background="new 0 0 319.6 108.7" xml:space="preserve">
<path fill-rule="evenodd" clip-rule="evenodd" fill="#59519E" d="M54.6,0.4c29.8,0,54,24.2,54,54s-24.2,54-54,54
	c-29.8,0-54-24.2-54-54S24.8,0.4,54.6,0.4z"/>
<path fill="#FFFFFF" d="M75,35.5c-2.4-2.4-5.5-3.7-8.5-3.7c-2.6,0-5,1-6.7,2.7l-7,7c0,0,0,0-0.1,0.1c0,0,0,0,0,0l0,0l-14.8,15
	c-0.7,0.7-1.2,1.5-1.5,2.5l-3.4,12.2c0,0-0.2,1-0.2,1.5c0,2.8,2.3,5,5,5c0.6,0,1.6-0.3,1.7-0.3l12.2-3.2c0.9-0.3,1.8-0.8,2.5-1.5
	L76,50.7C80,46.7,79.5,40,75,35.5z M55.7,66c-0.1-1.3-0.5-2.6-1-3.8l13.6-13.6c0.8,2.6,0.4,5.4-1.4,7.2c0,0,0,0,0,0l0,0L55.8,67
	C55.8,66.7,55.8,66.3,55.7,66z M54,60.9c-0.5-0.9-1.1-1.7-1.9-2.5c-0.9-0.9-1.9-1.6-2.9-2.1l13.7-13.7c1.1,0.5,2.1,1.2,3,2.1
	c0.8,0.8,1.4,1.6,1.8,2.5L54,60.9z M47.8,55.6c-1.3-0.5-2.7-0.8-4.1-0.9l11.1-11.2c1.7-1.7,4.2-2.1,6.6-1.5L47.8,55.6z M38.7,74.7
	c-0.2,0-0.6,0.2-1,0.2c-1.2,0-2.1-1-2.1-2.2c0-0.2,0.1-0.7,0.1-0.8l1.5-5.5c1.6,0,3.4,0.6,4.8,2c1.4,1.4,2.1,3.2,2,4.9L38.7,74.7z
	 M45.5,72.9c0-1.9-0.8-3.9-2.4-5.5c-1.5-1.5-3.5-2.4-5.4-2.4l1.4-5.2c0.1-0.3,0.3-0.7,0.6-1c2.9-2.1,7.3-1.5,10.4,1.6
	c3.3,3.3,3.8,8,1.3,10.9c-0.2,0.1-0.3,0.2-0.5,0.2L45.5,72.9z M74,48.7l-2.4,2.4c0-0.3,0-0.6,0-1c-0.3-2.8-1.5-5.5-3.7-7.6
	c-2.3-2.3-5.4-3.7-8.5-3.7l2.4-2.4c1.2-1.2,2.9-1.8,4.7-1.8c2.3,0,4.7,1,6.5,2.9c1.7,1.7,2.7,3.8,2.9,6C76,45.5,75.3,47.3,74,48.7z"
	/>
<g>
	<path fill="#56509F" d="M130.6,33.5c0-3.1-0.1-5.9-0.4-8.3c0-0.6,0.3-1.2,0.8-1.6s1.2-0.8,2.1-1.1c1.7-0.4,3.6-0.7,5.7-0.7
		c2.7,0,4.8,0.6,6.3,1.8c1.5,1.2,2.3,3,2.3,5.4c0,2.4-1,4.4-2.9,5.8c-2,1.5-4.4,2.2-7.2,2.2c-1.4,0-3-0.3-4.5-0.9
		c-0.1,1-0.1,2.3-0.1,3.9l0,1.5c0,0.5,0,1,0,1.5c-0.1,0.1-0.2,0.2-0.3,0.3s-0.2,0.1-0.3,0.1c-0.1,0-0.1,0.1-0.2,0.1
		c-0.1,0-0.2,0-0.2,0c-0.1,0-0.3,0.1-0.4,0.1h-0.5c0-1.5-0.1-2.9-0.1-4L130.6,33.5z M132.6,34c1.5,1,3.2,1.5,5.3,1.5
		s3.8-0.6,5.2-1.9c1.4-1.2,2.1-2.8,2.1-4.6c0-1.8-0.7-3.2-2.2-4.1s-3.2-1.4-5.2-1.4c-2,0-3.8,0.5-5.3,1.4
		C132.6,26.2,132.6,29.2,132.6,34z"/>
	<path fill="#56509F" d="M168.7,28.1c0.6,1.3,0.9,2.8,0.9,4.5c0,1.7-0.4,3.3-1,4.8c-0.7,1.5-1.6,2.7-2.7,3.6
		c-2.3,1.8-4.8,2.7-7.6,2.7c-2.8,0-5.2-0.9-7.2-2.7c-2-1.8-3-4.3-3-7.4c0-1.8,0.3-3.4,0.9-4.9c0.6-1.4,1.4-2.6,2.4-3.5
		c2.1-1.8,4.5-2.8,7.4-2.8c2.8,0,5.3,0.8,7.4,2.5C167.2,25.8,168,26.9,168.7,28.1z M150.1,33.7c0,2.6,0.7,4.6,2.2,6.2
		c1.5,1.5,3.4,2.3,5.9,2.3c2.8,0,5.1-0.9,6.8-2.6c1.7-1.7,2.6-3.9,2.6-6.6s-0.9-4.8-2.6-6.3c-1.7-1.6-3.8-2.4-6.3-2.4
		c-2.5,0-4.5,0.8-6.1,2.4C150.9,28.3,150.1,30.6,150.1,33.7z"/>
	<path fill="#56509F" d="M174.1,37.4l0.1,4.5c0,0.6-0.1,1-0.4,1.3c-0.3,0.2-0.5,0.3-0.8,0.3c-0.2,0-0.5,0-0.7-0.1
		c-0.3-2.1-0.4-4.2-0.4-6.3s0.1-4.4,0.2-6.9c0.1-2.6,0.2-4.6,0.2-6.1c0-1.6,2.1-2.4,6.4-2.4c2.3,0,4.4,0.5,6.4,1.4
		c1,0.5,1.9,1.2,2.5,2c0.7,0.9,1,1.8,1,2.9c0,1.1-0.2,2-0.7,2.9c-0.5,0.9-1.1,1.6-1.8,2.1s-1.6,1.1-2.5,1.5
		c-1.6,0.7-3.3,1.2-5.3,1.4c1,0.5,2.5,1.8,4.7,3.9c0.6,0.6,1.5,1.2,2.4,1.7c1,0.5,2,0.7,3,0.7c0.1,0,0.3,0,0.6-0.1
		c0.3,0,0.6-0.1,0.8-0.1c0.2,0,0.4,0,0.6,0.1c0.2,0.1,0.3,0.3,0.3,0.6c0,0.7-0.9,1-2.6,1c-2,0-4-0.8-5.9-2.3c-0.9-0.6-1.7-1.3-2.5-2
		c-2-1.7-3.9-2.8-5.7-3.2C174.1,36.6,174.1,36.9,174.1,37.4z M186.4,28.4c0-1.7-0.8-2.9-2.3-3.8c-1.5-0.9-3.4-1.3-5.7-1.3
		c-1.5,0-2.8,0.2-4.1,0.5c0,1.6-0.1,3.3-0.2,5.3c-0.1,1.9-0.1,3.3-0.1,4c0,0.7,0,1.3,0,1.6c3-0.2,5.3-0.6,6.9-1
		c1.7-0.5,3-1.1,3.9-1.9C185.9,30.8,186.4,29.7,186.4,28.4z"/>
	<path fill="#56509F" d="M210.8,31.4c0,4.1-1.2,7.2-3.6,9.3c0.4,0.5,0.8,0.9,1.1,1.2c0.1,0.2,0.4,0.4,0.9,0.6s0.8,0.4,1,0.6
		c0.2,0.2,0.3,0.5,0.3,0.8c-0.2,0.1-0.5,0.1-0.9,0.1c-0.3,0-0.8-0.1-1.4-0.4c-0.6-0.3-1.1-0.6-1.5-1l-0.9-0.9c-1.7,1-3.7,1.5-6,1.5
		c-2.9,0-5.2-0.9-6.9-2.7c-1.7-1.8-2.5-4-2.5-6.7c0-1.9,0.3-3.8,1-5.5s1.7-3.3,3.1-4.5c1.4-1.2,3-1.8,4.8-1.8c2.9,0,5.5,0.8,7.8,2.3
		c1.1,0.8,2,1.8,2.7,3C210.4,28.4,210.8,29.8,210.8,31.4z M204.9,38.2l1,1.1c1.7-1.7,2.6-4,2.6-7s-0.8-5.3-2.5-6.7
		c-1.6-1.4-3.9-2.2-6.6-2.2c-1.3,0-2.4,0.5-3.5,1.5s-1.9,2.3-2.5,3.7c-0.6,1.5-0.9,2.8-0.9,4.1c0,1.3,0.1,2.4,0.4,3.3
		c0.3,0.9,0.7,1.8,1.2,2.6c0.6,0.8,1.4,1.5,2.4,1.9c1,0.5,2.3,0.7,3.9,0.7c1.5,0,3-0.3,4.2-1c-1.7-1.7-2.8-2.8-3-3.1
		c-0.3-0.3-0.5-0.7-0.6-1.1c0.2-0.2,0.5-0.2,0.7-0.2C202.5,36,203.6,36.7,204.9,38.2z"/>
	<path fill="#56509F" d="M213.8,22.4c0.6-0.4,1.2-0.5,1.7-0.4c0.2,0.1,0.3,0.3,0.3,0.7c-0.6,4-0.9,6.7-0.9,8.2
		c0,1.5,0.1,2.8,0.3,3.9c0.2,1.1,0.5,2.2,0.9,3.4c0.4,1.2,1.1,2.2,1.9,2.9c0.9,0.7,1.9,1.1,3.2,1.1c1.8,0,3.3-1.1,4.6-3.2
		c1.3-2.1,2-4.7,2-7.8c0-3-0.7-6-2.1-8.9c0.4-0.4,0.8-0.5,1.1-0.5s0.6,0,0.8,0.1c1.6,2.3,2.4,5.3,2.4,9c0,3-0.8,5.9-2.3,8.7
		c-0.8,1.3-1.8,2.4-3,3.2c-1.2,0.8-2.5,1.2-3.9,1.2s-2.5-0.3-3.4-0.9c-0.9-0.6-1.7-1.3-2.2-2.2c-0.5-0.9-1-1.9-1.3-3
		c-0.6-2-0.9-4.2-0.9-6.6C212.9,27.7,213.2,24.8,213.8,22.4z"/>
	<path fill="#56509F" d="M239,23.5c-1.6,0-3,0.1-4.1,0.1c-0.2,1.1-0.3,2.7-0.3,4.8l0,1.4c0,0.6,0,1.2,0,1.9c0.9,0.2,2.1,0.2,3.6,0.2
		l4,0c1.4,0,2.2,0.2,2.2,0.7c0,0.8-1,1.1-2.9,1.1l-6.8-0.2c0,0.5,0,1.6-0.1,3.4c0,1.8-0.1,3.3-0.3,4.5c1.3,0.1,2.3,0.1,3.2,0.1
		c0.9,0,2.4-0.1,4.6-0.2c1.6-0.1,2.9-0.1,3.7-0.1s1.4,0.1,1.7,0.2c0.3,0.1,0.5,0.3,0.5,0.6c0,0.3-0.1,0.5-0.2,0.6
		c-0.1,0.1-0.2,0.1-0.3,0.2c-0.1,0.1-0.2,0.1-0.4,0.1c-0.1,0-0.3,0.1-0.4,0.1c-0.1,0-0.3,0-0.4,0c-0.2,0-0.3,0-0.5,0
		c-0.1,0-0.3,0-0.5,0s-1.3,0-3.3,0.1c-2,0.1-3.6,0.1-4.6,0.1c-3.3,0-5-0.5-5-1.4c0-1.9-0.1-3.6-0.1-5.3c0-5.5,0.2-10.1,0.5-13.8
		c0.2-0.3,0.7-0.6,1.5-0.9c0.8-0.3,2.6-0.4,5.5-0.4l4.6,0.1c1.5,0,2.6,0.2,3.2,0.5c-0.1,0.6-0.3,0.9-0.6,1.1
		c-0.4,0.2-0.9,0.3-1.6,0.3L239,23.5z M236.3,18.4c0.8-0.7,1.5-1.2,2.1-1.4c0.6-0.3,1.3-0.4,2-0.4c0.7,0,1.3,0.1,1.8,0.3
		c0.5,0.2,0.8,0.5,1.1,0.8s0.6,0.6,0.9,1c0.3,0.4,0.6,0.7,0.9,0.8c0.1,0.1,0.1,0.1,0.1,0.2c0,0.1-0.2,0.2-0.6,0.3s-0.7,0.2-1.1,0.2
		s-1-0.4-1.8-1.2c-0.8-0.8-1.4-1.3-1.7-1.5c-0.2,0.1-0.6,0.4-1.1,0.9c-0.5,0.5-1,0.8-1.5,1.1s-1.1,0.4-1.6,0.4s-0.9-0.1-0.9-0.2
		l0.1-0.1C235.1,19.4,235.5,19.1,236.3,18.4z"/>
	<path fill="#56509F" d="M271.2,40.8l0.3-18.6c0.3-0.3,0.7-0.5,1-0.5c0.4,0,0.6,0.1,0.8,0.2c0.1,2.7,0.2,4.9,0.2,6.6l-0.2,13.9
		c0,0.4,0,0.8,0,1.1c-0.7,0.4-1.2,0.7-1.7,0.7l-0.4-0.1c-0.2-0.1-0.4-0.2-0.5-0.2s-0.3-0.2-0.4-0.4c-0.2-0.2-0.3-0.4-0.4-0.5
		c-0.1-0.1-0.2-0.3-0.4-0.7c-0.2-0.3-0.4-0.6-0.4-0.7c-0.1-0.1-0.6-1-1.7-2.7c-1.1-1.7-1.7-2.7-2-3.2c-0.3-0.4-0.9-1.3-1.8-2.7
		c-0.9-1.4-1.6-2.4-2.1-3c-1.5-2-3-3.5-4.3-4.7c0.1,2.6,0.1,5.4,0.1,8.4c0,3-0.1,6.2-0.2,9.5c-0.2,0.4-0.9,0.5-2,0.5
		c0-11.3,0-18.3-0.1-20.9c0.4-0.4,0.8-0.5,1.1-0.5c0.4,0,0.7,0.1,1.1,0.3c0.5,0.3,1.1,0.8,1.7,1.4c2.1,2.1,4.1,4.5,6,7.2
		C266.9,34,268.9,37.2,271.2,40.8z"/>
	<path fill="#56509F" d="M294.3,43c-0.3,0.4-0.8,0.7-1.4,0.7c-0.2,0-0.3,0-0.5-0.1c-0.4-1-0.8-2.8-1.1-5.3c-0.1-1.1-0.2-2-0.3-2.6
		c-2.2-0.1-4.4-0.1-6.5-0.1c-2.2,0-4.1,0.1-5.9,0.3c-0.2,0.8-0.4,2-0.6,3.7c-0.2,1.6-0.4,2.7-0.5,3.3c-0.4,0.3-0.9,0.5-1.3,0.5
		c-0.2,0-0.4-0.1-0.6-0.2c0.1-0.5,0.2-1.9,0.5-4.2c0.3-2.3,0.6-4.4,1-6.5c1-4.6,2.4-7.7,4.4-9.3c1.2-1,2.6-1.5,4.2-1.5
		c1.4,0,2.6,0.6,3.5,1.7c1,1.1,1.7,2.6,2.2,4.4c0.5,1.8,0.9,3.6,1.2,5.5c0.3,1.8,0.6,3.7,0.9,5.6C293.7,40.8,294,42.2,294.3,43z
		 M285.1,23.2c-0.9,0-1.7,0.4-2.6,1.3s-1.5,1.9-1.9,3.2c-0.9,2.4-1.4,4.6-1.6,6.6c2-0.2,4-0.3,6-0.3c2,0,4,0.1,5.8,0.2
		c-0.1-0.3-0.2-1-0.4-2.1c-0.2-1.1-0.4-2.1-0.7-3c-0.2-0.8-0.5-1.8-0.9-2.7c-0.4-1-0.9-1.7-1.5-2.3
		C286.7,23.5,285.9,23.2,285.1,23.2z M281.9,19.8c-0.2,0.3-0.6,0.4-1.2,0.4c-0.6,0-0.9-0.1-0.9-0.4c0-0.1,0-0.2,0.1-0.3
		c1.3-1.5,2.5-2.3,3.6-2.3c0.6,0,1.4,0.3,2.3,0.8c0.9,0.5,1.4,0.8,1.6,0.8c0.2,0,0.4-0.1,0.5-0.2s0.2-0.2,0.3-0.4
		c0.2-0.2,0.3-0.6,0.6-1c0.2-0.3,0.6-0.5,1.1-0.5c0,0,0.1,0,0.1,0c0.6,0,0.8,0.2,0.8,0.6l-0.1,0.3c-0.9,1.8-2.1,2.7-3.6,2.7
		c-0.5,0-1.2-0.3-2-0.8c-0.8-0.5-1.4-0.8-1.6-0.8C283,18.7,282.5,19.1,281.9,19.8z"/>
	<path fill="#56509F" d="M315.9,28.1c0.6,1.3,0.9,2.8,0.9,4.5c0,1.7-0.4,3.3-1,4.8c-0.7,1.5-1.6,2.7-2.7,3.6
		c-2.3,1.8-4.8,2.7-7.6,2.7c-2.8,0-5.2-0.9-7.2-2.7c-2-1.8-3-4.3-3-7.4c0-1.8,0.3-3.4,0.9-4.9c0.6-1.4,1.4-2.6,2.4-3.5
		c2.1-1.8,4.5-2.8,7.4-2.8c2.8,0,5.3,0.8,7.4,2.5C314.4,25.8,315.3,26.9,315.9,28.1z M297.3,33.7c0,2.6,0.7,4.6,2.2,6.2
		c1.5,1.5,3.4,2.3,5.9,2.3c2.8,0,5.1-0.9,6.8-2.6c1.7-1.7,2.6-3.9,2.6-6.6s-0.9-4.8-2.6-6.3c-1.7-1.6-3.8-2.4-6.3-2.4
		c-2.5,0-4.5,0.8-6.1,2.4C298.1,28.3,297.3,30.6,297.3,33.7z"/>
</g>
<g>
	<path fill="#56509F" d="M134.6,81.1l-3.3,0.1c-1.9,0-3.1-0.3-3.6-0.8c-0.3-0.3-0.5-0.6-0.5-1.1c0-3,0.1-7,0.3-11.9
		c0.2-4.9,0.3-8.7,0.3-11.4c0-1.1,1-2,3-2.6c2-0.7,4.2-1,6.5-1c4.3,0,8,1.2,10.8,3.7c2.9,2.5,4.3,5.6,4.3,9.6c0,2-0.3,3.8-1,5.5
		c-0.7,1.7-1.6,3.1-2.7,4.3c-1.1,1.2-2.5,2.2-4,3.1C141.6,80.3,138.2,81.1,134.6,81.1z M149.6,66.7c0-3.4-1.2-6.3-3.5-8.7
		c-2.3-2.3-5.4-3.5-9.1-3.5c-1.8,0-4,0.6-6.5,1.8c0,2.2-0.1,5.4-0.3,9.7c-0.2,4.3-0.3,7.3-0.3,8.9s0,2.8,0,3.5
		c1.5,0.3,3.1,0.4,4.8,0.4c4.3,0,7.9-1.1,10.7-3.2C148.2,73.6,149.6,70.6,149.6,66.7z"/>
	<path fill="#56509F" d="M158.8,52.7c-0.3,12.1-0.4,21.5-0.4,28.2c-0.4,0.4-0.8,0.6-1.1,0.6c-0.3,0-0.6-0.1-0.8-0.2
		c-0.6-0.4-0.9-1.1-0.9-2.2c0.1-12.8,0.1-20.3,0.3-22.5c0.1-2.2,0.3-3.5,0.6-3.8c0.3-0.3,0.6-0.5,1-0.5
		C157.8,52.3,158.3,52.5,158.8,52.7z"/>
	<path fill="#56509F" d="M160.5,53.4c0.2-0.6,0.8-1,1.7-1c0.3,0,0.5,0.1,0.7,0.2c0.9,2,1.9,4.8,3.1,8.4c1.2,3.6,2.4,7,3.6,10.2
		c1.2,3.1,2.6,5.8,4.1,8c1.5-0.4,3-3.8,4.7-10c0.7-2.6,1.4-5.2,2.1-7.7s1.5-4.7,2.4-6.5c0.9-1.8,1.8-2.6,2.8-2.6
		c0.4,0,0.8,0.1,1.2,0.3c-0.7,0.7-1.4,2.1-2.2,4.4c-0.8,2.3-1.5,4.8-2.3,7.5c-0.7,2.7-1.5,5.4-2.4,8s-1.8,4.9-3,6.6
		c-1.2,1.8-2.4,2.6-3.7,2.6c-1.8,0-3.9-3.1-6.2-9.2c-1.3-3.2-2.2-5.7-2.8-7.6c-0.6-1.9-1.4-4.1-2.2-6.8
		C161.3,55.7,160.7,54,160.5,53.4z"/>
	<path fill="#56509F" d="M198.2,52.2l6.2,0.1c2.1,0,3.5,0.2,4.2,0.7c-0.1,0.7-0.4,1.2-0.8,1.5c-0.5,0.2-1.2,0.4-2.1,0.4l-8.6-0.1
		c-2.2,0-4,0.1-5.5,0.2c-0.3,1.5-0.4,3.6-0.4,6.4l0,1.8c0,0.8,0,1.6,0,2.5c1.2,0.2,2.8,0.3,4.8,0.3l4.8,0c1.8,0,2.9,0.1,3.1,0.3
		c0.3,0.2,0.4,0.4,0.4,0.6c0,1-1.3,1.5-3.9,1.5l-9.1-0.3c0,0.6-0.1,1.7-0.1,3.3c-0.1,3.2-0.2,5.7-0.4,7.3c1.7,0.1,2.9,0.2,3.7,0.2
		c0.7,0,1.5,0,2.3,0c0.8,0,2.3-0.1,4.5-0.2c2.2-0.1,3.8-0.2,4.9-0.2c1.1,0,1.8,0.1,2.2,0.2s0.6,0.5,0.6,1c0,0.3-0.1,0.5-0.3,0.7
		c-0.2,0.1-0.3,0.2-0.5,0.3c-0.1,0.1-0.3,0.1-0.5,0.2c-0.2,0-0.4,0.1-0.5,0.1c-0.1,0-0.3,0-0.6,0.1c-0.3,0-0.5,0-0.6,0
		c-0.1,0-0.3,0-0.6,0h-0.6c-5.2,0.2-8.6,0.4-10,0.4c-4.4,0-6.6-0.6-6.6-1.8c-0.1-2.5-0.1-4.8-0.1-7.1c0-7.4,0.2-13.5,0.7-18.4
		c0.6-0.9,2.2-1.4,4.9-1.5C195.5,52.2,197,52.2,198.2,52.2z"/>
	<path fill="#56509F" d="M214.1,73.2l0.1,6c0,0.8-0.2,1.4-0.6,1.7c-0.4,0.3-0.7,0.4-1,0.4s-0.6,0-0.9-0.1c-0.3-2.9-0.5-5.6-0.5-8.4
		s0.1-5.8,0.3-9.2c0.2-3.4,0.3-6.2,0.3-8.2c0-2.1,2.9-3.2,8.6-3.2c3,0,5.9,0.6,8.5,1.9c1.4,0.6,2.5,1.5,3.4,2.7s1.3,2.5,1.3,3.9
		c0,1.4-0.3,2.7-1,3.9s-1.5,2.1-2.4,2.9c-1,0.8-2.1,1.4-3.4,2c-2.1,1-4.5,1.6-7,1.9c1.3,0.7,3.4,2.5,6.2,5.2
		c0.9,0.8,1.9,1.6,3.2,2.2c1.3,0.7,2.7,1,4,1c0.1,0,0.4,0,0.8-0.1c0.4-0.1,0.8-0.1,1.1-0.1c0.3,0,0.6,0,0.8,0.2
		c0.3,0.1,0.4,0.4,0.4,0.8c0,0.9-1.1,1.4-3.4,1.4c-2.6,0-5.3-1-7.9-3c-1.1-0.9-2.3-1.7-3.4-2.6c-2.7-2.3-5.2-3.7-7.6-4.3
		C214.1,72.1,214.1,72.6,214.1,73.2z M230.6,61.3c0-2.2-1-3.9-3-5.1c-2-1.1-4.6-1.7-7.7-1.7c-1.9,0-3.8,0.2-5.4,0.6
		c0,2.1-0.1,4.4-0.2,7c-0.1,2.6-0.2,4.3-0.2,5.3s0,1.7,0,2.1c3.9-0.3,7-0.8,9.2-1.4c2.3-0.7,4.1-1.5,5.2-2.5
		C229.8,64.5,230.6,63,230.6,61.3z"/>
	<path fill="#56509F" d="M232,54.2c0-1.3,4.6-1.9,13.8-1.9c2.1,0,4.8,0.1,8.1,0.3c3.3,0.2,5,0.4,5.1,0.7c-0.1,1.2-1.2,1.8-3.3,1.8
		c-0.6,0-1.6-0.1-3.1-0.2c-1.4-0.1-2.7-0.2-3.7-0.2c-1,0-1.5,0.2-1.5,0.7c0,5.7-0.1,14.3-0.4,25.6c-0.6,0.4-1.4,0.6-2.5,0.6
		c0-1.2,0-2.6,0-4.2l0.2-17.3c0-2.1,0-3.8-0.1-5.2c-0.6-0.1-1.3-0.1-2.2-0.1c-0.9,0-2.3,0.1-4.2,0.2c-1.9,0.1-3.2,0.2-4,0.2
		C232.7,55.3,232,54.9,232,54.2z"/>
	<path fill="#56509F" d="M262.8,52.7c-0.3,12.1-0.4,21.5-0.4,28.2c-0.4,0.4-0.8,0.6-1.1,0.6c-0.3,0-0.6-0.1-0.8-0.2
		c-0.6-0.4-0.9-1.1-0.9-2.2c0.1-12.8,0.1-20.3,0.3-22.5c0.1-2.2,0.3-3.5,0.6-3.8c0.3-0.3,0.6-0.5,1-0.5
		C261.8,52.3,262.3,52.5,262.8,52.7z"/>
	<path fill="#56509F" d="M270,73.2l0.1,6c0,0.8-0.2,1.4-0.6,1.7c-0.4,0.3-0.7,0.4-1,0.4s-0.6,0-0.9-0.1c-0.3-2.9-0.5-5.6-0.5-8.4
		s0.1-5.8,0.3-9.2c0.2-3.4,0.3-6.2,0.3-8.2c0-2.1,2.9-3.2,8.6-3.2c3,0,5.9,0.6,8.5,1.9c1.4,0.6,2.5,1.5,3.4,2.7s1.3,2.5,1.3,3.9
		c0,1.4-0.3,2.7-1,3.9s-1.5,2.1-2.4,2.9c-1,0.8-2.1,1.4-3.4,2c-2.1,1-4.5,1.6-7,1.9c1.3,0.7,3.4,2.5,6.2,5.2
		c0.9,0.8,1.9,1.6,3.2,2.2c1.3,0.7,2.7,1,4,1c0.1,0,0.4,0,0.8-0.1c0.4-0.1,0.8-0.1,1.1-0.1c0.3,0,0.6,0,0.8,0.2
		c0.3,0.1,0.4,0.4,0.4,0.8c0,0.9-1.1,1.4-3.4,1.4c-2.6,0-5.3-1-7.9-3c-1.1-0.9-2.3-1.7-3.4-2.6c-2.7-2.3-5.2-3.7-7.6-4.3
		C270,72.1,270,72.6,270,73.2z M286.5,61.3c0-2.2-1-3.9-3-5.1c-2-1.1-4.6-1.7-7.7-1.7c-1.9,0-3.8,0.2-5.4,0.6c0,2.1-0.1,4.4-0.2,7
		c-0.1,2.6-0.2,4.3-0.2,5.3s0,1.7,0,2.1c3.9-0.3,7-0.8,9.2-1.4c2.3-0.7,4.1-1.5,5.2-2.5C285.8,64.5,286.5,63,286.5,61.3z"/>
</g>
</svg>
