<?xml version="1.0" encoding="utf-8"?>
<!-- Generator: Adobe Illustrator 18.0.0, SVG Export Plug-In . SVG Version: 6.00 Build 0)  -->
<!DOCTYPE svg PUBLIC "-//W3C//DTD SVG 1.1//EN" "http://www.w3.org/Graphics/SVG/1.1/DTD/svg11.dtd">
<svg version="1.1" id="Camada_1" xmlns="http://www.w3.org/2000/svg" xmlns:xlink="http://www.w3.org/1999/xlink" x="0px" y="0px"
	 viewBox="0 0 34 34" enable-background="new 0 0 34 34" xml:space="preserve">
<path fill="#134F53" d="M34,26.8c0.1,0.6-0.1,1-0.5,1.4L28.7,33c-0.2,0.2-0.5,0.4-0.8,0.6c-0.3,0.2-0.7,0.3-1,0.3c0,0-0.1,0-0.2,0
	c-0.1,0-0.3,0-0.5,0c-0.5,0-1.2-0.1-2.2-0.2c-1-0.2-2.3-0.5-3.7-1.2c-1.5-0.6-3.2-1.5-5-2.8c-1.9-1.2-3.9-2.9-6-5
	c-1.7-1.7-3.1-3.2-4.2-4.8c-1.1-1.5-2-2.9-2.7-4.2c-0.7-1.3-1.2-2.4-1.5-3.5c-0.3-1-0.6-1.9-0.7-2.7C0,8.9,0,8.3,0,7.9
	c0-0.4,0-0.7,0-0.7c0-0.3,0.2-0.7,0.3-1C0.5,5.8,0.7,5.5,1,5.3l4.8-4.8C6.1,0.2,6.5,0,6.9,0c0.3,0,0.6,0.1,0.8,0.3s0.4,0.4,0.6,0.7
	l3.9,7.3c0.2,0.4,0.3,0.8,0.2,1.3c-0.1,0.5-0.3,0.8-0.6,1.2L10,12.4c0,0-0.1,0.1-0.1,0.2c0,0.1-0.1,0.2-0.1,0.3
	c0.1,0.5,0.3,1.1,0.6,1.7c0.3,0.6,0.7,1.3,1.3,2.1c0.6,0.8,1.5,1.8,2.6,2.9c1.1,1.1,2,2,2.9,2.6c0.8,0.6,1.5,1.1,2.1,1.4
	c0.6,0.3,1,0.5,1.3,0.5l0.5,0.1c0,0,0.1,0,0.2-0.1c0.1,0,0.2-0.1,0.2-0.1l2.1-2.1c0.4-0.4,0.9-0.6,1.5-0.6c0.4,0,0.7,0.1,1,0.2h0
	l7,4.1C33.6,26,33.9,26.4,34,26.8z"/>
</svg>
