<?xml version="1.0" encoding="utf-8"?>
<!-- Generator: Adobe Illustrator 18.0.0, SVG Export Plug-In . SVG Version: 6.00 Build 0)  -->
<!DOCTYPE svg PUBLIC "-//W3C//DTD SVG 1.1//EN" "http://www.w3.org/Graphics/SVG/1.1/DTD/svg11.dtd">
<svg version="1.1" id="Camada_1" xmlns="http://www.w3.org/2000/svg" xmlns:xlink="http://www.w3.org/1999/xlink" x="0px" y="0px"
	 viewBox="0 0 14 17" enable-background="new 0 0 14 17" xml:space="preserve">
<path fill="#EF7637" d="M12.8,0.6H6.1l0-0.1C6,0.2,5.7,0,5.3,0H1.4C0.6,0,0,0.6,0,1.3v14.3C0,16.4,0.6,17,1.4,17h10.2
	c0.2,0,0.3-0.1,0.4-0.2c0.1-0.1,0.1-0.3,0.1-0.4h0.7c0.7,0,1.2-0.6,1.2-1.2V1.8C14,1.2,13.5,0.6,12.8,0.6z M12.6,14.9h-1.1l-0.6-1.6
	c0.3-0.1,0.6-0.3,0.6-0.7c0-0.4-0.3-0.7-0.7-0.7h-0.4l-0.5-1.3h1c0.4,0,0.7-0.3,0.7-0.7c0-0.4-0.3-0.7-0.7-0.7H9.4L8.9,7.8h2
	c0.4,0,0.7-0.3,0.7-0.7c0-0.4-0.3-0.7-0.7-0.7H8.3L7.8,5.2h3.1c0.4,0,0.7-0.3,0.7-0.7c0-0.4-0.3-0.7-0.7-0.7H7.3L6.7,2h6V14.9z"/>
</svg>
