<?xml version="1.0" encoding="utf-8"?>
<!-- Generator: Adobe Illustrator 18.0.0, SVG Export Plug-In . SVG Version: 6.00 Build 0)  -->
<!DOCTYPE svg PUBLIC "-//W3C//DTD SVG 1.1//EN" "http://www.w3.org/Graphics/SVG/1.1/DTD/svg11.dtd">
<svg version="1.1" id="Camada_1" xmlns="http://www.w3.org/2000/svg" xmlns:xlink="http://www.w3.org/1999/xlink" x="0px" y="0px"
	 viewBox="0 0 26 22" enable-background="new 0 0 26 22" xml:space="preserve">
<path fill="#FFFFFF" d="M24.9,1C24,0.1,23,0.1,21.9,0.1c-1.8,0-3.6-0.1-5.4,0C11.4,0.4,6.4-0.1,1.2,0C1,0,0.8,0.1,0.6,0.2
	C0.3,0.4,0,0.7,0,1.2C0,5.8,0.5,10.4,0.3,15c-0.1,2.1-1.2,5.4,1.5,6.4c2.8,1,6.3,0.5,9.2,0.3c4.4-0.3,8.9-0.1,13.3,0.3
	c0.5,0,1-0.4,1.2-0.9c1.1-4,0.4-8.1,0.2-12.2C25.6,6.6,26.7,2.8,24.9,1z M23.3,19.5c-3.5-0.3-7-0.6-10.5-0.3
	c-2.8,0.2-5.6,0.5-8.3,0.3c-1.5-0.1-2.1-0.1-2.1-1.6c0-1.3,0.3-2.6,0.3-3.9c0-3.9-0.2-7.8-0.3-11.6c3.5,0,7,0.4,10.5,0.4
	c3.2-0.1,6.3-0.3,9.5-0.3c1.7,0,0.8,5.1,0.8,6.4C23.3,12.4,24,16,23.3,19.5z"/>
<path fill="#FFFFFF" d="M11.4,12.1c0.6-1.1-0.5-2.8-1.4-3.7c0.4-0.5,0.5-1.2,0.5-1.8c-0.1-1.3-1.1-2.2-2.4-2.2
	c-1.5,0-2.6,0.9-2.8,2.4c0,0.7,0.2,1.2,0.5,1.6c-0.8,0.9-1.8,2.4-1.5,3.5c0.3,1.2,2.5,1.5,3.4,1.5C8.9,13.5,10.8,13.2,11.4,12.1z
	 M8.1,5.6c1.3,0,1.6,1.8,0.6,2.4c-0.9,0.5-2-0.1-2.1-1C6.4,6.1,7.3,5.6,8.1,5.6z M5.6,11.6c0,0,0-0.1,0-0.1c0.1-0.2,0.1-0.5,0.2-0.7
	c0.2-0.6,0.6-1.2,1-1.6C7.4,9.3,8,9.4,8.6,9.3c0.2,0,0.3-0.1,0.4-0.1c0.6,0.7,1,1.4,1.2,2.3c0.1,0.5-1.8,0.7-2.1,0.8
	C7.2,12.3,6.3,12.1,5.6,11.6z"/>
<path fill="#FFFFFF" d="M20.1,6.9c-0.7,0.2-1.2,0.5-1.9,0.1c-0.4-0.2-0.8-0.5-1.3-0.6c-0.9-0.2-1.7,0.3-2.5,0.6
	c-0.7,0.3-0.1,1.3,0.6,1c0.5-0.2,0.9-0.5,1.5-0.5c0.6,0,1,0.5,1.6,0.7c0.9,0.3,1.5,0,2.4-0.2C21.2,7.8,20.9,6.7,20.1,6.9z"/>
<path fill="#FFFFFF" d="M20.1,10.6c-0.7,0.2-1.2,0.5-1.9,0.1c-0.4-0.2-0.8-0.5-1.3-0.6c-0.9-0.2-1.7,0.3-2.5,0.6
	c-0.7,0.3-0.1,1.3,0.6,1c0.5-0.2,0.9-0.5,1.5-0.5c0.6,0,1,0.5,1.6,0.7c0.9,0.3,1.5,0,2.4-0.2C21.2,11.5,20.9,10.4,20.1,10.6z"/>
<path fill="#FFFFFF" d="M18.1,15.4c-1.5,0.5-2.6,1-4,0.1c-0.8-0.5-1.4-0.8-2.3-1c-1.5-0.3-3,0.5-4.3,1.1c-0.7,0.3-0.1,1.3,0.6,1
	c1-0.5,2-0.9,3.1-1c1.2-0.1,2,1,3.1,1.3c1.5,0.6,2.7,0,4.2-0.4C19.2,16.3,18.8,15.1,18.1,15.4z"/>
</svg>
