<?xml version="1.0" encoding="utf-8"?>
<!-- Generator: Adobe Illustrator 18.0.0, SVG Export Plug-In . SVG Version: 6.00 Build 0)  -->
<!DOCTYPE svg PUBLIC "-//W3C//DTD SVG 1.1//EN" "http://www.w3.org/Graphics/SVG/1.1/DTD/svg11.dtd">
<svg version="1.1" id="Camada_1" xmlns="http://www.w3.org/2000/svg" xmlns:xlink="http://www.w3.org/1999/xlink" x="0px" y="0px"
	 viewBox="0 0 359.1 110" enable-background="new 0 0 359.1 110" xml:space="preserve">
<path fill-rule="evenodd" clip-rule="evenodd" fill="#DD2682" d="M54.8,0.7c29.8,0,54,24.2,54,54s-24.2,54-54,54
	c-29.8,0-54-24.2-54-54S25,0.7,54.8,0.7z"/>
<path fill="#FFFFFF" d="M65.4,58.6c-0.7,1.2-1.5,2.4-2.3,3.6c7.1,1.1,10.8,3.3,10.8,4.5c0,1.5-6.5,5.1-19,5.1c-12.5,0-19-3.5-19-5.1
	c0-1.1,3.7-3.4,10.8-4.5c-0.8-1.3-1.6-2.5-2.3-3.6c-7,1.3-12.4,4.1-12.4,8.1c0,5.9,11.6,9,23,9c11.4,0,23-3.1,23-9
	C77.8,62.7,72.4,60,65.4,58.6z"/>
<path fill="#FFFFFF" d="M54.8,66.3c1,0,2-0.5,2.6-1.3c3.9-5.3,10.8-15.5,10.8-20.8c0-7.4-6-13.4-13.4-13.4c-7.4,0-13.5,6-13.5,13.4
	c0,5.3,6.9,15.5,10.8,20.8C52.8,65.9,53.8,66.3,54.8,66.3z M49.2,43.9c0-3.1,2.5-5.6,5.6-5.6c3.1,0,5.6,2.5,5.6,5.6
	s-2.5,5.6-5.6,5.6C51.7,49.5,49.2,47,49.2,43.9z"/>
<g>
	<path fill="#BE257F" d="M140,21.9l1.4,0c0.5,0,1,0,1.3,0.1l0.8,0.1c0.4,0.1,0.8,0.2,1.1,0.4c-0.2,0.8-0.8,1.3-2,1.3l-7.9-0.2
		c-0.9,0-1.9,0-3.1,0.1c0,2.2,0.1,5.1,0.1,8.9c2.3-0.2,4.2-0.3,5.7-0.3c2.9,0,4.4,0.3,4.4,0.9c0,0.7-0.5,1.1-1.4,1.1
		c-0.3,0-0.7,0-1-0.1c-1.5-0.2-2.8-0.3-4-0.3c-1.1,0-2.4,0.1-3.8,0.2c0,0.7-0.1,1.7-0.1,3.1c-0.1,1.4-0.1,2.4-0.1,2.9
		c0,0.5-0.1,0.8-0.1,1c0,0.2,0,0.4-0.1,0.7c0,0.3-0.1,0.5-0.1,0.7c-0.1,0.2-0.1,0.4-0.2,0.6c-0.1,0.3-0.3,0.6-0.7,0.7
		c-0.1,0-0.2,0.1-0.3,0.1c-0.3,0-0.6-0.1-0.9-0.2c0-0.2,0-0.9,0-1.9c0-1,0.1-3.3,0.3-6.6c0.2-3.4,0.3-6,0.3-7.7c0-1.7,0-3.1-0.1-4.2
		c0-0.5,0.5-0.8,1.5-1c1.1-0.2,2.1-0.3,3.1-0.3c1,0,1.7,0,2.3,0L140,21.9z"/>
	<path fill="#BE257F" d="M162,43.3c-0.3,0.4-0.8,0.7-1.4,0.7c-0.2,0-0.3,0-0.5-0.1c-0.4-1-0.8-2.4-1-4.2s-0.4-3-0.5-3.6
		c-2.2-0.1-4.4-0.1-6.5-0.1c-2.2,0-4.1,0.1-5.9,0.3c-0.2,0.8-0.4,2-0.6,3.7c-0.2,1.6-0.4,2.7-0.5,3.3c-0.7,0.6-1.4,0.7-1.9,0.2
		c0.1-0.5,0.1-1.2,0.3-2.3c0.1-1,0.2-1.9,0.3-2.7c0.1-0.7,0.2-1.7,0.4-2.8c0.2-1.1,0.4-2.1,0.5-2.9s0.4-1.7,0.7-2.7
		c0.3-1,0.6-1.9,0.9-2.6c0.3-0.7,0.7-1.4,1.2-2.2c0.5-0.7,1-1.3,1.5-1.8c1.2-1,2.6-1.5,4-1.5c1.5,0,2.7,0.6,3.6,1.7
		c1,1.1,1.7,2.6,2.2,4.4c0.5,1.8,0.9,3.6,1.2,5.5c0.3,1.8,0.6,3.7,0.9,5.6C161.4,41,161.7,42.4,162,43.3z M156.5,26.6
		c-0.4-1-0.9-1.7-1.5-2.3c-0.6-0.5-1.3-0.8-2.2-0.8c-0.9,0-1.7,0.4-2.6,1.3s-1.5,1.9-1.9,3.2c-0.9,2.4-1.4,4.6-1.6,6.6
		c2-0.2,4-0.3,6-0.3c2,0,4,0.1,5.8,0.2c-0.1-0.3-0.2-1-0.4-2.1c-0.2-1.1-0.4-2.1-0.7-3C157.2,28.5,156.9,27.6,156.5,26.6z"/>
	<path fill="#BE257F" d="M183.2,38.3c-0.8,1.6-2.2,2.9-4.1,3.8c-1.9,0.9-4.1,1.4-6.4,1.5c-0.1,0.1-0.2,0.3-0.4,0.7
		c-0.2,0.3-0.3,0.6-0.4,0.8c0.7,0,1.3,0.2,1.9,0.5c0.6,0.3,0.8,0.8,0.8,1.4c0,1-0.5,1.8-1.5,2.3c-1,0.5-2.2,0.8-3.6,0.8
		s-2.4-0.5-3-1.5c0-0.2,0.2-0.4,0.5-0.5s0.6-0.3,1-0.3c0.1,0,0.5,0.2,0.9,0.6c0.5,0.4,1,0.6,1.6,0.6c0.6,0,1.1-0.1,1.4-0.4
		s0.6-0.6,0.6-1.1s-0.1-0.8-0.4-1c-0.3-0.3-0.6-0.4-0.9-0.4c0,0-0.2,0-0.5,0.1c-0.7,0.1-1,0-1-0.2c0-0.8,0.4-1.5,1.2-2.3
		c-2.3-0.2-4.3-1-5.7-2.4c-1.5-1.4-2.2-3.3-2.2-5.8c0-1.7,0.3-3.3,0.8-4.9c0.6-1.6,1.3-3,2.3-4.2c1-1.2,2.2-2.2,3.7-2.9
		c1.5-0.7,3.1-1.1,4.8-1.1c3.1,0,5.2,1.4,6.2,4.2c-0.3,0.3-0.6,0.5-0.8,0.6s-0.4,0.1-0.6,0s-0.4-0.2-0.4-0.2
		c-0.1-0.1-0.2-0.3-0.5-0.6s-0.4-0.5-0.4-0.6c-1-1.3-2.3-1.9-3.9-1.9c-1.6,0-3.1,0.5-4.5,1.5c-1.4,1-2.5,2.4-3.4,4.1
		c-0.9,1.7-1.3,3.4-1.3,5.3c0,2.2,0.7,4.1,2.2,5.5s3.5,2.1,5.9,2.1c2.5,0,4.6-0.7,6.5-2.1c0.3-0.2,0.6-0.5,1-1
		c0.3-0.4,0.6-0.7,0.9-0.9c0.3-0.2,0.5-0.3,0.7-0.2C182.4,38.1,182.8,38.2,183.2,38.3z"/>
	<path fill="#BE257F" d="M201.9,43.3c-0.3,0.4-0.8,0.7-1.4,0.7c-0.2,0-0.3,0-0.5-0.1c-0.4-1-0.8-2.4-1-4.2s-0.4-3-0.5-3.6
		c-2.2-0.1-4.4-0.1-6.5-0.1c-2.2,0-4.1,0.1-5.9,0.3c-0.2,0.8-0.4,2-0.6,3.7c-0.2,1.6-0.4,2.7-0.5,3.3c-0.7,0.6-1.4,0.7-1.9,0.2
		c0.1-0.5,0.1-1.2,0.3-2.3c0.1-1,0.2-1.9,0.3-2.7c0.1-0.7,0.2-1.7,0.4-2.8c0.2-1.1,0.4-2.1,0.5-2.9s0.4-1.7,0.7-2.7
		c0.3-1,0.6-1.9,0.9-2.6c0.3-0.7,0.7-1.4,1.2-2.2c0.5-0.7,1-1.3,1.5-1.8c1.2-1,2.6-1.5,4-1.5c1.5,0,2.7,0.6,3.6,1.7
		c1,1.1,1.7,2.6,2.2,4.4c0.5,1.8,0.9,3.6,1.2,5.5c0.3,1.8,0.6,3.7,0.9,5.6C201.3,41,201.6,42.4,201.9,43.3z M196.4,26.6
		c-0.4-1-0.9-1.7-1.5-2.3c-0.6-0.5-1.3-0.8-2.2-0.8c-0.9,0-1.7,0.4-2.6,1.3s-1.5,1.9-1.9,3.2c-0.9,2.4-1.4,4.6-1.6,6.6
		c2-0.2,4-0.3,6-0.3c2,0,4,0.1,5.8,0.2c-0.1-0.3-0.2-1-0.4-2.1c-0.2-1.1-0.4-2.1-0.7-3C197.1,28.5,196.8,27.6,196.4,26.6z"/>
	<path fill="#BE257F" d="M209.7,22.7c0.6-0.4,1.2-0.5,1.7-0.4c0.2,0.1,0.3,0.3,0.3,0.7c-0.6,4-0.9,6.7-0.9,8.2
		c0,1.5,0.1,2.8,0.3,3.9c0.2,1.1,0.5,2.2,0.9,3.4c0.4,1.2,1.1,2.2,1.9,2.9c0.9,0.7,1.9,1.1,3.2,1.1c1.8,0,3.3-1.1,4.6-3.2
		c1.3-2.1,2-4.7,2-7.8c0-3-0.7-6-2.1-8.9c0.4-0.4,0.8-0.5,1.1-0.5s0.6,0,0.8,0.1c1.6,2.3,2.4,5.3,2.4,9c0,3-0.8,5.9-2.3,8.7
		c-0.8,1.3-1.8,2.4-3,3.2c-1.2,0.8-2.5,1.2-3.9,1.2s-2.5-0.3-3.4-0.9c-0.9-0.6-1.7-1.3-2.2-2.2c-0.5-0.9-1-1.9-1.3-3
		c-0.6-2-0.9-4.2-0.9-6.6C208.8,28,209.1,25,209.7,22.7z"/>
	<path fill="#BE257F" d="M228.6,31.5c0-3.2-0.2-6.2-0.5-8.9c0-0.4,0.3-0.6,0.9-0.6s1.4,0.6,2.3,1.7c1,1.1,1.9,2.3,2.8,3.6
		c0.9,1.3,1.8,2.5,2.7,3.6c0.9,1.1,1.5,1.7,1.9,1.7s1-0.6,1.8-1.8c0.8-1.2,1.7-2.4,2.5-3.8c0.8-1.4,1.7-2.7,2.7-3.8
		c1-1.2,1.7-1.8,2.3-1.8c0.6,0,0.9,0.2,0.9,0.5c0.2,2.5,0.3,4.7,0.3,6.6s0,3.5,0,4.7c0,1.2,0,2.1,0,2.6c0,0.6,0,1.8-0.1,3.8
		c-0.1,2-0.1,3.1-0.1,3.4c-0.3,0.4-0.7,0.6-1.2,0.6c-0.2,0-0.4-0.1-0.6-0.2c-0.1-2.5-0.2-5.4-0.2-8.7c0-3.3,0-6.8,0.1-10.4
		c-0.4,0.3-1,1.1-1.7,2.2s-1.4,2.3-2.1,3.5c-0.7,1.2-1.5,2.2-2.3,3.1c-0.9,0.9-1.7,1.4-2.4,1.4c-0.7,0-1.6-0.5-2.5-1.6
		c-1-1.1-2-2.5-3.1-4.4c-1.2-1.8-1.9-3-2.3-3.5c0.1,1.7,0.1,3.4,0.1,5.2c0,1.8,0,3.1,0,3.8c0,3.2-0.1,6.1-0.2,8.7
		c-0.3,0.4-0.8,0.6-1.5,0.6c-0.2,0-0.4,0-0.5-0.1L228.6,31.5z"/>
</g>
<g>
	<path fill="#BE257F" d="M123.4,55.4c0-1.1,4-1.7,12-1.7c1.8,0,4.2,0.1,7.1,0.2c2.9,0.2,4.4,0.4,4.5,0.6c0,1-1,1.6-2.9,1.6
		c-0.5,0-1.4-0.1-2.7-0.2c-1.3-0.1-2.3-0.2-3.2-0.2c-0.9,0-1.3,0.2-1.3,0.6c0,5-0.1,12.5-0.4,22.4c-0.5,0.4-1.2,0.5-2.2,0.5
		c0-1,0-2.3,0-3.7l0.2-15.1c0-1.8,0-3.3-0.1-4.6c-0.5,0-1.1-0.1-1.9-0.1s-2,0.1-3.7,0.2c-1.7,0.1-2.8,0.2-3.5,0.2
		C124,56.3,123.4,56,123.4,55.4z"/>
	<path fill="#BE257F" d="M168.4,61.2c0.7,1.5,1.1,3.3,1.1,5.3c0,2-0.4,3.9-1.2,5.6c-0.8,1.8-1.9,3.1-3.2,4.2
		c-2.7,2.1-5.7,3.2-8.9,3.2c-3.3,0-6-1.1-8.3-3.2s-3.5-5-3.5-8.7c0-2.1,0.3-4,1-5.7c0.7-1.7,1.6-3,2.8-4.1c2.4-2.1,5.3-3.2,8.6-3.2
		c3.3,0,6.2,1,8.7,2.9C166.7,58.5,167.7,59.7,168.4,61.2z M146.7,67.7c0,3,0.9,5.4,2.6,7.2c1.7,1.8,4,2.7,6.8,2.7c3.3,0,5.9-1,7.9-3
		c2-2,3-4.6,3-7.7c0-3.1-1-5.6-3-7.4c-2-1.8-4.4-2.8-7.3-2.8c-2.9,0-5.3,0.9-7.2,2.8C147.7,61.4,146.7,64.1,146.7,67.7z"/>
	<path fill="#BE257F" d="M172.9,54.5c0.7-0.5,1.4-0.6,2-0.4c0.3,0.1,0.4,0.4,0.3,0.8c-0.7,4.6-1.1,7.8-1.1,9.5
		c0,1.7,0.1,3.2,0.3,4.5c0.2,1.3,0.5,2.6,1,4c0.5,1.4,1.2,2.5,2.3,3.4c1,0.9,2.3,1.3,3.7,1.3c2.1,0,3.9-1.3,5.4-3.8
		c1.6-2.5,2.3-5.5,2.3-9.1s-0.8-7-2.5-10.4c0.5-0.4,0.9-0.6,1.3-0.6c0.4,0,0.7,0,0.9,0.1c1.9,2.7,2.8,6.2,2.8,10.5
		c0,3.5-0.9,6.9-2.7,10.1c-0.9,1.5-2.1,2.8-3.5,3.7c-1.4,1-3,1.5-4.5,1.5c-1.6,0-2.9-0.3-4-1c-1.1-0.7-1.9-1.5-2.6-2.5
		c-0.6-1-1.1-2.2-1.5-3.6c-0.7-2.3-1-4.9-1-7.7C171.9,60.7,172.2,57.3,172.9,54.5z"/>
	<path fill="#BE257F" d="M197,72l0.1,5.3c0,0.7-0.2,1.2-0.5,1.5c-0.3,0.3-0.6,0.4-0.9,0.4c-0.3,0-0.5,0-0.8-0.1
		c-0.3-2.5-0.5-4.9-0.5-7.3s0.1-5.1,0.2-8.1c0.2-3,0.2-5.4,0.3-7.1c0-1.9,2.5-2.8,7.5-2.8c2.6,0,5.1,0.5,7.5,1.6
		c1.2,0.6,2.2,1.3,3,2.4s1.2,2.1,1.2,3.4c0,1.2-0.3,2.4-0.8,3.4c-0.6,1-1.3,1.8-2.1,2.5c-0.9,0.7-1.9,1.2-3,1.7
		c-1.8,0.8-3.9,1.4-6.2,1.7c1.1,0.6,2.9,2.1,5.5,4.6c0.7,0.7,1.7,1.4,2.8,1.9c1.1,0.6,2.3,0.9,3.5,0.9c0.1,0,0.4,0,0.7-0.1
		c0.4-0.1,0.7-0.1,0.9-0.1c0.3,0,0.5,0,0.7,0.2c0.2,0.1,0.3,0.4,0.3,0.7c0,0.8-1,1.2-3,1.2c-2.3,0-4.6-0.9-6.9-2.7
		c-1-0.7-2-1.5-2.9-2.3c-2.4-2-4.6-3.2-6.6-3.7C197,71.1,197,71.5,197,72z M211.4,61.6c0-2-0.9-3.4-2.6-4.4c-1.8-1-4-1.5-6.7-1.5
		c-1.7,0-3.3,0.2-4.8,0.6c0,1.8-0.1,3.9-0.2,6.1c-0.1,2.3-0.2,3.8-0.2,4.6c0,0.8,0,1.5,0,1.9c3.5-0.3,6.1-0.7,8-1.2
		c2-0.6,3.5-1.3,4.5-2.2C210.8,64.4,211.4,63.1,211.4,61.6z"/>
	<path fill="#BE257F" d="M220.8,54.7c0.2-0.6,0.7-0.8,1.5-0.8c0.2,0,0.4,0,0.6,0.1c0.8,1.8,1.7,4.2,2.7,7.4c1,3.2,2.1,6.1,3.1,8.9
		c1.1,2.8,2.2,5.1,3.6,7c1.3-0.4,2.7-3.3,4.1-8.8c0.6-2.3,1.2-4.5,1.9-6.8c0.6-2.2,1.3-4.1,2.1-5.7c0.8-1.5,1.6-2.3,2.4-2.3
		c0.3,0,0.7,0.1,1.1,0.3c-0.6,0.6-1.2,1.9-1.9,3.9s-1.3,4.2-2,6.6s-1.3,4.7-2.1,7c-0.7,2.3-1.6,4.3-2.6,5.8c-1,1.5-2.1,2.3-3.2,2.3
		c-1.6,0-3.4-2.7-5.5-8c-1.1-2.8-1.9-5-2.5-6.6s-1.2-3.6-1.9-5.9C221.5,56.7,221,55.2,220.8,54.7z"/>
	<path fill="#BE257F" d="M247.9,54.1c-0.2,10.5-0.4,18.8-0.4,24.7c-0.3,0.4-0.7,0.6-0.9,0.6c-0.3,0-0.5-0.1-0.7-0.2
		c-0.5-0.4-0.8-1-0.8-2c0-11.2,0.1-17.8,0.2-19.7c0.1-1.9,0.3-3,0.5-3.3c0.2-0.3,0.5-0.5,0.8-0.5C247,53.8,247.4,53.9,247.9,54.1z"
		/>
	<path fill="#BE257F" d="M254.2,72l0.1,5.3c0,0.7-0.2,1.2-0.5,1.5c-0.3,0.3-0.6,0.4-0.9,0.4c-0.3,0-0.5,0-0.8-0.1
		c-0.3-2.5-0.5-4.9-0.5-7.3s0.1-5.1,0.2-8.1c0.2-3,0.2-5.4,0.3-7.1c0-1.9,2.5-2.8,7.5-2.8c2.6,0,5.1,0.5,7.5,1.6
		c1.2,0.6,2.2,1.3,3,2.4s1.2,2.1,1.2,3.4c0,1.2-0.3,2.4-0.8,3.4c-0.6,1-1.3,1.8-2.1,2.5c-0.9,0.7-1.9,1.2-3,1.7
		c-1.8,0.8-3.9,1.4-6.2,1.7c1.1,0.6,2.9,2.1,5.5,4.6c0.7,0.7,1.7,1.4,2.8,1.9c1.1,0.6,2.3,0.9,3.5,0.9c0.1,0,0.4,0,0.7-0.1
		c0.4-0.1,0.7-0.1,0.9-0.1c0.3,0,0.5,0,0.7,0.2c0.2,0.1,0.3,0.4,0.3,0.7c0,0.8-1,1.2-3,1.2c-2.3,0-4.6-0.9-6.9-2.7
		c-1-0.7-2-1.5-2.9-2.3c-2.4-2-4.6-3.2-6.6-3.7C254.2,71.1,254.2,71.5,254.2,72z M268.6,61.6c0-2-0.9-3.4-2.6-4.4
		c-1.8-1-4-1.5-6.7-1.5c-1.7,0-3.3,0.2-4.8,0.6c0,1.8-0.1,3.9-0.2,6.1c-0.1,2.3-0.2,3.8-0.2,4.6c0,0.8,0,1.5,0,1.9
		c3.5-0.3,6.1-0.7,8-1.2c2-0.6,3.5-1.3,4.5-2.2C268,64.4,268.6,63.1,268.6,61.6z"/>
	<path fill="#BE257F" d="M269.8,55.4c0-1.1,4-1.7,12-1.7c1.8,0,4.2,0.1,7.1,0.2c2.9,0.2,4.4,0.4,4.5,0.6c0,1-1,1.6-2.9,1.6
		c-0.5,0-1.4-0.1-2.7-0.2c-1.3-0.1-2.3-0.2-3.2-0.2c-0.9,0-1.3,0.2-1.3,0.6c0,5-0.1,12.5-0.4,22.4c-0.5,0.4-1.2,0.5-2.2,0.5
		c0-1,0-2.3,0-3.7l0.2-15.1c0-1.8,0-3.3-0.1-4.6c-0.5,0-1.1-0.1-1.9-0.1s-2,0.1-3.7,0.2c-1.7,0.1-2.8,0.2-3.5,0.2
		C270.5,56.3,269.8,56,269.8,55.4z"/>
	<path fill="#BE257F" d="M294.6,54.5c0.7-0.5,1.4-0.6,2-0.4c0.3,0.1,0.4,0.4,0.3,0.8c-0.7,4.6-1.1,7.8-1.1,9.5
		c0,1.7,0.1,3.2,0.3,4.5c0.2,1.3,0.5,2.6,1,4c0.5,1.4,1.2,2.5,2.3,3.4c1,0.9,2.3,1.3,3.7,1.3c2.1,0,3.9-1.3,5.4-3.8
		c1.6-2.5,2.3-5.5,2.3-9.1s-0.8-7-2.5-10.4c0.5-0.4,0.9-0.6,1.3-0.6c0.4,0,0.7,0,0.9,0.1c1.9,2.7,2.8,6.2,2.8,10.5
		c0,3.5-0.9,6.9-2.7,10.1c-0.9,1.5-2.1,2.8-3.5,3.7c-1.4,1-3,1.5-4.5,1.5c-1.6,0-2.9-0.3-4-1c-1.1-0.7-1.9-1.5-2.6-2.5
		c-0.6-1-1.1-2.2-1.5-3.6c-0.7-2.3-1-4.9-1-7.7C293.5,60.7,293.9,57.3,294.6,54.5z"/>
	<path fill="#BE257F" d="M336.3,78.6c-0.4,0.5-0.9,0.8-1.6,0.8c-0.2,0-0.4,0-0.6-0.1c-0.5-1.2-0.9-2.8-1.1-5
		c-0.2-2.1-0.4-3.5-0.5-4.2c-2.5-0.1-5.1-0.1-7.6-0.1c-2.5,0-4.8,0.1-6.8,0.3c-0.2,1-0.4,2.4-0.7,4.3c-0.2,1.9-0.4,3.2-0.5,3.8
		c-0.8,0.7-1.6,0.8-2.3,0.3c0.1-0.6,0.2-1.4,0.3-2.7c0.1-1.2,0.3-2.2,0.4-3.1c0.1-0.9,0.3-1.9,0.5-3.2c0.2-1.3,0.4-2.4,0.6-3.4
		c0.2-0.9,0.5-2,0.8-3.2s0.7-2.2,1.1-3c0.4-0.8,0.8-1.7,1.4-2.6c0.5-0.9,1.1-1.6,1.8-2.1c1.4-1.2,3-1.8,4.7-1.8c1.7,0,3.1,0.7,4.3,2
		s2,3,2.6,5.1c0.6,2.1,1,4.3,1.4,6.4c0.4,2.1,0.7,4.3,1,6.6C335.6,76,336,77.6,336.3,78.6z M329.8,59.1c-0.5-1.1-1-2-1.7-2.7
		c-0.7-0.6-1.6-1-2.6-1s-2,0.5-3,1.5c-1,1-1.7,2.3-2.3,3.7c-1,2.8-1.6,5.3-1.9,7.7c2.3-0.3,4.7-0.4,7-0.4c2.4,0,4.6,0.1,6.8,0.2
		c-0.1-0.4-0.3-1.2-0.5-2.5c-0.3-1.3-0.5-2.5-0.8-3.4C330.6,61.4,330.3,60.3,329.8,59.1z"/>
	<path fill="#BE257F" d="M341.3,54.9l-0.2,15.5c0,2.4,0.1,4.7,0.2,6.8c1.4,0.1,2.7,0.1,3.8,0.1l7.4-0.1c1.1,0,1.7,0.3,1.7,1
		c0,0.8-2.5,1.2-7.4,1.2c-1.2,0-2.7-0.1-4.6-0.2c-1.9-0.1-3-0.3-3.4-0.6c-0.1-2.5-0.2-6.5-0.2-12.1l0.2-12.3
		c0.6-0.5,1.1-0.7,1.5-0.7C341,53.5,341.3,54,341.3,54.9z"/>
</g>
</svg>
