<?xml version="1.0" encoding="utf-8"?>
<!-- Generator: Adobe Illustrator 18.0.0, SVG Export Plug-In . SVG Version: 6.00 Build 0)  -->
<!DOCTYPE svg PUBLIC "-//W3C//DTD SVG 1.1//EN" "http://www.w3.org/Graphics/SVG/1.1/DTD/svg11.dtd">
<svg version="1.1" id="Camada_1" xmlns="http://www.w3.org/2000/svg" xmlns:xlink="http://www.w3.org/1999/xlink" x="0px" y="0px"
	 viewBox="0 0 44 44" enable-background="new 0 0 44 44" xml:space="preserve">
<path fill="#134F53" d="M22,0.2C34,0.2,43.8,10,43.8,22S34,43.8,22,43.8S0.2,34,0.2,22C0.2,10,10,0.2,22,0.2z"/>
<path fill="#E4E4E3" d="M15,26.8l7-7l7.1,7.1l0,0c0.2,0.2,0.6,0.4,0.9,0.4c0.7,0,1.3-0.6,1.3-1.3c0-0.4-0.1-0.7-0.4-0.9l0,0l-8-8
	l0,0c-0.2-0.2-0.6-0.4-1-0.4l0,0l0,0c-0.4,0-0.7,0.1-1,0.4l0,0l-8,8l0,0c-0.2,0.2-0.4,0.6-0.4,0.9c0,0.7,0.6,1.3,1.3,1.3
	C14.4,27.3,14.8,27.1,15,26.8z"/>
</svg>
