<?xml version="1.0" encoding="utf-8"?>
<!-- Generator: Adobe Illustrator 18.0.0, SVG Export Plug-In . SVG Version: 6.00 Build 0)  -->
<!DOCTYPE svg PUBLIC "-//W3C//DTD SVG 1.1//EN" "http://www.w3.org/Graphics/SVG/1.1/DTD/svg11.dtd">
<svg version="1.1" id="Camada_1" xmlns="http://www.w3.org/2000/svg" xmlns:xlink="http://www.w3.org/1999/xlink" x="0px" y="0px"
	 viewBox="0 0 44 44" enable-background="new 0 0 44 44" xml:space="preserve">
<g>
	<g>
		<path fill="#288ACB" d="M14.6,25.8c0.5,0,1,0,1.5,0c0.4,0,0.8,0,1.2,0c0,0,0,0,0-0.1c0.1-0.1,0.2,0,0.3,0c1.4,0.3,2.8,0.5,4.2,0.8
			c0.2,0,0.3,0,0.5,0c1.2-0.3,2.4-0.6,3.5-0.9c0.1,0,0.2-0.1,0.3,0c0,0.1,0.1,0.1,0.2,0.1c0.4,0,0.8,0,1.3,0c1,0,2,0.1,3,0.1
			c1,0,2,0.1,3,0.2c1.2,0.1,2.5,0.2,3.7,0.3c1.2,0.1,2.3,0.2,3.5,0.4c0.9,0.1,1.9,0.3,2.8,0.5c0.2,0.1,0.4,0.1,0.6,0.3c0,0,0,0,0,0
			c-0.1,0.1-0.2,0.1-0.4,0.1c-0.6,0-1.1-0.1-1.7-0.1c-0.6,0-1.1-0.1-1.7-0.2c-0.1,0-0.1,0-0.2,0c0.1,0.1,0.2,0.1,0.3,0.2
			c0.2,0.1,0.2,0.2,0,0.3c0,0-0.1,0-0.1,0c-0.2,0.1-0.2,0.3,0,0.4c0.1,0.1,0.3,0.2,0.5,0.3c0.1,0.1,0.3,0.1,0.4,0.2
			c0.1,0.1,0.1,0.2,0,0.3c-0.1,0-0.2,0-0.3,0c-0.5,0-1.1,0-1.6-0.1c-0.3,0-0.7-0.1-1-0.1c-0.3,0-0.5,0.1-0.7,0.3
			c-0.1,0.1-0.1,0.2,0,0.3c0.1,0.1,0.2,0.2,0.4,0.2c0.1,0,0.2,0.1,0.3,0.1c0.1,0,0.1,0.1,0.1,0.1c0,0.1-0.1,0.1-0.2,0.1
			c-0.1,0-0.3,0-0.4,0c-0.1,0-0.3-0.1-0.4,0C37.1,30,37,30,36.8,30.1c-0.1,0.1-0.2,0.1-0.1,0.3c0.1,0.1,0.2,0.2,0.3,0.3
			c0.4,0.3,0.8,0.5,1.3,0.7c0.7,0.4,1.4,0.7,2.1,1.2c0.1,0.1,0.2,0.1,0.3,0.2c0.1,0.1,0,0.2-0.1,0.2c-0.1,0-0.1,0-0.2,0
			c-1.2-0.2-2.3-0.3-3.5-0.5c-0.2,0-0.3,0-0.4,0.1c-0.2,0.2-0.4,0.4-0.6,0.5c0,0-0.1,0-0.1,0c-0.8-0.2-1.6-0.4-2.5-0.6
			c-1-0.2-2-0.5-3.1-0.8c-1-0.2-2.1-0.5-3.1-0.7c-1.2-0.3-2.3-0.5-3.5-0.7c-1.3-0.2-2.7-0.5-4.1-0.6c-0.7-0.1-1.5-0.2-2.3-0.2
			c-0.8,0-1.6-0.1-2.3-0.1c-1,0-2.1,0-3.1,0.1c-1.2,0.1-2.5,0.1-3.7,0.3c0,0,0,0,0,0c-0.2,0-0.3-0.1-0.5,0c-0.2,0.1-0.5,0.1-0.7,0.1
			c-0.5,0.1-1,0.2-1.6,0.3c-0.2,0-0.3,0.2-0.5,0.2c0,0-0.1,0-0.1-0.1c0-0.1,0.1-0.2,0.2-0.2c0.2-0.1,0.4-0.3,0.6-0.4
			c0.1,0,0.1-0.1,0.2-0.2c-0.2-0.1-0.5-0.2-0.7-0.2c-0.3-0.1-0.3-0.1-0.1-0.3c0.1-0.1,0.2-0.2,0-0.3c-0.1-0.1,0-0.2,0-0.3
			C5,28.1,5,28,4.7,27.9c-0.4-0.2-0.8-0.3-1.1-0.4c-0.2-0.1-0.4,0-0.5,0.1c-0.3,0.1-0.6,0.3-0.9,0.4c-0.4,0.2-0.8,0.2-1.2,0.2
			c-0.1,0-0.3-0.1-0.4-0.2c-0.2-0.2-0.4-0.3-0.5-0.6c0-0.1,0-0.2,0-0.3c0,0,0-0.1,0-0.1c0.9-0.1,1.8-0.1,2.7-0.2
			c1.4-0.1,2.7-0.3,4.1-0.4c1.6-0.1,3.1-0.2,4.7-0.3c0.7,0,1.3-0.1,2-0.1C13.9,25.8,14.3,25.8,14.6,25.8c0.1,0,0.2,0,0.3,0
			C14.8,25.8,14.7,25.8,14.6,25.8z"/>
		<path display="none" fill="#FFFFFF" d="M8,29.7c0.9-0.1,1.7-0.2,2.6-0.2c1.2-0.1,2.5-0.1,3.7-0.2c1.1,0,2.3,0,3.4,0.1
			c1.1,0.1,2.1,0.2,3.2,0.4c1.8,0.3,3.5,0.6,5.3,0.9c2.2,0.5,4.5,1,6.7,1.6c0.9,0.2,1.8,0.5,2.6,0.7c0.1,0,0.2,0,0.2,0.1
			c-11.8,0-23.6,0-35.4,0c-0.2,0-0.2,0-0.2-0.2c0-1.9,0-3.7,0-5.6c0,0,0,0,0,0c0.2,0.3,0.4,0.6,0.8,0.7c0.3,0.1,0.6,0.1,0.8,0
			c0.4-0.1,0.8-0.3,1.1-0.5c0.5-0.3,1-0.1,1.4,0.1c0.2,0.1,0.4,0.2,0.6,0.3C5,28,5.1,28.1,4.9,28.2c0,0-0.1,0.1-0.1,0.2
			c-0.1,0.1-0.1,0.1,0,0.2c0.1,0.1,0.1,0.2,0,0.3c-0.1,0.1-0.2,0.1-0.3,0.2c0.4,0.1,0.7,0.2,1.1,0.3c-0.3,0.3-0.8,0.5-1.1,0.8
			c0,0,0,0-0.1,0.1c0,0,0.1,0,0.1,0c0.9-0.4,1.8-0.4,2.7-0.6c0,0,0.1,0,0.1,0C7.7,29.6,7.8,29.7,8,29.7z"/>
		<path fill="#FFFFFF" d="M35.8,33.1c0.2-0.2,0.4-0.4,0.7-0.6c0.1-0.1,0.1-0.1,0.2-0.1c1.2,0.2,2.4,0.3,3.6,0.5c0,0,0.1,0,0.1,0
			c0.1,0,0.1,0,0.2,0c0-0.1-0.1-0.1-0.1-0.1c-0.3-0.3-0.7-0.5-1.1-0.7c-0.6-0.4-1.3-0.7-1.9-1c-0.3-0.2-0.6-0.3-0.9-0.6
			c-0.1-0.2-0.1-0.3,0.1-0.4c0.1,0,0.3,0,0.4-0.1c0.1,0,0.3,0,0.4,0c0.1,0,0.3,0,0.4,0c0,0,0.1,0,0.1-0.1c0-0.1-0.1-0.1-0.1-0.1
			c-0.2-0.1-0.3-0.1-0.5-0.2c-0.1-0.1-0.3-0.2-0.3-0.3c0-0.2,0.1-0.3,0.3-0.4c0.3-0.2,0.6-0.2,0.9-0.2c0.5,0.1,1,0.1,1.4,0.1
			c0.3,0,0.6,0,0.9,0c0.1,0,0.3,0,0.3-0.1c0-0.1-0.2-0.1-0.3-0.2c-0.2-0.1-0.5-0.2-0.7-0.4c-0.3-0.3-0.3-0.5,0.1-0.6
			c0,0,0.1,0,0.1-0.1c-0.2-0.1-0.4-0.2-0.6-0.3c0,0,0,0,0,0c0.3,0,0.7,0.1,1,0.1c0.6,0.1,1.2,0.1,1.9,0.2c0.2,0,0.4,0.1,0.6,0
			c0.2,0,0.5,0,0.7,0c0,1.9,0,3.7,0,5.6c0,0.1,0,0.2-0.2,0.2C41.2,33.1,38.5,33.1,35.8,33.1z"/>
		<path fill="#50ADE2" d="M0.1,27.3C0.1,27.3,0.1,27.3,0.1,27.3c0-0.1,0-0.2,0-0.4C0.1,27.1,0.1,27.2,0.1,27.3z"/>
		<path fill="#201B18" d="M26.1,25.5c-1.3,0.3-2.6,0.6-3.9,0.9c-0.2,0-0.4,0.1-0.5,0c-1.5-0.3-3-0.6-4.4-0.8c-0.5-0.1-1-0.2-1.5-0.3
			c-0.3-0.1-0.3-0.1-0.3-0.4c0,0,0-0.1,0-0.1c0-0.3,0-0.6,0-0.9c-0.1-0.1-0.2-0.1-0.3-0.1c-0.9-0.2-1.8-0.4-2.7-0.5
			c-0.1,0-0.2,0-0.3,0.1c-0.7,0.5-1.5,1-2.2,1.5C9.8,25,9.7,25.1,9.6,25c-1.9-0.4-3.8-0.8-5.7-1.1c-0.2,0-0.2-0.1-0.2-0.3
			c0-2.4,0-4.8-0.1-7.3c0-0.2,0-0.2,0.2-0.2c0.7-0.2,1.3-0.4,2-0.5c0.4-0.1,0.7-0.2,1.1-0.3c0.1,0,0.2,0,0.2,0.1
			c0,0.2,0.1,0.3,0.1,0.5c-0.1,0.1-0.2,0.1-0.3,0.1c-0.7,0.2-1.5,0.3-2.2,0.5c-0.1,0-0.1,0-0.2,0.1c0.4,0,0.7,0.1,1,0.2
			c0.9,0.2,1.8,0.3,2.6,0.5c0.2,0,0.4,0.1,0.5,0.1h0c0,0,0.1,0,0.2,0c0.1,0,0.1,0,0.2,0c0,0,0,0,0.1,0c0,0,0.1,0,0.1,0
			c0,0,0,0,0.1,0c0.1,0,0.2,0.1,0.3,0c0,0,0,0,0,0c0,0,0.1,0,0.1,0c0.1,0,0.3,0,0.3,0.2c0,0.1,0,0.2,0,0.3c0,1.4,0,2.7,0,4.1
			c0,0.4,0.1,0.5,0.5,0.6c0.4,0.1,0.8,0.1,1.2,0.2c0.1,0,0.2,0,0.3,0c0.3,0.1,0.6,0.1,0.9,0.2c0.1,0,0.2,0,0.3,0.1
			c0.1,0,0.1,0,0.2,0c0,0,0,0,0.1,0c0.1,0,0.2,0,0.2,0c0.4,0.1,0.8,0.2,1.2,0.2c0.4,0.1,0.5,0,0.5-0.4c0-1.7,0-3.4,0-5.1
			c0-0.1,0-0.2,0-0.4c0,0,0,0,0.1-0.1c0.1,0,0.2,0,0.3,0c0.7,0,1.3,0,2,0c0.1,0,0.2,0,0.3,0.1c0,0.1-0.1,0.1-0.2,0.2
			c-0.2,0.1-0.5,0.1-0.7,0.2c-0.1,0-0.1,0-0.2,0.1c0,0.1,0.1,0,0.1,0.1c1.4,0.3,2.9,0.6,4.3,0.9c0.3,0.1,0.5,0.1,0.8,0
			c1-0.2,2-0.4,2.9-0.5c0,0,0,0,0,0c-0.1,0-0.1,0-0.2-0.1c-0.8-0.2-1.7-0.3-2.5-0.5c-0.1,0-0.2,0-0.3-0.2c0.1-0.1,0.2-0.1,0.3-0.1
			c1.2,0,2.5,0,3.7,0c0.1,0,0.2,0,0.3,0c0,0,0,0,0,0.1c-0.1,1.4,0,2.9,0,4.3c0,0.5,0,1.1,0,1.6c0,0.3,0.1,0.4,0.4,0.3
			c1-0.2,2-0.4,3-0.6c0.4-0.1,0.5-0.2,0.5-0.6c0-1.1,0-2.2,0-3.2c0-0.6,0-1.3,0-1.9c0-0.1,0-0.2,0.1-0.3c0.1,0,0.2-0.1,0.3-0.1
			c0.1,0.1,0.1,0.3,0.1,0.5c0,0.3,0,0.3,0.3,0.3c1-0.2,2-0.4,3-0.6c0,0,0,0,0,0c-0.1-0.1-0.1-0.1-0.2-0.1c-0.5-0.1-1.1-0.2-1.6-0.3
			c-0.1,0-0.2,0-0.3-0.1c0-0.1,0.1-0.1,0.1-0.1c0.4-0.1,0.9-0.3,1.3-0.4c0.4,0,0.8,0.2,1.2,0.2c0.2,0,0.3,0.1,0.5,0.1
			c0.1,0,0.3,0.1,0.4,0c0.6-0.2,1.3-0.2,2-0.4c0.4-0.1,0.8-0.1,1.1-0.2c0-0.1,0-0.1-0.1-0.1c-0.7-0.1-1.4-0.3-2.1-0.4
			c-0.1,0-0.2,0-0.3-0.1c0-0.2,0.2-0.1,0.3-0.2c0,0,0.1,0,0.1,0c0.2,0,0.4-0.1,0.6-0.1c0.1,0,0.2,0,0.2,0c0.4,0.1,0.8,0.2,1.2,0.3
			c0.3,0.1,0.6,0.1,0.8,0.2c0.1,0,0.2,0.1,0.2,0.2c0,0.3,0,0.6,0,0.9c-0.1,0.1,0,0.3,0,0.4c0,1,0,2.1,0,3.1c0,0,0,0.1,0,0.1
			c0-0.1,0-0.3,0-0.4c0,0.5,0,1.1,0,1.6c0,0.5,0,1.1,0,1.6c-0.3,0.1-0.7,0.2-1,0.3c-1.1,0.2-2.1,0.5-3.2,0.7c-0.1,0-0.2,0.1-0.2,0.2
			c0,0.4-0.2,0.5-0.6,0.5c-1.4,0.2-2.7,0.4-4.1,0.7c-0.1,0-0.2,0-0.3-0.1c-0.6-0.4-1.2-0.9-1.8-1.3c-0.1-0.1-0.1-0.1-0.2-0.1
			C28,24,27.5,24.2,27,24.3c-0.1,0-0.2,0.1-0.2,0.2c0,0.3,0,0.5,0,0.8c0,0.1,0,0.2-0.1,0.2C26.5,25.4,26.3,25.4,26.1,25.5z"/>
		<path fill="#288ACB" d="M30.4,12.7c0.5,0,0.8,0.3,1,0.7c0.4,0.7,0.3,1.5-0.2,2.1c-0.2,0.2-0.5,0.4-0.8,0.4c-6.4,0-12.7,0-19.1,0
			c-0.2,0-0.3,0-0.2-0.2c0.3-0.9,0.3-1.8,0.1-2.7c0-0.1,0-0.1,0-0.2c0.1-0.1,0.2,0,0.2,0C17.7,12.7,24.1,12.7,30.4,12.7z"/>
		<path fill="#79C1EC" d="M28.8,11.1c0.7,0.1,1.4,0.2,2.1,0.6c0,0,0,0,0,0c0.1,0.1,0.3,0.2,0.2,0.4c-0.1,0.2-0.3,0.2-0.4,0.2
			c0,0-0.1,0-0.1,0c-0.1,0-0.2,0-0.3,0c-6.3,0-12.5,0-18.8,0c-0.1,0-0.2,0-0.2,0c0,0,0.1,0,0.2,0c6.3,0,12.5,0,18.8,0
			c0.1,0,0.2,0,0.3,0c-0.1,0.1-0.2,0-0.2,0c-6.4,0-12.8,0-19.1,0c-0.2,0-0.3,0-0.3-0.2c-0.2-0.4-0.5-0.7-0.8-1
			c0-0.1,0.1-0.1,0.2-0.1c0.1,0,0.2,0,0.2,0c5.9,0,11.9,0,17.8,0C28.5,11.1,28.7,11.1,28.8,11.1z"/>
		<path fill="#2E2868" d="M10.2,17.5c-0.1-0.1-0.2,0-0.3-0.1c0.5-0.2,0.8-0.5,1-1c0-0.1,0.1-0.1,0.1-0.2c0.1-0.1,0.2,0,0.4,0
			c6.3,0,12.7,0,19,0c0.1,0,0.2,0,0.3,0c0.1,0,0.1,0,0.2,0c0.2,0.1,0.2,0.2,0.1,0.4c-0.2,0.2-0.4,0.3-0.6,0.4c-0.1,0-0.2,0-0.2,0.1
			c-0.1,0.1-0.2,0.1-0.3,0.1c-0.1,0-0.2,0.1-0.3,0c-0.5,0.1-1,0.2-1.5,0.1c-0.4,0-0.9,0-1.3,0c-1.4-0.1-2.8,0-4.2,0
			c-1.3,0-2.6,0-3.9,0c-0.1,0-0.2,0-0.4,0c-0.9-0.1-1.8,0-2.7,0c0,0-0.1,0-0.1,0l0,0c0,0-0.1,0-0.1,0c-0.4,0-0.8,0-1.2,0
			c-0.1-0.1-0.2-0.1-0.4-0.1c-0.9,0-1.7,0-2.6,0c-0.1,0-0.2,0-0.3,0.1C10.8,17.5,10.5,17.5,10.2,17.5z"/>
		<path fill="#C3C3C1" d="M7.2,14.2c0-0.9,0.2-1.6,0.6-2.3c0.3-0.4,0.7-0.8,1.2-0.8c0.3,0,0.6,0.1,0.9,0.4c0.5,0.5,0.8,1.1,0.9,1.8
			c0.1,0.5,0.1,1.1,0,1.6c-0.1,0.8-0.4,1.4-1.1,1.9c-0.4,0.3-1.1,0.3-1.5-0.1c-0.5-0.4-0.8-1-0.9-1.6C7.2,14.9,7.2,14.5,7.2,14.2z"
			/>
		<path fill="#029341" d="M29.7,17.3c0.1,0,0.2,0,0.2,0c0.1,0,0.2,0,0.3,0c0.1,0,0.2,0,0.4-0.1c0,1.7,0,3.5,0,5.2c0,0.1,0,0.2,0,0.4
			c0,0.3-0.1,0.4-0.4,0.5c-1.1,0.2-2.1,0.4-3.2,0.6c-0.4,0.1-0.5,0-0.5-0.4c0-1.8,0-3.6,0-5.5c0-0.2,0-0.3,0.1-0.5
			c0.3-0.1,0.5,0,0.8,0c0.1,0,0.1,0.1,0,0.1c-0.1,0.1-0.1,0.2-0.2,0.2C27,17.9,27,18.1,27,18.4c0,1.3,0,2.5,0,3.8c0,0.3,0,0.5,0,0.8
			c0,0.1,0,0.2,0.1,0.3c0.1,0.1,0.2,0.2,0.3,0.2c0.6-0.1,1.3-0.3,1.9-0.4c0.1,0,0.3-0.1,0.3-0.2c0-0.1,0.1-0.1,0.1-0.1
			c0.2-0.1,0.2-0.3,0.2-0.5c0-0.3-0.2-0.4-0.4-0.4c-0.3,0.1-0.5,0.1-0.8,0.2c-0.1,0-0.3,0.1-0.4,0c-0.1,0-0.2,0-0.2-0.2
			c0-1.3,0-2.6,0-3.9c0,0,0,0,0-0.1c0,0.1,0,0.1,0,0.2c0,1.2,0,2.4,0,3.6c0,0.1,0.1,0.2-0.1,0.2C28,21.8,28,21.7,28,21.6
			c0-1,0-2,0-3c0-0.4,0-0.8-0.2-1.1c0-0.1,0.1,0,0.2,0C28.6,17.4,29.1,17.4,29.7,17.3z"/>
		<path fill="#F9E0A8" d="M33.6,16.2c-0.5,0.2-1,0.3-1.4,0.5c0,0.1-0.1,0.1-0.2,0.1c-0.2,0.1-0.5,0.2-0.7,0.2c-0.1,0-0.2,0.1-0.3,0
			c0.5-0.2,0.6-0.6,0.4-1.1c-0.1-0.1,0-0.2,0.1-0.3c0.2-0.2,0.3-0.5,0.4-0.7c0.3-0.8,0.1-1.5-0.4-2.1c-0.1-0.1-0.2-0.2-0.3-0.3
			c0.2-0.1,0.3-0.3,0.3-0.6c0-0.2,0.1-0.1,0.2-0.1c0.4,0.2,0.7,0.3,1.1,0.5c1,0.5,2,0.9,3,1.4c0,0,0.1,0,0.1,0.1
			c0,0.1-0.1,0.1-0.2,0.1c-0.3,0.1-0.7,0.1-1,0.2c0.2,0.1,0.3,0.3,0.5,0.4c0.2,0.1,0.2,0.2,0,0.3c-0.1,0-0.2,0.1-0.3,0.1
			c0.5,0,1,0.1,1.6,0.1c0.1,0,0.3,0,0.4,0.1c-0.1,0.1-0.2,0.1-0.3,0.1c-0.1,0.1-0.1,0.1-0.2,0.1c-0.7,0.2-1.5,0.5-2.2,0.8
			C33.9,16.2,33.8,16.2,33.6,16.2z"/>
		<path fill="#029341" d="M8.9,17.4c-0.5,0-0.9-0.1-1.3-0.2c-1-0.2-1.9-0.4-2.9-0.5c-0.1,0-0.2,0-0.2-0.1c0-0.1,0.1-0.1,0.1-0.1
			c0.9-0.2,1.8-0.4,2.6-0.6c0.2,0.4,0.4,0.8,0.8,1.1c0.2,0.2,0.4,0.3,0.7,0.4C8.8,17.3,8.8,17.3,8.9,17.4z"/>
		<path fill="#82BB30" d="M31,17c0.2,0,0.4-0.1,0.6-0.1c0.2-0.1,0.4-0.1,0.6-0.2c0.4,0.1,0.9,0.2,1.4,0.3c0.3,0.1,0.5,0.1,0.8,0.2
			c0,0,0.1,0,0.1,0.1c0,0.1-0.1,0-0.1,0c-1,0.2-2.1,0.4-3.1,0.6c0,0,0,0-0.1,0c-0.3,0-0.3,0-0.3-0.3C30.9,17.4,30.9,17.2,31,17
			C30.9,17,31,17,31,17z"/>
		<path fill="#1478BE" d="M37.7,15c-0.3,0-0.6,0.1-0.9,0.1c-0.6-0.1-1.3-0.1-1.9-0.2c0.1-0.1,0.2-0.1,0.3-0.2c0.1-0.1,0.1-0.1,0-0.2
			c-0.1-0.1-0.3-0.2-0.4-0.3c0,0-0.1-0.1-0.1-0.1c0-0.1,0.1-0.1,0.1-0.1c0.1,0,0.3-0.1,0.4-0.1c0.1,0,0.1,0,0.1,0
			c0,0.1-0.1,0.1-0.1,0.1c0.5,0.1,1,0.1,1.5,0.2c0.2,0,0.5,0,0.7,0.1c0.1,0,0.2,0,0.4,0c0,0,0.1,0,0-0.1c0,0,0,0,0-0.1
			c0.2-0.1,0.4,0,0.4,0.1c0,0,0,0.1,0,0.1c-0.1,0.3-0.2,0.5-0.5,0.5C37.8,14.9,37.7,14.9,37.7,15z"/>
		<path fill="#2C2661" d="M30.8,16.2c-0.1,0.1-0.2,0.1-0.3,0.1c-6.4,0-12.8,0-19.1,0c-0.1,0-0.2,0-0.3,0c0-0.1,0.2-0.1,0.2-0.1
			c3.8,0,7.5,0,11.3,0c2.7,0,5.4,0,8,0C30.6,16.2,30.7,16.2,30.8,16.2z"/>
		<path fill="#2883C6" d="M30.4,12.7c-0.1,0.1-0.2,0-0.3,0c-6.3,0-12.7,0-19,0c0,0,0-0.1,0-0.1c0.1,0,0.1,0,0.2,0
			c6.3,0,12.5,0,18.8,0C30.3,12.7,30.4,12.6,30.4,12.7z"/>
		<path fill="#76BDEA" d="M28.8,11.1c-0.1,0.1-0.2,0-0.3,0c-6,0-12,0-18.1,0c-0.1,0-0.2,0-0.3,0c0,0-0.1-0.1,0-0.1
			c0.1,0,0.1,0,0.2,0c6.1,0,12.1,0,18.2,0C28.6,11.1,28.7,11,28.8,11.1z"/>
		<path fill="#1A78BC" d="M38.4,14.3c-0.1-0.2-0.3-0.2-0.4-0.1c-0.1,0.1-0.2,0-0.2,0c-0.5-0.1-1.1-0.1-1.6-0.2c-0.2,0-0.4,0-0.6,0
			c-0.1,0-0.2,0.1-0.3,0c-0.1-0.1,0.1-0.1,0.1-0.1c-0.2,0-0.4,0.1-0.7,0.2c0.2,0.1,0.3,0.2,0.4,0.3c0.1,0.1,0.2,0.1,0.2,0.2
			c0,0.1-0.1,0.1-0.2,0.1c0,0-0.1,0-0.1,0.1c0.6,0.1,1.1,0.1,1.7,0.1c0.1,0,0.1,0,0.2,0.1c0,0,0,0,0,0C36,15,35.3,15,34.6,14.9
			c0,0,0,0,0,0c0.2-0.1,0.4-0.2,0.6-0.2c-0.3-0.2-0.5-0.4-0.8-0.6c0.5-0.1,0.9-0.2,1.4-0.3c0.7,0.1,1.4,0.2,2.1,0.3
			c0.1,0,0.2,0,0.3,0C38.4,14.1,38.5,14.2,38.4,14.3z"/>
		<path fill="#191615" d="M39.9,19.8c0,0.2,0,0.4,0,0.6c-0.1-0.1,0-0.2,0-0.3c0-1,0-2,0-3.1c0-0.1,0-0.2,0-0.3c0-0.1,0-0.1,0.1-0.1
			C39.9,17.6,39.9,18.7,39.9,19.8z"/>
		<path fill="#15110F" d="M39.9,23c-0.1-0.1,0-0.2,0-0.3c0-0.4,0-0.8,0-1.2c0-0.1,0-0.1,0-0.2C39.9,21.9,39.9,22.5,39.9,23z"/>
		<path fill="#2A84C6" d="M14.6,25.8c0.1,0,0.3,0,0.4,0c0,0,0,0,0,0.1c-0.5,0-1.1,0-1.6,0C13.8,25.8,14.2,25.8,14.6,25.8z"/>
		<path fill="#019642" d="M9.4,17.5C9.4,17.5,9.4,17.5,9.4,17.5c0-0.1,0.2,0,0.2-0.1c-0.1,0-0.3,0-0.4,0l0,0c-0.1-0.1-0.2,0-0.2,0
			c-0.1,0-0.1,0-0.2-0.1c0.3,0,0.6,0,0.9,0c0,0,0,0,0,0c0,0.1-0.1,0.1-0.1,0.1C9.6,17.5,9.5,17.5,9.4,17.5z"/>
		<path fill="#2883C5" d="M17.3,25.7C17.3,25.7,17.3,25.8,17.3,25.7c-0.4,0-0.8,0.1-1.2,0C16.5,25.7,16.9,25.7,17.3,25.7z"/>
		<path fill="#140F0E" d="M15.5,24c0.1,0.3,0.1,0.6,0,0.9C15.5,24.6,15.5,24.3,15.5,24z"/>
		<path fill="#C5C3D8" d="M30.3,17.2c-0.1,0.1-0.2,0-0.3,0C30,17.2,30.1,17.2,30.3,17.2C30.2,17.2,30.2,17.2,30.3,17.2z"/>
		<path fill="#FAFCFE" d="M32.8,27.7c0-0.1,0-0.2-0.1-0.2c-0.1,0-0.2,0.1-0.2,0.2c0,0.2,0,0.5,0,0.7c0,0.1,0,0.2-0.1,0.2
			c-0.1,0-0.1-0.1-0.1-0.2c0-0.3,0-0.6,0-1c0-0.1,0-0.2,0.2-0.1c0,0,0.1,0,0.1,0c0,0,0,0,0,0c0.2-0.1,0.3,0,0.4,0.1
			c0.1,0,0.2-0.2,0.4-0.1c0.1,0.1,0.2,0.2,0.2,0.3c0,0.3,0,0.6,0,0.9c0,0.1,0,0.1-0.1,0.1s-0.1-0.1-0.1-0.1c0-0.2,0-0.5,0-0.7
			c0-0.1,0-0.2-0.1-0.2c-0.1,0-0.2,0.1-0.2,0.2c0,0.2,0,0.5,0,0.7c0,0.2,0,0.2-0.2,0.2C32.8,28.3,32.8,28,32.8,27.7z"/>
		<path fill="#FBFDFE" d="M22.3,27.1c-0.1,0.1,0,0.2,0,0.4c0,0.1,0.1,0.1,0.1,0.1c0.1,0,0.2,0,0.3,0c0.1,0,0.2,0,0.2,0.1
			s-0.1,0.1-0.2,0.1c-0.1,0-0.1,0-0.2,0c-0.1,0-0.3-0.1-0.3,0c0,0.1,0,0.3,0,0.4c0,0.1,0.1,0.1,0.1,0.1c0.2,0,0.4,0,0.6,0
			c0.1,0.1,0.1,0.1,0,0.2c-0.3,0-0.5,0-0.8,0c-0.1,0-0.1,0-0.1-0.1c0-0.5,0-1,0-1.5c0-0.1,0-0.2,0.1-0.1c0.2,0,0.4,0,0.6,0
			c0.1,0,0.1,0,0.1,0.1c0,0.1-0.1,0.1-0.1,0.1C22.6,27.1,22.4,27,22.3,27.1L22.3,27.1z"/>
		<path fill="#FAFCFE" d="M7.6,27.1c0,0.4,0,0.4,0.4,0.4c0.1,0,0.1,0,0.2,0c0.1,0,0.1,0.1,0.1,0.1c0,0.1,0,0.1-0.1,0.1
			c-0.1,0-0.2,0-0.2,0c-0.3,0-0.3,0-0.3,0.3c0,0.2,0,0.3,0.3,0.3c0.1,0,0.2,0,0.3,0c0.1,0,0.1,0,0.1,0.1c0,0.1,0,0.1-0.1,0.1
			c-0.2,0-0.5,0-0.7,0c-0.1,0-0.1-0.1-0.1-0.1c0-0.5,0-1,0-1.5c0-0.1,0-0.1,0.1-0.1c0.2,0,0.4,0,0.6,0c0.1,0,0.1,0,0.1,0.1
			C8.2,27,8.2,27,8.1,27C7.9,27.1,7.7,27,7.6,27.1C7.6,27.1,7.6,27.1,7.6,27.1z"/>
		<path fill="#FCFEFE" d="M9.2,28.5c-0.1,0-0.3,0-0.4,0c-0.1,0.1-0.3,0-0.4-0.2c-0.2-0.3-0.2-0.7,0-1c0.1-0.2,0.3-0.2,0.5-0.1
			c0-0.1,0-0.2,0-0.4c0-0.1,0.1-0.2,0.2-0.2c0,0,0,0.1,0,0.1c0,0.5,0,1,0,1.4C9.2,28.5,9.2,28.5,9.2,28.5z"/>
		<path fill="#FCFEFE" d="M30.9,27.3C31,27.4,31,27.3,30.9,27.3C31,27.1,31,27,31,26.9c0-0.1,0-0.1,0.1-0.1s0.1,0,0.1,0.1
			c0,0.5,0,1,0,1.6c0,0,0,0.1-0.1,0.1c-0.2,0-0.3,0.1-0.5,0.1c0,0-0.1,0-0.1,0c-0.2-0.1-0.3-0.5-0.2-0.7c0-0.1,0-0.2,0-0.2
			C30.5,27.3,30.6,27.2,30.9,27.3C30.9,27.3,30.9,27.3,30.9,27.3z"/>
		<path fill="#FDFEFF" d="M32.2,28.6c-0.1,0-0.2,0-0.2,0c0-0.1-0.1,0-0.1,0c-0.2,0.1-0.4,0.1-0.5-0.1c-0.1-0.3,0-0.5,0.2-0.6
			c0.1,0,0.1,0,0.2,0c0.1,0,0.1-0.1,0.1-0.1c0-0.1,0-0.1-0.1-0.2c-0.1,0-0.2,0-0.2,0.1c0,0.1-0.1,0.2-0.2,0.1c-0.1-0.1,0-0.2,0-0.2
			c0.1-0.2,0.2-0.2,0.4-0.2c0.2,0,0.3,0.2,0.3,0.3c0,0.2,0,0.4,0,0.7c0,0.1,0,0.2,0.1,0.2C32.2,28.5,32.2,28.5,32.2,28.6z"/>
		<path fill="#FDFEFE" d="M36,27.5c0.1-0.2,0.2-0.3,0.4-0.2c0.2,0,0.2,0.2,0.3,0.3c0.1,0.1,0,0.2,0,0.4c0,0.2,0,0.4,0.1,0.5
			c0,0,0,0.1,0,0.1c-0.1,0-0.2,0-0.2,0c0-0.1-0.1,0-0.1,0c-0.2,0.1-0.3,0.1-0.4,0c-0.2-0.3-0.1-0.6,0.2-0.7c0.1,0,0.1,0,0.2-0.1
			c0,0,0.1-0.1,0-0.1c0-0.1-0.1-0.1-0.1,0c0,0-0.1,0.1-0.1,0.1c-0.1,0.1-0.2,0.1-0.2,0C35.9,27.6,36,27.5,36,27.5z"/>
		<path fill="#FDFEFF" d="M33.9,28.2c0,0.1,0.1,0.2,0.2,0.2c0.1,0,0.2-0.1,0.2-0.2c0.1-0.1,0.1-0.1,0.2,0c-0.1,0.2-0.1,0.4-0.4,0.4
			c-0.2,0-0.4-0.1-0.4-0.4c0-0.2-0.1-0.5,0.1-0.7c0.1-0.2,0.2-0.3,0.4-0.3c0.2,0,0.3,0.1,0.4,0.3c0,0,0,0,0,0.1c0.1,0.1,0,0.3,0,0.4
			v0c-0.2,0-0.3,0-0.5,0c0,0,0,0,0,0C33.9,28.1,33.9,28.2,33.9,28.2z"/>
		<path fill="#FDFEFE" d="M11.2,27.5c0.1-0.2,0.2-0.3,0.4-0.2c0.2,0,0.3,0.2,0.3,0.3c0,0.3,0,0.5,0,0.8c0.1,0.1,0.2,0.1,0.1,0.2
			c-0.1,0.1-0.1,0-0.2,0c0,0,0-0.1-0.1-0.1c-0.4,0.1-0.4,0.1-0.5-0.3c0,0,0,0,0-0.1c0-0.3,0.1-0.4,0.3-0.4c0,0,0.1,0,0.1,0
			c0.1,0,0.1,0,0.1-0.1c0,0,0-0.1,0-0.1c-0.1,0-0.1,0-0.2,0.1c-0.1,0.1-0.1,0.1-0.2,0.1C11.1,27.6,11.1,27.5,11.2,27.5z"/>
		<path fill="#FDFEFE" d="M20.6,27.9c0-0.2,0-0.3,0.1-0.5c0.1-0.1,0.2-0.2,0.3-0.2c0.2,0,0.3,0.1,0.3,0.2s0.1,0.3,0.1,0.5
			c0,0.1,0,0.1-0.1,0.1c-0.1,0-0.2,0-0.3,0c-0.1,0-0.2,0-0.2,0.1c0,0.1,0,0.2,0.1,0.3c0.1,0.1,0.1,0,0.2,0c0,0,0.1-0.1,0.1-0.1
			c0-0.1,0.1-0.1,0.2-0.1c0.1,0,0,0.1,0,0.2c0,0.2-0.1,0.3-0.3,0.3c-0.2,0-0.3-0.1-0.4-0.3C20.6,28.2,20.6,28.1,20.6,27.9z"/>
		<path fill="#FDFEFF" d="M13.6,28.6c0-0.1-0.1-0.1-0.2,0c-0.2,0.1-0.4,0.1-0.5-0.1c-0.1-0.2,0-0.5,0.2-0.6c0.1,0,0.1,0,0.2,0
			c0.1,0,0.1,0,0.1-0.1c0-0.1,0-0.2-0.1-0.2s-0.2,0-0.2,0.1c0,0.1-0.1,0.2-0.2,0.1c-0.1-0.1,0-0.2,0-0.2c0.1-0.1,0.2-0.2,0.4-0.2
			c0.2,0,0.3,0.1,0.3,0.3c0.1,0.2,0,0.4,0,0.5c0,0.1,0,0.2,0.1,0.3C13.9,28.6,13.8,28.6,13.6,28.6z"/>
		<path fill="#FAFDFE" d="M27.6,26.9c0.3-0.1,0.5,0,0.8,0c0.1,0,0.1,0.1,0.1,0.1c0,0.1,0,0.1-0.1,0.1c-0.1,0-0.2,0-0.4,0
			c-0.2,0-0.2,0.1-0.2,0.2c0,0.1,0,0.2,0.2,0.2c0.1,0,0.2,0,0.3,0c0.1,0,0.1,0,0.1,0.1c0,0.1,0,0.1-0.1,0.2c-0.1,0-0.3-0.1-0.4,0.1
			c-0.1,0.1,0,0.3,0,0.4c0,0.2,0,0.3-0.2,0.2c-0.1-0.1,0-0.2,0-0.3c0-0.4,0-0.8,0-1.2C27.6,27,27.5,26.9,27.6,26.9z"/>
		<path fill="#FEFEFF" d="M17.8,27.9c0,0.2-0.1,0.4,0.1,0.6c0,0,0,0.1,0,0.1c-0.1,0.1-0.1,0.1-0.2,0c-0.1,0-0.1-0.1-0.2,0
			c-0.2,0.1-0.4,0.1-0.5-0.1c-0.1-0.3,0-0.5,0.2-0.6c0.1,0,0.1,0,0.2,0c0.1,0,0.2,0,0.1-0.1c0-0.1,0-0.1-0.1-0.2
			c-0.1,0-0.2,0-0.2,0.1c0,0,0,0.1,0,0.1c0,0-0.1,0-0.1,0c-0.1,0-0.1-0.1-0.1-0.1c0-0.2,0.1-0.3,0.3-0.3c0.2,0,0.4,0.1,0.4,0.3
			C17.8,27.6,17.8,27.8,17.8,27.9z"/>
		<path fill="#FDFEFF" d="M12.1,28.4c0-0.1,0-0.1,0-0.2c0-0.2,0-0.3,0-0.5c0-0.2,0.1-0.3,0.2-0.4c0.1-0.1,0.3-0.1,0.4,0
			c0.1,0.1,0.2,0.2,0.2,0.4c0,0.1,0,0.1-0.1,0.1c-0.1,0-0.1,0-0.1-0.1c0-0.1-0.1-0.2-0.2-0.2c-0.1,0-0.2,0.1-0.2,0.3
			c0,0.2,0,0.3,0,0.5c0,0.1,0.1,0.2,0.2,0.2c0.1,0,0.2-0.1,0.2-0.2c0-0.1,0.1-0.1,0.2-0.1c0.1,0,0,0.1,0,0.2c0,0.2-0.1,0.2-0.3,0.4
			c0,0.1,0.1,0,0.2,0.1c0,0.1,0.1,0.2-0.1,0.3c-0.1,0.1-0.2,0.1-0.3,0c0,0,0-0.1,0-0.1c0-0.1,0.1,0,0.1,0c0.1,0,0.1,0,0.2,0
			c0-0.1-0.1-0.1-0.1-0.1C12.4,28.6,12.2,28.5,12.1,28.4L12.1,28.4z"/>
		<path fill="#FDFEFE" d="M13.8,27.7c0-0.3,0.2-0.4,0.4-0.4c0.2,0,0.4,0.1,0.4,0.4c0.1,0.2,0,0.4,0,0.6c0,0.2-0.1,0.3-0.3,0.3
			c-0.2,0-0.3,0-0.4-0.1c0,0-0.1-0.1-0.1-0.1l0,0c0-0.1,0-0.1,0-0.2C13.8,28,13.8,27.8,13.8,27.7z"/>
		<path fill="#FDFEFE" d="M26.1,27.7c0.1-0.1,0.1-0.2,0.1-0.3c0.2-0.2,0.6-0.2,0.7,0.1c0.1,0.3,0.1,0.5,0,0.8
			c-0.1,0.2-0.2,0.3-0.4,0.3c-0.2,0-0.3-0.2-0.4-0.3c0,0,0-0.1,0-0.1C26.1,28,26.1,27.8,26.1,27.7z"/>
		<path fill="#2B8BCB" d="M11.2,27.5c0,0.1-0.1,0.2,0,0.2c0.1,0,0.1-0.1,0.2-0.1c0.1-0.1,0.1-0.1,0.2-0.1c0.1,0,0.1,0.1,0.1,0.2
			c0,0.1-0.1,0.1-0.1,0.1c-0.3,0-0.4,0.2-0.5,0.4h0c-0.1,0-0.2,0-0.2,0.1c-0.2,0.2-0.3,0.2-0.4-0.1c-0.1-0.2-0.1-0.4,0-0.7
			c0.1-0.2,0.3-0.2,0.4,0c0.1,0.1,0.1,0.1,0.2,0.1C11.2,27.7,11.1,27.5,11.2,27.5C11.2,27.5,11.2,27.5,11.2,27.5z"/>
		<path fill="#F8FBFD" d="M10.1,28.5c-0.1,0-0.3,0-0.4,0.1c-0.2,0-0.3-0.1-0.4-0.3c0-0.3,0-0.6,0-0.9c0-0.1,0-0.1,0.1-0.1
			c0.1,0,0.1,0.1,0.1,0.1c0,0.2,0,0.4,0,0.5c0,0,0,0.1,0,0.1c0,0.1,0,0.3,0.2,0.3c0.2,0,0.2-0.2,0.2-0.3c0-0.2,0-0.4,0-0.6
			c0-0.2,0-0.2,0.2-0.1C10.2,27.7,10.2,28.1,10.1,28.5z"/>
		<path fill="#FDFEFF" d="M24,27.4c0.3-0.2,0.4-0.2,0.7,0.1c0,0.1,0.1,0.1,0,0.2c-0.1,0-0.2,0-0.2-0.1c0-0.1-0.1-0.1-0.2-0.1
			c-0.1,0-0.1,0-0.1,0.1c0,0.1,0,0.1,0.1,0.2c0.2,0.1,0.5,0.2,0.4,0.5c0,0.2-0.1,0.3-0.3,0.3c-0.3,0-0.3,0-0.4-0.3c0,0,0,0,0-0.1
			c-0.1,0-0.1-0.1,0-0.2c0.1-0.1,0.2,0,0.3,0.1c0,0.1,0.1,0.1,0.2,0.1c0,0,0.1,0,0.1-0.1c0-0.1-0.1-0.1-0.1-0.2
			c-0.1,0-0.1,0-0.2-0.1c-0.1,0-0.2-0.1-0.2-0.2C23.9,27.7,23.9,27.5,24,27.4z"/>
		<path fill="#F7FBFD" d="M29,28.2c0.1-0.2,0-0.5,0-0.7c0-0.1,0-0.2,0.1-0.2c0.1,0,0.1,0.1,0.1,0.2c0,0.3,0,0.7,0,1
			c0,0.1,0,0.1-0.1,0.1c-0.1,0-0.2,0-0.3,0.1c-0.2,0-0.3,0-0.3-0.2c-0.1-0.3,0-0.7,0-1c0-0.1,0.1-0.1,0.1-0.1c0.1,0,0.1,0.1,0.1,0.1
			c0,0.3,0,0.5,0,0.8c0,0.1,0,0.2,0.1,0.3C29,28.4,29.1,28.3,29,28.2L29,28.2z"/>
		<path fill="#FAFDFE" d="M25.4,27.8c-0.1,0.2,0,0.4,0,0.6c0,0.1,0,0.2-0.1,0.2c-0.1,0-0.1-0.1-0.1-0.2c0-0.3,0-0.6,0-0.9
			c0-0.1,0-0.2,0.2-0.1c0,0,0.1,0,0.1,0c0.4-0.1,0.4-0.1,0.5,0.2c0,0.3,0,0.6,0,0.9c0,0.2-0.1,0.1-0.2,0.1c0-0.3,0-0.5,0-0.8
			c0-0.1,0-0.3-0.1-0.3C25.5,27.5,25.4,27.6,25.4,27.8C25.4,27.7,25.4,27.7,25.4,27.8C25.4,27.8,25.4,27.8,25.4,27.8z"/>
		<path fill="#F8FBFD" d="M16.5,28.5c-0.2,0.1-0.2,0-0.2-0.2c0-0.2,0-0.5,0-0.7c0-0.1,0-0.2-0.1-0.2c-0.1,0-0.2,0.1-0.2,0.2
			c-0.1,0.2,0,0.4,0,0.6c0,0.1,0,0.1,0,0.2c0,0.1,0,0.1-0.1,0.1c-0.1,0-0.1,0-0.1-0.1c0-0.4,0-0.7,0-1.1c0,0,0-0.1,0-0.1
			c0.2,0.1,0.3-0.1,0.5,0c0.1,0,0.2,0.2,0.2,0.3C16.6,27.9,16.6,28.2,16.5,28.5z"/>
		<path fill="#FAFCFE" d="M35.2,27.6c0-0.1,0-0.2-0.1-0.2c-0.1,0-0.1,0-0.2,0.1c-0.1,0.1,0,0.2,0,0.3c0,0.2,0,0.4,0,0.6
			c-0.2,0.1-0.2,0-0.2-0.2c0-0.3,0-0.6,0-0.8c0-0.3,0-0.3,0.3-0.2c0.3-0.1,0.5,0,0.5,0.3c0,0.2,0,0.5,0,0.7c0,0.1,0,0.2-0.1,0.2
			c-0.1,0-0.1-0.1-0.1-0.2C35.2,28.1,35.2,27.9,35.2,27.6C35.2,27.7,35.2,27.7,35.2,27.6C35.2,27.6,35.2,27.6,35.2,27.6z"/>
		<path fill="#FAFDFE" d="M29.8,27.5c-0.1,0.1-0.1,0.2-0.1,0.3c0,0.2,0,0.4,0,0.6c0,0.1,0,0.1-0.1,0.1c-0.1,0-0.1-0.1-0.1-0.1
			c0-0.3,0-0.7,0-1c0-0.1,0-0.2,0.1-0.1c0.1,0.1,0.2,0,0.3,0c0.2,0,0.3,0.1,0.4,0.2c0.1,0.3,0,0.7,0,1c0,0.1,0,0.1-0.1,0.1
			c-0.1,0-0.1-0.1-0.1-0.1c0-0.3,0-0.5,0-0.8C30,27.5,29.9,27.5,29.8,27.5z"/>
		<path fill="#FAFCFE" d="M18.8,28.5c-0.2,0-0.2,0-0.2-0.2c0-0.2,0-0.4,0-0.6c0-0.1,0-0.2-0.1-0.2c-0.1,0-0.2,0.1-0.2,0.2l0,0
			c-0.1,0.2,0,0.5,0,0.7c0,0.1,0,0.2-0.1,0.2c-0.1,0-0.1-0.1-0.1-0.2c0-0.3,0-0.6,0-1c0-0.1,0-0.2,0.2-0.1c0,0,0.1,0,0.1,0
			c0.3-0.1,0.4-0.1,0.5,0.2C18.8,27.9,18.8,28.2,18.8,28.5z"/>
		<path fill="#F7FBFD" d="M23.8,28.5c-0.2,0-0.2,0-0.2-0.2c0-0.3,0-0.5,0-0.8l0,0c0-0.2-0.2-0.1-0.3-0.1c-0.1,0.1-0.1,0.2-0.1,0.3
			c0,0.2,0,0.4,0,0.6c0,0.1,0,0.1-0.1,0.1s-0.1,0-0.1-0.1c0-0.4,0-0.7,0-1.1c0,0,0-0.1,0-0.1c0.2,0.1,0.3-0.1,0.5,0
			c0.1,0,0.2,0.1,0.2,0.3c0.1,0.1,0.1,0.2,0.1,0.4C23.9,28.1,23.9,28.3,23.8,28.5z"/>
		<path fill="#FDFEFE" d="M11.1,27.7c-0.1,0.1-0.2,0.1-0.2-0.1c0-0.1-0.1-0.1-0.2-0.1c-0.1,0-0.2,0.1-0.2,0.2
			c-0.1,0.2-0.1,0.4,0,0.6c0,0.1,0.1,0.2,0.2,0.2c0.1,0,0.2-0.1,0.2-0.2c0.1-0.2,0.1-0.2,0.2,0c-0.1,0-0.1,0.1-0.1,0.2
			c-0.1,0.1-0.2,0.2-0.3,0.2c-0.2,0-0.3-0.1-0.3-0.2c-0.1-0.3-0.1-0.6,0-0.9c0.1-0.2,0.2-0.3,0.3-0.3c0.2,0,0.3,0.1,0.4,0.3
			C11.1,27.5,11.1,27.6,11.1,27.7L11.1,27.7z"/>
		<path fill="#F9FCFE" d="M16.7,27.5c-0.1-0.1-0.2-0.1,0-0.2c0.1-0.1,0-0.2,0.1-0.3c0-0.1,0.1-0.2,0.2-0.2c0.1,0,0.1,0,0.1,0.1
			c0,0.1,0,0.1,0,0.2c-0.2,0.1-0.2,0.2,0,0.3c0.1,0.1,0.1,0.2,0,0.2c-0.1,0-0.1,0.1-0.1,0.2c0,0.3,0,0.5,0,0.8c0,0.1,0,0.1-0.1,0.2
			c-0.1,0-0.1-0.1-0.1-0.1C16.7,28.1,16.7,27.8,16.7,27.5C16.7,27.5,16.7,27.5,16.7,27.5C16.7,27.5,16.7,27.5,16.7,27.5z"/>
		<path fill="#DAE6F5" d="M19.2,28.3c0.1,0,0.1,0.1,0.1,0.2c0,0.1-0.1,0.1-0.1,0.1c-0.1,0-0.2-0.1-0.2-0.2c0-0.2,0-0.4,0-0.6
			c0-0.1,0-0.3-0.1-0.4c0-0.2,0.2-0.3,0.2-0.4c0,0,0.1-0.1,0.1-0.1c0.1,0,0.1,0,0.1,0.1c0,0.1,0,0.2,0.1,0.2c0.1,0.1,0,0.2-0.1,0.2
			C19.3,27.8,19.3,28.1,19.2,28.3z"/>
		<path fill="#2E8DCC" d="M36,27.5c0,0.1-0.1,0.2,0,0.2c0.1,0,0.1-0.1,0.2-0.1c0-0.1,0.1-0.1,0.2-0.1c0.1,0,0.1,0.1,0.1,0.2
			c0,0.1-0.1,0.1-0.1,0.1c-0.4,0.1-0.5,0.3-0.4,0.7c0,0-0.1,0.1-0.1,0.1c-0.2-0.2-0.2-0.5-0.2-0.8c0-0.1,0-0.3,0.1-0.4
			c0.1-0.1,0-0.1,0-0.2C36,27.2,36,27.4,36,27.5z"/>
		<path fill="#FAFDFE" d="M35.8,27.3c0.1,0.1,0.2,0.1,0,0.2c-0.1,0-0.1,0.1-0.1,0.1c0,0.2,0,0.4,0,0.6c0,0.1,0,0.1,0.1,0.1
			c0.2,0,0.1,0.1,0.1,0.2c-0.3,0-0.3,0-0.3-0.3c0-0.3,0-0.5,0-0.8l0,0c-0.1-0.1-0.2-0.1,0-0.2c0.1,0,0-0.1,0-0.2
			c0-0.1,0-0.1,0.1-0.1c0.1,0,0.1,0.1,0.1,0.1C35.8,27.1,35.8,27.2,35.8,27.3z"/>
		<path fill="#E9F3F9" d="M15.3,26.8c0.2,0,0.2,0,0.2,0.2c0,0.5,0,0.9,0,1.4c0,0.2-0.1,0.2-0.2,0.2c-0.1-0.1,0-0.1,0-0.2
			c0-0.4,0-0.9,0-1.3C15.3,27,15.3,26.9,15.3,26.8z"/>
		<path fill="#ECF5FC" d="M37.1,27.7c0,0.2,0,0.5,0,0.7c0,0.1,0,0.2-0.1,0.2c-0.1,0-0.1-0.1-0.1-0.2c0-0.5,0-0.9,0-1.4
			c0-0.1,0-0.2,0.1-0.2c0.1,0,0.1,0.1,0.1,0.2C37.1,27.2,37.1,27.5,37.1,27.7z"/>
		<path fill="#F2F9FC" d="M19.4,27.3c0.1,0,0.1,0,0.2,0c0.1,0,0.1,0.1,0.1,0.2c0,0.3,0,0.6,0,0.9c0,0.2,0,0.2-0.2,0.2
			C19.3,28.1,19.3,27.7,19.4,27.3z"/>
		<path fill="#E8F3FB" d="M24.8,27.3c0.2-0.1,0.2,0,0.2,0.1c0,0.3,0,0.6,0,0.9c0,0.2-0.1,0.2-0.2,0.2C24.7,28.1,24.8,27.7,24.8,27.3
			z"/>
		<path fill="#2C89CA" d="M19.4,27.3c0,0.4,0,0.8,0,1.2c0,0,0,0,0,0.1c-0.1-0.1,0-0.3-0.2-0.3c0-0.3,0-0.5,0-0.8
			C19.4,27.5,19.4,27.4,19.4,27.3C19.4,27.3,19.4,27.3,19.4,27.3C19.4,27.3,19.4,27.3,19.4,27.3z"/>
		<path fill="#2A8ACB" d="M19.8,26.8c0.1-0.1,0.1-0.1,0.2,0c0,0.6,0,1.1,0,1.7c-0.2,0.1-0.3,0.1-0.3-0.1c0-0.5,0-0.9,0-1.4
			C19.8,26.9,19.7,26.9,19.8,26.8c0.1,0.1,0.1,0.2,0.1,0.3c0,0.4,0,0.8,0,1.2c0-0.5,0-0.9,0-1.4C19.9,26.9,19.9,26.9,19.8,26.8z"/>
		<path fill="#3189C8" d="M23.8,28.5c0-0.3,0-0.7,0-1c0,0,0.1-0.1,0.1-0.1c0.1,0.1,0,0.3,0,0.4c0,0.1,0.1,0.1,0.2,0.2
			c0,0.1-0.1,0.2-0.2,0.2c-0.1,0,0,0.1,0,0.1C23.9,28.4,24,28.5,23.8,28.5z"/>
		<path fill="#2583C5" d="M36.9,28.6c-0.1-0.3-0.1-0.7-0.1-1c0,0,0-0.1,0-0.1c0,0,0,0,0,0c0,0.3,0,0.5,0,0.8c0,0,0,0,0,0
			c0-0.5,0-0.9,0-1.4c0,0,0,0,0,0C36.9,27.4,36.9,28,36.9,28.6C36.9,28.5,36.9,28.6,36.9,28.6z"/>
		<path fill="#4396D0" d="M30,27.6c0.1,0.3,0,0.5,0,0.8c0,0.1-0.1,0.2,0.1,0.2c0.1,0,0.1-0.1,0.1-0.2c0-0.3,0-0.6,0-0.9
			c0.1,0.1,0,0.3,0,0.4c0,0.2,0,0.3,0,0.5c0,0.2-0.1,0.3-0.3,0.3C30,28.3,30,27.9,30,27.6z"/>
		<path fill="#F7FBFD" d="M13.3,27C13.3,27,13.3,27,13.3,27c-0.2,0-0.2,0-0.2,0c0-0.1,0-0.2,0.2-0.2c0.1,0,0.2,0.1,0.3,0
			c0,0,0.1,0,0.1,0.1C13.5,27,13.5,27.1,13.3,27z"/>
		<path fill="#2387C8" d="M18.8,27.4c0.1,0,0.2,0.1,0.1,0.2c0,0.3,0,0.5,0,0.7c-0.1-0.2,0-0.3,0-0.5c0-0.1,0-0.2,0-0.4
			c-0.1,0.1,0,0.2-0.1,0.3c0,0.2,0.1,0.5,0,0.7c0-0.3,0-0.7,0-1C18.8,27.5,18.8,27.5,18.8,27.4z"/>
		<path fill="#2489C9" d="M24.8,27.3c0,0.4,0,0.8,0,1.2c-0.1,0.1-0.1,0-0.1,0c-0.1-0.3,0-0.5,0-0.8c0,0,0-0.1,0-0.1
			c0,0-0.1,0.1-0.1,0.1c0-0.1,0-0.1,0-0.2C24.8,27.5,24.7,27.3,24.8,27.3C24.8,27.3,24.8,27.3,24.8,27.3
			C24.8,27.3,24.8,27.3,24.8,27.3z"/>
		<path fill="#2C8CCA" d="M34.9,27.3c-0.3,0-0.3,0-0.3,0.3c0,0.3,0,0.5,0,0.8c0,0.2,0.1,0.2,0.2,0.2c-0.2,0.1-0.3,0.1-0.3-0.1
			c0-0.3,0-0.6,0-0.9C34.6,27.2,34.6,27.2,34.9,27.3z"/>
		<path fill="#2C89C8" d="M10.1,28.5c0-0.4,0-0.8,0-1.2c0,0,0,0,0,0c0,0.3,0.1,0.6,0,0.9C10.2,28.3,10.2,28.4,10.1,28.5
			C10.2,28.5,10.2,28.6,10.1,28.5C10.2,28.6,10.2,28.5,10.1,28.5z"/>
		<path fill="#2681C4" d="M27.6,26.9c0,0.6,0,1.1,0,1.7c0,0,0,0,0,0C27.5,28,27.5,27.4,27.6,26.9C27.5,26.9,27.5,26.9,27.6,26.9
			C27.6,26.9,27.6,26.9,27.6,26.9z"/>
		<path fill="#2284C7" d="M37.2,26.9c0,0.6,0,1.1,0,1.7c0,0,0,0,0,0C37.2,28,37.2,27.4,37.2,26.9C37.2,26.9,37.2,26.9,37.2,26.9z"/>
		<path fill="#2A85C7" d="M15.6,26.9c0,0.5,0,1.1,0,1.6c0,0,0,0,0,0C15.6,28,15.6,27.4,15.6,26.9C15.6,26.9,15.6,26.9,15.6,26.9z"/>
		<path fill="#2881C4" d="M20,28.5c0-0.6,0-1.1,0-1.7c0,0,0,0.1,0,0.1C20.1,27.4,20.1,27.9,20,28.5C20.1,28.5,20,28.5,20,28.5z"/>
		<path fill="#2085C7" d="M9.2,28.5c0-0.6,0-1.1,0-1.7c0,0,0.1,0.1,0.1,0.1c0,0.5,0,1,0,1.5C9.3,28.5,9.2,28.5,9.2,28.5z"/>
		<path fill="#2A85C7" d="M7.3,26.9c0,0.5,0,1.1,0,1.6c0,0,0,0,0,0C7.3,28,7.3,27.4,7.3,26.9C7.3,26.9,7.3,26.9,7.3,26.9z"/>
		<path fill="#1880C4" d="M15.3,26.8c0,0.6,0,1.1,0,1.7c-0.1,0-0.1-0.1-0.1-0.1c0-0.5,0-1,0-1.5C15.3,26.9,15.3,26.9,15.3,26.8z"/>
		<path fill="#2A8ACB" d="M19.4,28.6C19.4,28.6,19.4,28.6,19.4,28.6c0.2,0,0.2,0,0.2-0.2c0-0.3,0-0.6,0-0.9c0-0.1,0-0.1-0.1-0.2
			c0.1,0,0.1,0.1,0.1,0.1c0,0.4,0,0.7,0,1.1C19.7,28.7,19.5,28.6,19.4,28.6z"/>
		<path fill="#2984C6" d="M25.1,27.3c0,0.4,0,0.8,0,1.2C25.1,28.1,25.1,27.7,25.1,27.3z"/>
		<path fill="#2D88C8" d="M30,27.6c0,0.3,0,0.7,0,1c-0.1-0.2,0-0.5,0-0.8c0-0.2,0-0.3-0.2-0.3C29.9,27.4,30,27.5,30,27.6z"/>
		<path fill="#2282C5" d="M22.9,28.5c0-0.1,0-0.1,0-0.2c0.1-0.1,0.1-0.2,0.1-0.3c0-0.2,0-0.5,0-0.7c0,0.4,0,0.7,0,1.1
			C23,28.5,23,28.5,22.9,28.5z"/>
		<path fill="#2A8BCB" d="M13.6,28.6c0.2,0,0.2,0,0.1-0.2c-0.1-0.1,0-0.3,0-0.4c0-0.1,0-0.3,0-0.4c0.1,0.2,0,0.4,0,0.6
			c0,0.1,0,0.2,0.1,0.2l0,0C13.8,28.7,13.8,28.7,13.6,28.6z"/>
		<path fill="#2585C7" d="M32.2,28.6c0-0.1,0-0.1,0-0.2c0-0.4,0-0.7,0-1.1C32.2,27.8,32.3,28.2,32.2,28.6z"/>
		<path fill="#2783C6" d="M29.3,28.5c0-0.4,0-0.8,0-1.2c0,0,0,0,0,0C29.3,27.7,29.3,28.1,29.3,28.5C29.3,28.5,29.3,28.5,29.3,28.5z"
			/>
		<path fill="#2B8DCC" d="M25.8,28.5c0.2,0.1,0.2,0,0.2-0.2c0-0.3,0-0.5,0-0.8c0.1,0.3,0,0.6,0,1C26,28.7,25.9,28.6,25.8,28.5z"/>
		<path fill="#2380C4" d="M15.7,27.3c0,0.4,0,0.8,0,1.2c0,0,0,0,0,0C15.7,28.1,15.7,27.7,15.7,27.3C15.7,27.3,15.7,27.3,15.7,27.3z"
			/>
		<path fill="#EBF6FA" d="M19.5,26.8c0.1,0,0.1,0,0.1,0.1c0,0.1,0,0.1-0.1,0.1c-0.1,0-0.1,0-0.1-0.1C19.4,26.9,19.4,26.8,19.5,26.8z
			"/>
		<path fill="#E3F2F9" d="M25,26.9c0,0.1,0,0.1-0.1,0.1c-0.1,0-0.1-0.1-0.1-0.1s0-0.1,0.1-0.1C25,26.8,25,26.9,25,26.9z"/>
		<path fill="#2882C4" d="M16.7,27.5C16.7,27.5,16.7,27.5,16.7,27.5c-0.1,0-0.1,0.1-0.1,0.2c0,0.3,0,0.5,0,0.8c0,0,0,0,0,0
			c0,0,0,0,0,0c0-0.3,0-0.7,0-1C16.6,27.5,16.6,27.5,16.7,27.5z"/>
		<path fill="#2682C5" d="M9.3,28.3c0-0.3,0-0.7,0-1c0,0,0,0,0,0C9.3,27.6,9.3,28,9.3,28.3C9.3,28.3,9.3,28.3,9.3,28.3z"/>
		<path fill="#2684C6" d="M35.6,27.5c0,0.3,0,0.6,0,0.9c0,0,0,0,0,0C35.5,28.1,35.5,27.8,35.6,27.5C35.5,27.5,35.6,27.5,35.6,27.5
			C35.6,27.5,35.6,27.5,35.6,27.5z"/>
		<path fill="#1D82C5" d="M23.6,27.6c0,0.3,0,0.6,0,0.9C23.6,28.2,23.5,27.9,23.6,27.6C23.6,27.6,23.6,27.6,23.6,27.6z"/>
		<path fill="#2982C4" d="M22,28.6c0.3,0,0.6,0,0.9,0c0,0,0,0,0,0C22.6,28.6,22.3,28.6,22,28.6C22.1,28.6,22.1,28.6,22,28.6z"/>
		<path fill="#2981C4" d="M8.2,28.6c-0.3,0-0.5,0-0.8,0c0,0,0,0,0,0C7.7,28.6,7.9,28.6,8.2,28.6C8.2,28.6,8.2,28.6,8.2,28.6z"/>
		<path fill="#2682C5" d="M22.1,26.7c0.3,0,0.5,0,0.8,0c0,0,0,0,0,0C22.6,26.8,22.3,26.8,22.1,26.7C22.1,26.8,22.1,26.8,22.1,26.7z"
			/>
		<path fill="#2583C6" d="M29,28.2c-0.1-0.3,0-0.6,0-0.9C29,27.6,29,27.9,29,28.2C29,28.2,29,28.2,29,28.2z"/>
		<path fill="#2583C5" d="M18.2,27.7c0.1,0.3,0,0.6,0.1,0.9c0,0,0,0-0.1,0C18.2,28.3,18.2,28,18.2,27.7L18.2,27.7z"/>
		<path fill="#2483C6" d="M35.2,27.6C35.2,27.7,35.2,27.7,35.2,27.6c0,0.3,0,0.6,0,0.9c0,0,0,0-0.1,0C35.2,28.2,35.1,27.9,35.2,27.6
			z"/>
		<path fill="#1782C5" d="M32.8,27.7c0,0.3,0,0.6,0,0.9C32.7,28.3,32.7,28,32.8,27.7z"/>
		<path fill="#2782C5" d="M7.4,26.7c0.3,0,0.5,0,0.8,0c0,0,0,0,0,0C7.9,26.8,7.7,26.8,7.4,26.7C7.4,26.8,7.4,26.7,7.4,26.7z"/>
		<path fill="#297FC3" d="M25.4,27.8C25.4,27.7,25.4,27.7,25.4,27.8c0.1,0.2,0,0.5,0.1,0.7c0,0,0,0-0.1,0
			C25.4,28.3,25.4,28,25.4,27.8z"/>
		<path fill="#2782C5" d="M28.4,26.8c-0.2,0-0.5,0-0.7,0c0,0,0,0,0,0C27.9,26.7,28.1,26.7,28.4,26.8C28.4,26.7,28.4,26.8,28.4,26.8z
			"/>
		<path fill="#2A82C4" d="M22.3,27.1c0.2,0,0.4,0,0.6,0C22.7,27.1,22.5,27.2,22.3,27.1C22.3,27.1,22.3,27.1,22.3,27.1z"/>
		<path fill="#2982C4" d="M7.6,27.1C7.6,27.1,7.6,27.1,7.6,27.1c0.2,0,0.4,0,0.6,0c0,0,0,0,0,0C8,27.1,7.8,27.1,7.6,27.1z"/>
		<path fill="#288ACB" d="M11.8,28.6c0.2,0,0.3,0,0.1-0.3c0,0,0.1,0,0.1,0l0,0C12.1,28.7,12,28.7,11.8,28.6z"/>
		<path fill="#2283C5" d="M30.9,27.3C30.9,27.3,30.9,27.3,30.9,27.3c0-0.1,0-0.2,0-0.2c0-0.1,0-0.1,0-0.2C31,27,31,27.2,30.9,27.3z"
			/>
		<path fill="#2D8DCC" d="M34,28c0.2,0,0.3,0,0.5,0C34.3,28.1,34.1,28.1,34,28z"/>
		<path fill="#2582C5" d="M8,29.7c-0.2,0-0.3,0-0.5,0C7.7,29.6,7.8,29.6,8,29.7z"/>
		<path fill="#6CB4E1" d="M4.7,30.3c-0.1,0-0.2,0.1-0.3,0.2C4.5,30.3,4.5,30.3,4.7,30.3C4.7,30.2,4.7,30.3,4.7,30.3z"/>
		<path fill="#288ACB" d="M12.1,27.7c0,0.2,0,0.3,0,0.5C12,28,12,27.9,12.1,27.7z"/>
		<path fill="#2B8DCC" d="M26.1,27.7c0,0.2,0,0.3,0,0.5C26,28,26,27.8,26.1,27.7z"/>
		<path fill="#2A8BCB" d="M13.8,27.7c0,0.2,0,0.3,0,0.5C13.8,28,13.8,27.8,13.8,27.7z"/>
		<path fill="#2E8CCC" d="M24,27.8c-0.1-0.1,0-0.3,0-0.4c0,0,0,0,0.1,0C24,27.5,24,27.7,24,27.8z"/>
		<path fill="#2C8CCA" d="M34.5,28c0-0.1,0-0.3,0-0.4C34.6,27.7,34.6,27.9,34.5,28z"/>
		<path fill="#2980C3" d="M37.6,29.9c-0.1,0-0.3,0-0.4,0C37.3,29.9,37.5,29.9,37.6,29.9z"/>
		<path fill="#2D8DCC" d="M33.9,28.2c0-0.1-0.1-0.1,0-0.2C33.9,28.1,33.9,28.2,33.9,28.2z"/>
		<path fill="#207DC1" d="M11.1,27.7C11.1,27.7,11.1,27.7,11.1,27.7c0-0.1,0-0.1,0.1-0.2C11.1,27.6,11.2,27.6,11.1,27.7z"/>
		<path fill="#2D8DCC" d="M34.5,28.2c-0.1,0-0.1,0-0.2,0C34.3,28.1,34.4,28.1,34.5,28.2z"/>
		<path fill="#4396D0" d="M30.4,27.6c0,0.1,0,0.2,0,0.2C30.3,27.7,30.3,27.7,30.4,27.6z"/>
		<path fill="#288ACB" d="M1,29.1c-0.2-0.1-0.2-0.3-0.2-0.5c0-0.2,0.3-0.3,0.5-0.3c0.6-0.1,1.1-0.2,1.7,0c0.4,0.1,0.6,0.4,0.6,0.8
			c0,0.1-0.1,0.2-0.2,0.2c-0.2,0-0.4,0.1-0.5,0.1c-0.1,0-0.2,0.1-0.2,0.2c0,0.1,0,0.1,0,0.2c0,0.2-0.1,0.2-0.2,0.3
			c-0.1,0-0.2,0.1-0.2,0.2c0,0.2,0,0.3-0.1,0.5C2.1,31,1.9,31.1,1.6,31c-0.2-0.1-0.4-0.3-0.6-0.5C1,30.5,0.9,30.4,1,30.3
			c0.1-0.2,0-0.4,0-0.6C1,29.5,1,29.3,1,29.1z"/>
		<path fill="#298ACB" d="M3.8,30.6c-0.2,0-0.3-0.1-0.5-0.1c-0.1,0-0.2-0.1-0.2-0.3c0-0.4,0-0.4,0.4-0.4c0.1,0,0.2,0,0.2-0.1
			c0.1-0.1,0.1-0.1,0.2-0.1c0.1,0,0.3,0,0.4,0.1c0.1,0.1,0,0.3-0.1,0.4c-0.1,0.1-0.1,0.2-0.2,0.3C4.1,30.5,4,30.6,3.8,30.6z"/>
		<path fill="#1E82C5" d="M1,29.1c0.1,0.2,0.1,0.4,0,0.6C1,29.5,1,29.3,1,29.1z"/>
		<path fill="#9FCDE6" d="M4.3,30.5C4.3,30.5,4.3,30.5,4.3,30.5C4.3,30.5,4.3,30.5,4.3,30.5C4.3,30.5,4.4,30.5,4.3,30.5
			C4.3,30.5,4.3,30.5,4.3,30.5z"/>
		<path fill="#1478BE" d="M39.4,19.4c0,0.9,0,1.8,0,2.7c0,0.4-0.1,0.6-0.5,0.7c-1,0.2-2.1,0.4-3.1,0.6c-0.2,0-0.3,0-0.4-0.2
			c0-0.1,0-0.2,0-0.3c0-1.8,0-3.5,0-5.3c0-0.1,0-0.3,0.1-0.4c0.1-0.2,0.2-0.2,0.3-0.3c1.1-0.2,2.2-0.4,3.3-0.7
			c0.3-0.1,0.5,0.1,0.5,0.4c0,0.9,0,1.7,0,2.6C39.4,19.3,39.4,19.4,39.4,19.4z"/>
		<path fill="#BDB2D5" d="M22.1,19.7c0-0.2,0.2-0.3,0.4-0.3c1.1-0.2,2.2-0.4,3.3-0.6c0.2,0,0.3,0,0.4,0.3c0,0.1,0,0.2,0,0.3
			c0,1.7,0,3.5,0,5.2c0,0.2,0,0.3-0.1,0.4c-0.1,0.2-0.2,0.3-0.4,0.3c-0.5,0.1-1.1,0.2-1.6,0.3c-0.1,0-0.2,0-0.2,0
			c-0.4,0.1-0.8,0.2-1.3,0.3c-0.1,0-0.2,0.1-0.4,0.1c-0.1,0-0.2,0-0.2-0.1c0,0,0-0.1,0-0.1c0.1-0.2,0.1-0.5,0-0.7c0-0.3,0-0.5,0-0.8
			c0-0.1,0-0.1,0-0.2c0,0,0.1,0,0.1,0c0,0.1,0,0.1,0,0.2c0,0.1,0,0.2,0,0.2c0.1,0.3,0.2,0.6,0.4,0.8c0.3,0.3,0.7,0.3,1.1,0.2
			c0.3-0.1,0.6-0.2,0.9-0.5c0,0,0,0,0,0c0.7-0.5,0.9-1.3,0.9-2.1c0-1,0-2,0-3c0-0.1,0-0.2,0-0.3c0-0.1-0.1-0.2-0.2-0.3
			c-0.1,0-0.3,0-0.4,0.1c-0.1,0.1-0.1,0.2-0.2,0.2c-0.1,0-0.2,0.1-0.2,0.2c0,0.1,0,0.2,0,0.3c-0.1,1,0,2,0,3c0,0.3,0,0.7-0.2,1
			c-0.2,0.2-0.4,0.3-0.7,0.2c-0.3-0.1-0.3-0.3-0.4-0.5c0-1,0-2,0-3c0-0.1,0-0.2,0-0.3c0-0.1,0-0.3,0-0.4c0-0.1,0-0.3-0.2-0.3
			c-0.2,0-0.3,0-0.4,0.2c-0.1,0.1-0.1,0.2-0.2,0.2c-0.2,0.1-0.2,0.3-0.2,0.4c0,0.3,0,0.6,0,0.9c0,0.3,0,0.6-0.1,1c0,0.2,0,0.3,0,0.5
			c0,0.1,0,0.2-0.1,0.3c-0.1,0-0.1-0.1-0.1-0.2C22.1,21.8,22.1,20.8,22.1,19.7z"/>
		<path fill="#F4E719" d="M4.3,17.3c0.1-0.2,0.2-0.3,0.4-0.2c0.8,0.2,1.7,0.3,2.5,0.5c0.7,0.1,1.4,0.3,2.1,0.4
			c0.2,0,0.3,0.1,0.4,0.3c0.1,0.1,0.1,0.3,0.1,0.4c0,1.7,0,3.4,0,5.1c0,0.1,0,0.2,0,0.4c0,0,0,0.1,0,0.1c-0.2,0.3-0.3,0.3-0.6,0.2
			c-1.5-0.3-2.9-0.6-4.4-0.8c-0.2,0-0.4-0.2-0.5-0.4c0,0,0-0.1,0-0.1c0-0.2,0-0.5,0-0.7c0-1.6,0-3.2,0-4.7
			C4.3,17.6,4.3,17.5,4.3,17.3C4.3,17.4,4.3,17.4,4.3,17.3z"/>
		<path fill="#E97C17" d="M21.6,25.5c-0.1,0.3-0.2,0.4-0.5,0.3c-0.7-0.1-1.4-0.3-2.1-0.4c-0.8-0.2-1.6-0.3-2.4-0.5
			c-0.3-0.1-0.4-0.2-0.5-0.5c0-1.7,0-3.4,0-5.1c0-0.2,0-0.4,0-0.6c0.1-0.3,0.2-0.4,0.5-0.3c0.6,0.1,1.2,0.2,1.8,0.3
			c0.8,0.2,1.7,0.3,2.5,0.5c0.3,0.1,0.5,0.1,0.6,0.5C21.6,21.6,21.6,23.5,21.6,25.5z"/>
		<path fill="#EF9D9F" d="M30.9,18.8c0-0.2,0.2-0.4,0.4-0.4c1.1-0.2,2.1-0.4,3.1-0.6c0.4-0.1,0.4,0,0.5,0.4c0,0,0,0,0,0
			c0,0,0,0,0,0.1c0,0.5,0,1,0,1.5c0,0.2,0,0.3,0,0.5c0,0,0,0.1-0.1,0c0,0,0,0,0,0c0,0,0-0.1,0-0.1c0,0,0,0.1,0,0.1c0,0-0.1,0-0.1,0
			c0-0.1,0-0.3,0-0.4c0,0,0,0,0,0.1c0,0.1,0,0.3,0,0.4c0.1,0.2,0.1,0.3,0,0.5c0,0,0,0-0.1,0c-0.1-0.1-0.1-0.2-0.1-0.2
			c0-0.5,0-1,0-1.5c0-0.2,0-0.4-0.2-0.5c-0.2-0.1-0.4,0-0.5,0.1c-0.2,0.1-0.2,0.2-0.3,0.3c0,0.1,0,0.2,0,0.3c0,1-0.1,2,0,3.1
			c0,0.3-0.1,0.6-0.3,0.9c-0.1,0.1-0.1,0.1-0.2,0.2c-0.4,0.1-0.6,0-0.8-0.4c-0.1-0.3-0.1-0.6-0.1-1c0.1-0.8,0-1.5,0-2.3
			c0-0.1,0-0.3,0-0.4c0-0.3-0.2-0.4-0.5-0.3c0,0-0.1,0-0.1,0c-0.3,0.1-0.4,0.3-0.4,0.5c0,0.1,0,0.2,0,0.3c0,0.6,0,1.2,0,1.8
			c0,0.4,0,0.9,0,1.3c0,0.1,0,0.2,0,0.3c0,0.1,0,0.3,0.1,0.4c-0.1,0.2,0,0.5-0.1,0.8c0,0,0,0.1,0,0.1c0.1,0,0.1,0,0.1-0.1
			c-0.1-0.3,0.1-0.1,0.2-0.1c0.1,0,0.1,0,0.2,0c0.1,0,0.2,0.1,0.2,0.1c0.1,0,0.1,0,0.2,0.1c0,0,0,0,0,0c0,0,0,0,0,0c0,0,0,0,0,0
			c0.1,0,0.3,0,0.4,0c0.1,0,0.1,0,0.2,0c0.1,0,0.2,0,0.2-0.1c0,0,0,0,0.1,0c0.1,0.1-0.1,0.1-0.1,0.1c0.1-0.1,0.3-0.1,0.5-0.1
			c0.2,0,0.3-0.1,0.4-0.2c0-0.1,0.1-0.1,0.2-0.1c0,0,0.1,0,0.1,0c0.1,0.2,0.2,0.2,0.4,0.1c0,0,0.1,0,0.1,0C34.5,24,34.4,24,34.3,24
			c-0.1,0-0.2,0-0.2-0.1c0-0.1,0.1-0.2,0.2-0.3c0,0,0.1,0.1,0.1,0c0,0,0-0.1-0.1-0.1c-0.2,0-0.1-0.1-0.1-0.2c0-0.1,0.1-0.2,0.2-0.3
			c0.1-0.2,0.2-0.3,0.1-0.5c0-0.1,0-0.1,0.1-0.2c0,0,0,0,0,0.1c0-0.2,0.2-0.1,0.3-0.1c0.1,0.1,0,0.2,0,0.3c0,0,0,0,0,0
			c0.1-0.1,0.1-0.1,0.2,0c0,0.2,0,0.5,0,0.7c-0.1,0.1-0.1,0.2-0.1,0.4c0,0,0,0.1,0,0c0,0,0,0,0,0s0,0,0,0c0,0,0,0,0,0
			c0,0.3-0.1,0.5-0.4,0.5c-1.1,0.2-2.1,0.4-3.2,0.6c0,0,0,0-0.1,0c-0.1,0-0.2,0-0.2,0c-0.1-0.1-0.2-0.1-0.2-0.3
			c-0.1-0.1,0-0.2,0-0.3c0-0.4,0-0.7,0-1.1c0,0,0-0.1,0-0.1c0-1.1,0-2.2,0-3.4c0-0.1,0-0.1,0-0.2c0-0.1,0-0.3,0-0.4c0,0,0-0.1,0-0.1
			C30.9,19,30.9,18.9,30.9,18.8z"/>
		<path fill="#79C1EC" d="M22.4,17.5c0.9,0.2,1.9,0.4,2.8,0.6c0.1,0,0.2,0,0.3,0.1c0,0,0.1,0,0.1,0.1c0,0.1-0.1,0.1-0.1,0.1
			c-0.7,0.1-1.3,0.2-2,0.4c-0.5,0.1-1,0.2-1.4,0.2c-0.5,0-0.9-0.2-1.4-0.2c-1.1-0.2-2.3-0.4-3.4-0.7c0,0-0.1,0-0.1,0
			c0,0-0.1,0-0.1-0.1c0-0.1,0.1-0.1,0.1-0.1c0.3-0.1,0.7-0.1,1-0.2c0,0,0.1,0,0.1,0c0,0,0.1,0,0.2,0c0.8,0,1.7,0,2.5,0
			c0.4,0,0.9,0,1.3,0C22.3,17.4,22.3,17.5,22.4,17.5z"/>
		<path fill="#994579" d="M14.3,17.5c0.5,0,0.9,0,1.4,0c0,1.9,0,3.7,0,5.6c0,0.3-0.2,0.5-0.5,0.4c-0.5-0.1-0.9-0.2-1.4-0.3
			c-0.1-0.1-0.2,0-0.2,0h0c-0.1-0.1-0.2,0-0.2,0c-0.1,0-0.2,0-0.3,0c0,0,0-0.1,0.1-0.1c0.3-0.1,0.5,0,0.8,0c1-0.3,1.4-1.3,1.5-2.1
			c0-0.4,0-0.8,0-1.2c0,0,0,0,0-0.1c-0.1-0.7-0.4-1.3-0.8-1.8c0,0-0.1-0.1-0.1-0.1C14.4,17.6,14.3,17.6,14.3,17.5
			C14.3,17.5,14.3,17.5,14.3,17.5z"/>
		<path fill="#994579" d="M13.1,23C13.1,23,13.1,23,13.1,23c-0.3,0-0.6,0-0.9-0.1c-0.1-0.1-0.2,0-0.2,0c-0.5-0.1-0.9-0.2-1.4-0.3
			c-0.2,0-0.4-0.3-0.4-0.6c0-0.9,0-1.9,0-2.8c0-0.6,0-1.1,0-1.7c0.3-0.1,0.6,0,0.8,0c0,0,0,0,0.1,0c0,0.1-0.1,0.2-0.1,0.3
			c-0.2,0.4-0.3,0.9-0.3,1.4c0,0.5,0,1.1,0.2,1.6c0.2,0.8,0.7,1.4,1.4,1.8c0.1,0,0.2,0.1,0.2,0.1c0.1,0,0.1,0.1,0.2,0.1
			c0.1,0,0.1,0,0.2,0.1c0,0,0.1,0,0.1,0.1C12.9,22.9,13,22.9,13.1,23C13.1,22.9,13.1,23,13.1,23C13.1,23,13.1,23,13.1,23z"/>
		<path fill="#C2C165" d="M33.6,16.2c0.9-0.3,1.9-0.6,2.8-0.9c0.4,0.1,0.8,0.2,1.3,0.3c0.4,0.1,0.8,0.2,1.1,0.2c0.1,0,0.1,0,0.2,0.1
			c0,0,0,0,0,0.1c-1.1,0.2-2.2,0.4-3.3,0.6c-0.1,0-0.3,0-0.4,0c-0.5,0-1-0.2-1.5-0.3C33.8,16.2,33.7,16.2,33.6,16.2z"/>
		<path fill="#C3B8DB" d="M22.1,19.7c0.1,0.1,0,0.2,0,0.2c0,1,0,2,0,2.9c0,0.1,0,0.2,0,0.2c0.1,0.3,0.1,0.5,0,0.8
			c-0.1,0.2,0,0.4,0,0.6c0,0.1,0,0.2,0,0.4c0.1,0.2,0.1,0.5,0,0.7c0,0,0,0.1,0,0.1c-0.1-0.1-0.1-0.1-0.1-0.2c0-1.9,0-3.8,0-5.6
			C22.1,19.8,22.1,19.7,22.1,19.7z"/>
		<path fill="#2D2764" d="M22.4,17.5C22.4,17.5,22.3,17.5,22.4,17.5c-0.1,0-0.1,0-0.1,0c-0.1,0-0.1,0-0.2,0c-1.2,0-2.3,0-3.5,0
			c0,0-0.1,0-0.1,0c0,0,0,0,0-0.1c0.1,0,0.2,0,0.2,0c1.1,0,2.2,0,3.4,0c1.7,0.1,3.4,0,5.2,0c0.4,0,0.8,0,1.2,0c0.4,0,0.8,0,1.1-0.1
			c0.1,0,0.1-0.1,0.2,0c-0.3,0.1-0.7,0.2-1,0.2c-0.3,0-0.6,0-0.8,0c-0.1,0.1-0.2,0.1-0.4,0c-0.3,0-0.6,0-0.9,0c-0.9,0-1.7,0-2.6,0
			c-0.5,0-1,0-1.5,0C22.5,17.4,22.4,17.4,22.4,17.5z"/>
		<path fill="#F0811A" d="M21.6,25.5c-0.1-0.1,0-0.1,0-0.2c0-1.8,0-3.6,0-5.3c0-0.1,0-0.2,0-0.2c0.1,0.1,0,0.1,0,0.2
			c0,1.8,0,3.6,0,5.4C21.6,25.3,21.7,25.4,21.6,25.5z"/>
		<path fill="#F0801A" d="M16.2,18.7c0.1,0.1,0,0.2,0,0.2c0,1.8,0,3.5,0,5.3c0,0.1,0,0.2,0,0.2c0-0.1,0-0.2,0-0.3c0-1.7,0-3.5,0-5.2
			C16.1,18.9,16.1,18.8,16.2,18.7z"/>
		<path fill="#1A0F0D" d="M30.9,19.1C30.9,19.1,30.9,19.1,30.9,19.1c0,0.2,0,0.4,0,0.5c0,0,0,0.1,0,0.1c0,0.1,0,0.2,0,0.2
			c0,1,0,2,0,3c0,0.1,0,0.2,0,0.2c0,0,0,0,0,0.1c0,0.4,0,0.7,0,1.1c0,0.1,0,0.2,0,0.3c-0.1,0,0-0.1,0-0.2
			C30.9,22.6,30.9,20.9,30.9,19.1c-0.1-0.1-0.1-0.2-0.1-0.3c0,0,0,0,0,0c0,0,0,0,0,0C30.9,18.9,30.9,19,30.9,19.1z"/>
		<path fill="#130E14" d="M9.8,18.4C9.9,18.4,9.8,18.5,9.8,18.4c0,2,0,3.9,0,5.7c0,0,0,0.1,0,0.1c0,0,0,0,0,0c0,0,0,0,0,0
			c-0.1-0.1,0-0.2,0-0.3c0-1.8,0-3.5,0-5.3C9.7,18.6,9.7,18.5,9.8,18.4z"/>
		<path fill="#1A1210" d="M35.1,18C35.1,18,35.1,18,35.1,18C35.1,18,35.1,18,35.1,18c0,1.9,0,3.8,0,5.7c0,0,0,0,0,0c0,0,0,0,0-0.1
			C35,23.6,35,23.5,35,23.4c0-1.7,0-3.4,0-5.1C35,18.2,35,18.1,35.1,18z"/>
		<path fill="#E6E01E" d="M4.3,23.2C4.3,23.2,4.3,23.2,4.3,23.2C4.3,23.2,4.2,23.2,4.3,23.2c-0.1-0.1-0.1-0.2-0.1-0.3
			c0-1.8,0-3.5,0-5.2c0-0.1,0-0.2,0-0.3c0,0,0,0,0-0.1l0,0c0,0,0,0.1,0,0.1c0,1.8,0,3.7,0,5.5C4.3,23.1,4.3,23.1,4.3,23.2z"/>
		<path fill="#F2E62E" d="M9.7,24.2c-0.1-0.1,0-0.2,0-0.3c0-1.9,0-3.7,0-5.6c0,0,0,0.1,0.1,0.1c0,0,0,0.1,0,0.2c0,1.8,0,3.6,0,5.5
			C9.7,24.1,9.8,24.1,9.7,24.2z"/>
		<path fill="#605C1D" d="M9.7,24.2c0-1.8,0-3.7,0-5.5c0-0.1,0-0.2,0-0.3c0,0,0,0,0,0C9.8,20.3,9.8,22.3,9.7,24.2
			C9.8,24.2,9.7,24.2,9.7,24.2C9.7,24.2,9.7,24.2,9.7,24.2z"/>
		<path fill="#3F3A18" d="M4.2,17.4c0,1.9,0,3.8,0,5.7c0,0,0,0,0,0c0-0.1,0-0.1,0-0.2c0-1.8,0-3.6,0-5.4C4.2,17.5,4.1,17.5,4.2,17.4
			C4.2,17.4,4.2,17.4,4.2,17.4z"/>
		<path fill="#1A1412" d="M4.2,17.4c0,1.9,0,3.8,0,5.7c-0.1-0.1,0-0.1,0-0.2c0-1.8,0-3.5,0-5.3C4.1,17.5,4.1,17.5,4.2,17.4z"/>
		<path fill="#8E5F5F" d="M35.1,18c0,1.9,0,3.8,0,5.7c0,0,0,0,0,0c-0.1-0.1-0.1-0.2-0.1-0.3c0-1.7,0-3.4,0-5.1
			C34.9,18.2,34.9,18.1,35.1,18C35,18,35,18,35.1,18C35,18,35,18,35.1,18z"/>
		<path fill="#F2A4A7" d="M35,18C35,18.1,35,18.1,35,18c0,1.9,0,3.8,0,5.7c0,0,0,0,0,0l0,0c0-0.1-0.1-0.1-0.1-0.2c0-1,0-2,0-3
			c0-0.8,0-1.5,0-2.3C34.9,18.2,34.9,18.1,35,18C35,18,35,18,35,18z"/>
		<path fill="#181212" d="M26.2,24.6c0-1.8,0-3.6,0-5.5c0,0,0,0,0,0C26.3,21,26.3,22.8,26.2,24.6C26.3,24.6,26.2,24.6,26.2,24.6z"/>
		<path fill="#2D2D5C" d="M18.5,17.4C18.5,17.4,18.5,17.4,18.5,17.4C18.4,17.5,18.4,17.5,18.5,17.4C18.4,17.5,18.4,17.5,18.5,17.4
			c-0.1,0.1-0.1,0.1-0.2,0.1c-0.1-0.1-0.1,0-0.2,0c-0.8,0-1.6,0-2.4,0c0.1-0.1,0.1,0,0.2,0C16.8,17.4,17.6,17.4,18.5,17.4z"/>
		<path fill="#DB9496" d="M30.9,24.6c0-0.4,0-0.9,0-1.3C30.9,23.7,30.9,24.1,30.9,24.6C30.9,24.6,30.9,24.6,30.9,24.6z"/>
		<path fill="#CBCA6D" d="M35.4,16.5c0.1-0.1,0.3-0.1,0.4,0C35.6,16.5,35.5,16.5,35.4,16.5z"/>
		<path fill="#09883A" d="M9.2,17.4c0.1,0,0.3-0.1,0.4,0c-0.1,0.1-0.2,0-0.3,0.1C9.3,17.5,9.3,17.5,9.2,17.4z"/>
		<path fill="#09883A" d="M9.4,17.5c0.1,0,0.3,0.1,0.4-0.1c0,0.1,0,0.1-0.1,0.1C9.6,17.5,9.5,17.6,9.4,17.5z"/>
		<path fill="#DB9496" d="M30.9,19.1c0-0.1,0-0.2,0-0.3c0,0,0,0,0,0C30.9,18.9,30.9,19,30.9,19.1z"/>
		<path fill="#984678" d="M12,22.8c0.1,0,0.2,0,0.2,0C12.1,22.9,12,22.9,12,22.8z"/>
		<path fill="#984678" d="M13.6,23.1c0.1,0,0.2,0,0.2,0C13.7,23.2,13.6,23.2,13.6,23.1z"/>
		<path fill="#984678" d="M13.3,23.1c0.1,0,0.2,0,0.2,0C13.5,23.1,13.4,23.2,13.3,23.1z"/>
		<path fill="#09883A" d="M9,17.4c0.1,0,0.2,0,0.2,0C9.2,17.4,9.1,17.4,9,17.4z"/>
		<path fill="#EF9D9F" d="M31.1,24.8c0.1,0,0.2,0,0.2,0C31.3,24.9,31.2,24.9,31.1,24.8z"/>
		<path fill="#BDB3D4" d="M23.9,25.6c0.1-0.1,0.1,0,0.2,0C24.1,25.6,24,25.6,23.9,25.6z"/>
		<path fill="#FFFFFF" d="M23.9,14.3c0,0.3,0,0.5-0.2,0.7c-0.3,0.4-0.7,0.5-1,0.4c-0.5-0.1-0.8-0.6-0.8-0.9c0-0.3,0-0.7,0.2-1
			c0.3-0.4,0.7-0.5,1.2-0.4c0.4,0.1,0.7,0.5,0.7,1C23.9,14.2,23.9,14.2,23.9,14.3z"/>
		<path fill="#FFFFFF" d="M17,15.5c-0.3,0-0.6-0.1-0.7-0.4c-0.1-0.1-0.1-0.3,0.1-0.4c0.2-0.1,0.2,0,0.3,0.1c0.2,0.2,0.3,0.3,0.6,0.2
			c0.1,0,0.2-0.1,0.2-0.2c0-0.1-0.1-0.2-0.1-0.2c-0.2-0.1-0.4-0.2-0.7-0.2c-0.3-0.1-0.4-0.3-0.4-0.5c0-0.3,0.1-0.5,0.3-0.6
			c0.3-0.2,0.9-0.1,1.1,0.1c0,0,0.1,0.1,0.1,0.1c0.1,0.1,0.1,0.3,0,0.4c-0.1,0.1-0.2,0-0.3-0.1c0,0,0-0.1-0.1-0.1
			c-0.1-0.1-0.3-0.2-0.4-0.1c-0.1,0-0.2,0.1-0.2,0.2c0,0.1,0.1,0.2,0.2,0.2c0.1,0.1,0.3,0.1,0.5,0.1c0.6,0.1,0.6,0.4,0.6,0.8
			C17.8,15.2,17.5,15.5,17,15.5z"/>
		<path fill="#FEFFFF" d="M13.6,14.3c0-0.3,0-0.6,0-0.9c0-0.2,0.1-0.3,0.3-0.3c0.3,0,0.7,0,1,0c0.1,0,0.2,0,0.2,0.2
			c0,0.1-0.1,0.2-0.2,0.2c-0.2,0-0.5,0-0.7,0c-0.2,0-0.2,0.1-0.2,0.2s0,0.2,0.2,0.2c0.2,0,0.4,0,0.6,0c0.2,0,0.2,0.1,0.2,0.2
			c0,0.2-0.1,0.2-0.2,0.2c-0.2,0-0.4,0-0.6,0c-0.1,0-0.1,0-0.2,0.1c0,0.4,0,0.4,0.4,0.4c0.2,0,0.4,0,0.5,0c0.1,0,0.2,0.1,0.2,0.2
			s-0.1,0.2-0.2,0.2c-0.4,0-0.8,0-1.1,0c-0.2,0-0.2-0.1-0.2-0.2C13.6,14.9,13.6,14.6,13.6,14.3z"/>
		<path fill="#FFFFFF" d="M18.9,14.3c0-0.4,0.1-0.8,0.5-1c0.4-0.3,1-0.2,1.3,0.2c0.1,0.1,0.1,0.4,0,0.4c-0.1,0.1-0.3,0-0.4-0.1
			c-0.1-0.2-0.3-0.2-0.4-0.2c-0.2,0-0.3,0.1-0.4,0.3c-0.1,0.3-0.1,0.5,0,0.8c0.1,0.2,0.2,0.3,0.4,0.4c0.2,0,0.4,0,0.5-0.3
			c0.1-0.1,0.2-0.2,0.3-0.1c0.2,0.1,0.1,0.2,0.1,0.4c-0.1,0.3-0.6,0.6-1,0.5C19.1,15.3,18.9,14.9,18.9,14.3z"/>
		<path fill="#FFFFFF" d="M28.2,13.1c0.2,0,0.3,0.1,0.3,0.2c0.2,0.6,0.4,1.2,0.6,1.8c0,0.1,0,0.3-0.1,0.3c-0.1,0-0.3,0-0.3-0.2
			c0-0.3-0.2-0.3-0.4-0.3c-0.1,0-0.1,0-0.2,0c-0.2,0-0.3,0-0.4,0.2c-0.1,0.2-0.2,0.3-0.3,0.2c-0.2-0.1-0.1-0.2-0.1-0.4
			c0.2-0.6,0.4-1.1,0.6-1.7C27.9,13.2,28,13.1,28.2,13.1z"/>
		<path fill="#FEFEFF" d="M25,14.2c0-0.3,0-0.6,0-0.8c0-0.2,0-0.3,0.2-0.3c0.2,0,0.2,0.1,0.2,0.3c0,0.5,0,0.9,0,1.4
			c0,0.2,0.1,0.2,0.2,0.2c0.2,0,0.4,0,0.6,0c0.1,0,0.2,0.1,0.2,0.2c0,0.2-0.1,0.2-0.2,0.2c-0.3,0-0.7,0-1,0c-0.2,0-0.3-0.1-0.3-0.3
			C25,14.8,25,14.5,25,14.2z"/>
		<path fill="#1E85C7" d="M24.9,15.2c0-0.6,0-1.3,0-1.9c0,0,0,0,0,0C24.9,13.9,24.9,14.6,24.9,15.2C24.9,15.2,24.9,15.2,24.9,15.2z"
			/>
		<path fill="#2783C6" d="M13.5,15c0-0.5,0-1,0-1.5c0,0,0,0,0,0C13.6,14,13.6,14.5,13.5,15C13.6,15,13.5,15,13.5,15z"/>
		<path fill="#2281C4" d="M15.1,15.4c-0.5,0-0.9,0-1.4,0c0,0,0,0,0,0C14.2,15.4,14.7,15.4,15.1,15.4C15.1,15.4,15.1,15.4,15.1,15.4z
			"/>
		<path fill="#2281C4" d="M25.1,15.4c0.4,0,0.8,0,1.2,0c0,0,0,0,0,0C25.9,15.4,25.5,15.4,25.1,15.4C25.1,15.4,25.1,15.4,25.1,15.4z"
			/>
		<path fill="#237FC3" d="M20.5,14c0.1,0,0.1,0,0.2,0C20.6,14,20.5,14,20.5,14z"/>
		<path fill="#77BEEA" d="M30.6,12.3c-6.4,0-12.9,0-19.3,0c0.1-0.1,0.2,0,0.2,0c6.3,0,12.6,0,18.9,0C30.5,12.3,30.5,12.3,30.6,12.3
			L30.6,12.3z"/>
		<path fill="#2D2763" d="M11.1,17.5C11.1,17.4,11,17.4,11.1,17.5c0-0.1,0.1-0.1,0.2-0.1c0.9,0,1.9,0,2.8,0c0.1,0,0.2,0,0.2,0.1
			c0,0,0,0,0,0c-0.1,0.1-0.3,0-0.4,0c-0.8,0-1.7,0-2.5,0C11.3,17.5,11.2,17.5,11.1,17.5z"/>
		<path fill="#288ACB" d="M9.5,14.3c0,0.2-0.1,0.5-0.3,0.6C9.1,15,8.9,15,8.7,14.8c-0.3-0.4-0.3-1,0-1.3c0.2-0.2,0.4-0.2,0.6,0
			C9.5,13.7,9.5,13.9,9.5,14.3z"/>
		<path fill="#FFFFFF" d="M27.5,17.5c0.1,0,0.2,0,0.4,0C28,17.6,28,17.8,28,18c0,1.2,0,2.4,0,3.6c0,0.1,0,0.2,0,0.2
			c0,0.2,0.2,0.1,0.3,0.1c0.3-0.1,0.6-0.1,0.9-0.2c0.4-0.1,0.6-0.1,0.7,0.2c0.1,0.3,0,0.6-0.3,0.8c0,0,0,0-0.1,0
			c-0.1,0.1-0.1,0.1-0.2,0.1c-0.5,0.1-1.1,0.2-1.6,0.3c-0.4,0.1-0.6-0.1-0.6-0.5c0-0.4,0-0.8,0-1.1c0-1.1,0-2.2,0-3.3
			c0-0.2,0-0.4,0.1-0.6C27.3,17.6,27.4,17.5,27.5,17.5z"/>
		<path fill="#1F1D19" d="M27.3,17.7c0,0.2-0.1,0.4-0.1,0.6c0,1.3,0,2.6,0,3.9c0,0.2,0,0.4,0,0.6c0,0.3,0.2,0.4,0.5,0.3
			c0.6-0.1,1.3-0.3,1.9-0.4c0,0.2-0.2,0.2-0.3,0.3c-0.6,0.2-1.3,0.3-1.9,0.4c-0.2,0-0.3-0.1-0.4-0.3c-0.1-0.2-0.1-0.4-0.1-0.6
			c0-1.4,0-2.8,0-4.2c0-0.2,0-0.4,0.1-0.5C27.1,17.8,27.1,17.8,27.3,17.7z"/>
		<path fill="#09913F" d="M28.4,22c0,0-0.1,0-0.1,0c-0.2,0.1-0.2,0-0.2-0.2c0.1-0.1,0-0.2,0-0.2c0-1.2,0-2.4,0-3.5
			c0-0.1,0-0.2,0-0.3c0,0.1,0,0.2,0,0.3c0,1.2,0,2.4,0,3.6C28.1,21.9,28.2,22,28.4,22z"/>
		<path fill="#019545" d="M26.9,18.4c0,1.5,0,2.9,0,4.4c0,0,0,0,0,0C26.9,21.3,26.9,19.9,26.9,18.4C26.9,18.4,26.9,18.4,26.9,18.4z"
			/>
		<path fill="#FDFEFE" d="M35.2,14.1c0.8-0.3,1.5,0,2.2,0.1c0.2,0,0.3,0,0.5,0.1v0c0,0,0.1,0,0,0.1c-0.1,0.1-0.2,0.1-0.4,0.1
			c-0.7-0.1-1.5-0.1-2.2-0.2C35.3,14.2,35.2,14.2,35.2,14.1z"/>
		<path fill="#BEDEEE" d="M38,14.3C38,14.3,38,14.3,38,14.3C38,14.2,38,14.2,38,14.3C38.1,14.3,38,14.3,38,14.3z"/>
		<path fill="#2A8ACB" d="M8.5,27.9c0-0.1,0-0.2,0.1-0.3c0-0.1,0.1-0.1,0.2-0.1c0.1,0,0.2,0.1,0.2,0.1C9,27.8,9,28,9,28.2
			c0,0.1-0.1,0.2-0.2,0.2c-0.1,0-0.2-0.1-0.2-0.2C8.5,28.1,8.5,28,8.5,27.9z"/>
		<path fill="#2C8BCB" d="M31,27.9c0,0.1,0,0.2,0,0.3c0,0.1-0.1,0.2-0.2,0.2c-0.1,0-0.2-0.1-0.2-0.2c0-0.2,0-0.4,0-0.5
			c0-0.1,0.1-0.2,0.2-0.2c0.1,0,0.2,0.1,0.2,0.2C31,27.7,31,27.8,31,27.9z"/>
		<path fill="#2F8DCC" d="M31.9,28.1c0,0.2-0.1,0.3-0.2,0.3c-0.1,0-0.1-0.1-0.1-0.2c0-0.2,0.2-0.2,0.3-0.2
			C31.9,28,31.9,28.1,31.9,28.1z"/>
		<path fill="#308DCC" d="M36.6,28.1c0,0.2-0.1,0.3-0.2,0.3c-0.1,0-0.2-0.1-0.1-0.2c0-0.2,0.2-0.2,0.3-0.2
			C36.6,28,36.5,28.1,36.6,28.1z"/>
		<path fill="#308DCC" d="M34.1,27.8c-0.1-0.1-0.2,0.1-0.2-0.1c0-0.1,0-0.2,0.2-0.2c0.2,0,0.2,0.1,0.2,0.2
			C34.3,27.9,34.2,27.7,34.1,27.8z"/>
		<path fill="#308DCC" d="M11.7,28.1c0,0.1-0.1,0.3-0.2,0.3c-0.1,0-0.1-0.1-0.1-0.2c0-0.2,0.2-0.2,0.3-0.2
			C11.7,28,11.7,28.1,11.7,28.1z"/>
		<path fill="#2E8CCB" d="M21,27.8c-0.1-0.1-0.2,0.1-0.2-0.1c0-0.1,0-0.2,0.2-0.2c0.2,0,0.2,0.1,0.2,0.2
			C21.2,27.9,21.1,27.7,21,27.8z"/>
		<path fill="#338FCD" d="M13.5,28.1c0,0.2-0.1,0.3-0.2,0.3c-0.1,0-0.2-0.1-0.2-0.2c0-0.2,0.2-0.2,0.3-0.2
			C13.5,28,13.5,28.1,13.5,28.1z"/>
		<path fill="#2F8DCC" d="M17.6,28c0.1,0.1,0,0.2,0,0.3c0,0.1-0.1,0.1-0.2,0.1c-0.1,0-0.1-0.1-0.1-0.2c0-0.1,0-0.2,0.1-0.2
			C17.5,28,17.5,28,17.6,28z"/>
		<path fill="#2C8CCB" d="M14.5,27.9c0,0.1,0,0.3-0.1,0.4c-0.1,0.1-0.2,0.1-0.3,0c-0.1-0.2-0.1-0.5,0-0.7c0.1-0.2,0.3-0.2,0.4,0
			C14.5,27.7,14.5,27.8,14.5,27.9z"/>
		<path fill="#2C8CCB" d="M26.8,27.9c0,0.2,0,0.3-0.1,0.4c-0.1,0.2-0.2,0.2-0.3,0c-0.1-0.2-0.1-0.5,0-0.7c0-0.1,0.1-0.1,0.2-0.1
			c0.1,0,0.1,0,0.2,0.1C26.8,27.7,26.8,27.8,26.8,27.9z"/>
		<path fill="#2E8CCC" d="M23.9,28.2c0-0.1,0.1,0,0.1-0.1c0-0.1-0.1,0-0.1-0.1c0.1-0.1,0.1,0.1,0.2,0c0.1,0,0.1,0,0.2,0.1
			c0.1,0,0.2,0.1,0.2,0.2c0,0.1-0.1,0.1-0.1,0.2c-0.1,0-0.2,0-0.2-0.1C24.1,28.2,24,28.1,23.9,28.2z"/>
		<path fill="#EDF6FC" d="M19.8,26.8c0.1,0,0.2,0,0.2,0.1c0,0.5,0,1,0,1.4c0,0.1,0,0.2-0.1,0.2c-0.1,0-0.1-0.1-0.1-0.2
			C19.8,27.9,19.8,27.3,19.8,26.8L19.8,26.8z"/>
		<path fill="#FFFFFF" d="M36.9,18.2c-0.2,0.2-0.2,0.4-0.2,0.6c0,0.3,0.3,0.4,0.6,0.5c0.4,0,0.7,0,1.1,0.2c0.3,0.1,0.5,0.3,0.5,0.6
			c0.2,0.9,0.1,1.8-0.7,2.5c-0.1,0.1-0.3,0.2-0.4,0.3c-0.1,0.1-0.2,0.1-0.2,0.1c-0.8,0.3-1.5,0-1.7-0.7c-0.1-0.3-0.1-0.5,0.1-0.7
			c0,0,0.1-0.1,0.1-0.1c0.2-0.2,0.4-0.2,0.5,0c0.1,0.1,0.1,0.2,0.1,0.2c0.2,0.3,0.4,0.4,0.8,0.3c0.1,0,0.2,0,0.3-0.1
			c0-0.1,0.1-0.1,0.1-0.2c0-0.1,0.1-0.1,0.1-0.2c0.2-0.4,0-0.7-0.4-0.8c-0.3-0.1-0.5-0.1-0.8-0.1c-0.7-0.1-0.9-0.3-1-1
			c-0.1-0.5,0-1,0.2-1.4c0.1-0.1,0.1-0.2,0.2-0.2c0.3-0.4,0.7-0.7,1.2-0.8c0.8-0.2,1.4,0.3,1.3,1.1c0,0.2-0.1,0.4-0.3,0.5
			c-0.1,0.1-0.2,0-0.3,0c-0.1-0.1-0.1-0.1-0.2-0.2c-0.3-0.3-0.4-0.4-0.8-0.2C37,18.1,36.9,18.2,36.9,18.2z"/>
		<path fill="#201B19" d="M36.1,18c-0.2,0.5-0.3,1-0.2,1.5c0.1,0.6,0.4,0.8,1,0.9c0.2,0,0.5,0,0.7,0.1c0.6,0.1,0.8,0.6,0.4,1.1
			c-0.1,0-0.1,0,0-0.1c0.2-0.5-0.1-0.7-0.6-0.8c-0.2,0-0.5-0.1-0.7-0.1c-0.5-0.1-0.7-0.3-0.8-0.8C35.5,19.1,35.6,18.5,36.1,18
			C36,17.9,36.1,17.9,36.1,18z"/>
		<path fill="#201C1B" d="M35.9,21.4c-0.1,0.3-0.1,0.5,0,0.8c0.2,0.5,0.7,0.8,1.3,0.7c0.1,0,0.3,0,0.4-0.1c0,0,0.1,0,0.1,0
			c-0.2,0.2-0.5,0.2-0.8,0.3c-0.4,0-0.8-0.1-1.1-0.5c-0.2-0.3-0.3-0.7-0.1-1.1C35.8,21.5,35.8,21.4,35.9,21.4z"/>
		<path fill="#201D1D" d="M36.9,18.2c0.3-0.4,0.8-0.3,1.1,0c0.1,0.1,0.2,0.3,0.4,0.3c-0.1,0.2-0.4,0.3-0.5,0.1
			c-0.1-0.1-0.1-0.1-0.1-0.2c-0.2-0.3-0.3-0.3-0.6-0.2C37,18.2,36.9,18.2,36.9,18.2z"/>
		<path fill="#424B57" d="M36.1,18C36,18,36,17.9,36.1,18c0-0.1,0-0.2,0.1-0.2C36.2,17.8,36.1,17.9,36.1,18z"/>
		<path fill="#2A435C" d="M37.9,21.5C37.9,21.5,37.9,21.5,37.9,21.5c0,0.2,0,0.2-0.1,0.2C37.8,21.6,37.8,21.5,37.9,21.5z"/>
		<path fill="#4A5665" d="M37.6,22.8C37.6,22.8,37.6,22.8,37.6,22.8c0-0.1,0.1-0.1,0.1-0.1C37.8,22.8,37.7,22.8,37.6,22.8z"/>
		<path fill="#FFFFFF" d="M23.5,23.7c0,0.4,0.5,0.6,1,0.3c0.3-0.3,0.4-0.7,0.4-1.1c0-1,0-2,0-3c0-0.1,0-0.3,0.1-0.3
			c0.1-0.1,0-0.2,0.1-0.2c0.1-0.1,0.3-0.2,0.5-0.1c0.2,0.1,0.2,0.2,0.2,0.4c0,0.4,0,0.9,0,1.3c0,0.7,0,1.4,0,2.2c0,0.8-0.3,1.5-1,2
			c-0.4,0.3-0.9,0.4-1.4,0.2c-0.6-0.2-0.8-0.7-0.8-1.2c-0.1-0.6-0.1-1.1,0-1.7c0-0.6,0-1.3,0-1.9c0-0.1,0-0.3,0.1-0.4
			c0.1-0.1,0.1-0.3,0.3-0.3c0.3-0.1,0.4,0,0.5,0.2c0,0.1,0,0.3,0,0.4c0,0.3,0,0.6,0,1c0,0.7,0,1.5,0,2.2
			C23.4,23.6,23.4,23.6,23.5,23.7z"/>
		<path fill="#201B19" d="M22.6,20c0,0.1,0,0.1,0,0.2c0,1.1,0,2.1,0,3.2c0,0.4,0,0.7,0.2,1c0.3,0.7,0.7,0.8,1.4,0.7
			c0.2,0,0.4-0.1,0.6-0.2c0,0.1,0,0.1-0.1,0.1c-0.3,0.2-0.7,0.4-1.1,0.4c-0.5,0-0.9-0.2-1.1-0.8c0-0.1-0.1-0.2-0.1-0.3
			c0-0.1,0-0.2,0-0.2c0-0.1,0-0.1,0-0.2c0-0.5,0-1.1,0-1.6c0-0.6,0-1.2,0-1.8c0-0.2,0.1-0.4,0.2-0.5C22.5,20,22.6,19.9,22.6,20z"/>
		<path fill="#211C19" d="M25,19.6c0,0.1,0,0.2,0,0.2c0,1.1,0,2.1-0.1,3.2c0,0.4,0,0.8-0.4,1c0.3-0.7,0.2-1.3,0.2-2c0-0.7,0-1.3,0-2
			C24.6,19.8,24.7,19.6,25,19.6C25,19.5,24.9,19.5,25,19.6z"/>
		<path fill="#BBB2D0" d="M23.5,23.7c-0.1-0.1,0-0.1,0-0.2c0-1.1,0-2.1,0-3.2c0.1,0.1,0,0.1,0,0.2C23.5,21.6,23.5,22.7,23.5,23.7z"
			/>
		<path fill="#BCB2D5" d="M22.3,22.4c0,0.5,0,1.1,0,1.6c0,0,0,0,0,0c0-0.3,0-0.5,0-0.8C22.2,22.9,22.2,22.6,22.3,22.4z"/>
		<path fill="#BCB2D5" d="M22.2,25.6c0-0.2,0-0.5,0-0.7C22.3,25.1,22.3,25.5,22.2,25.6z"/>
		<path fill="#BCB2D5" d="M22.5,25.7C22.5,25.7,22.5,25.7,22.5,25.7C22.6,25.7,22.6,25.7,22.5,25.7C22.6,25.8,22.6,25.8,22.5,25.7
			C22.5,25.8,22.5,25.7,22.5,25.7z"/>
		<path fill="#BCB2D5" d="M22.3,24.2c0.1,0.1,0,0.2,0,0.2C22.2,24.3,22.3,24.2,22.3,24.2z"/>
		<path fill="#DC2D1A" d="M6.8,23.7c-0.2-0.2-0.4-0.4-0.4-0.6c-0.2-0.9-0.3-1.7-0.5-2.6c0-0.1,0-0.1-0.1-0.2c-0.1-0.3-0.1-0.7-0.2-1
			c0,0,0-0.1,0-0.1c0,0,0-0.1,0-0.1c0,0,0,0.1,0,0.1c0,1.3,0,2.5,0,3.8c-0.1,0.4-0.2,0.5-0.5,0.4c-0.2-0.1-0.4-0.3-0.4-0.5
			c0-0.1,0-0.2,0-0.3c0-1.4,0-2.9,0-4.3c0-0.2,0-0.3,0-0.5c0.1-0.2,0.2-0.3,0.4-0.3c0.2,0,0.5,0,0.7,0.2c0.1,0,0.1,0.1,0.1,0.2
			c0.1,0.1,0.1,0.2,0.2,0.3c0.3,1.2,0.5,2.5,0.7,3.7c0,0,0,0,0,0.1c0,0,0,0,0,0c0,0,0,0,0,0c0-0.1,0-0.2,0.1-0.3
			c0.1,0,0-0.1,0.1-0.2c0.1-0.1,0-0.2,0-0.2c0.1-0.4,0.1-0.8,0.3-1.3c0.1,0,0-0.1,0-0.2c0.1-0.5,0.2-1,0.3-1.4
			C7.9,18.1,8,18,8.3,18.1c0.3,0,0.7,0.1,0.9,0.4c0.1,0.1,0.2,0.3,0.2,0.4c0,1.6,0,3.1,0,4.7c0,0.1,0,0.1,0,0.2
			C9.2,24,9,24.2,8.7,24.1c-0.2-0.1-0.3-0.2-0.3-0.4c-0.1-1,0-1.9,0-2.9c0,0,0,0,0-0.1c0-0.3,0-0.6,0-0.8c0,0,0,0,0,0c0,0,0,0,0,0
			c-0.2,1.1-0.4,2.3-0.7,3.4c0,0.2-0.1,0.4-0.4,0.5C7.1,23.8,7,23.8,6.8,23.7z"/>
		<path fill="#261B14" d="M8.7,24.1c0.4,0,0.5-0.1,0.5-0.5c0-1.5,0-3.1,0-4.6c0-0.2-0.1-0.3-0.1-0.5c0.2,0,0.2,0.1,0.2,0.3
			c0,0.1,0,0.2,0.1,0.3c0.1,0.1,0,0.2,0,0.3c0,1.4,0,2.8,0,4.2c0,0.1,0,0.2,0,0.3c0,0,0,0.1,0,0.1c0,0.2-0.1,0.3-0.2,0.3
			C9,24.3,8.8,24.2,8.7,24.1z"/>
		<path fill="#221B18" d="M7.3,23.7c0.2-0.1,0.3-0.3,0.3-0.5c0.2-1.1,0.5-2.3,0.7-3.4c0.1,0,0.1,0.1,0.1,0.1c0,0.2,0,0.5,0,0.7
			c0,0.1,0,0.2,0,0.3c0,0,0,0.1-0.1,0.1c-0.1,0.7-0.3,1.4-0.4,2c0,0.2-0.1,0.3-0.1,0.5C7.5,24,7.2,24,6.9,23.8
			C7,23.7,7.1,23.8,7.3,23.7z"/>
		<path fill="#251A17" d="M5.7,19.3c0.1,0.3,0.2,0.7,0.2,1c0,0.9,0,1.7,0,2.6c0,0.1,0,0.2,0,0.2c0,0,0,0,0-0.1c0-0.9,0-1.9,0-2.8
			c0,0.9,0,1.8,0,2.6c0,0.1,0,0.2,0,0.2c0,0.2-0.1,0.3-0.2,0.4c-0.2,0.1-0.3,0-0.4-0.2c0.4,0,0.4,0,0.5-0.3c0-0.1,0-0.2,0-0.2
			c0-1.1,0-2.2,0-3.3C5.6,19.4,5.5,19.3,5.7,19.3z"/>
		<path fill="#231A16" d="M6.9,21.9c-0.2-1-0.4-2.1-0.6-3.1c-0.1-0.3-0.1-0.6-0.3-0.9c0.2,0,0.2,0.2,0.3,0.3
			c0.2,0.7,0.3,1.5,0.5,2.2C6.9,20.8,7,21.2,7,21.6C7.1,21.7,7,21.9,6.9,21.9C6.9,22,7,22,6.9,21.9z"/>
		<path fill="#F3E600" d="M4.3,23.2c0-1.9,0-3.9,0-5.8c0.1,0.1,0,0.2,0,0.2c0,1.8,0,3.6,0,5.4C4.3,23,4.3,23.1,4.3,23.2z"/>
		<path fill="#EFE63F" d="M9.4,23.8c0-1.6,0-3.2,0-4.8c0,0,0,0,0,0c0,0.1,0,0.1,0,0.2c0,1.4,0,2.9,0,4.3C9.5,23.6,9.5,23.7,9.4,23.8
			C9.5,23.8,9.4,23.8,9.4,23.8z"/>
		<path fill="#F3E600" d="M4.7,18.1c0,1.5,0,3.1,0,4.6c0,0,0,0,0,0C4.6,21.2,4.6,19.6,4.7,18.1C4.6,18.1,4.7,18.1,4.7,18.1z"/>
		<path fill="#F4E600" d="M9.5,23.8c0-1.6,0-3.1,0-4.7c0.1,0.1,0,0.1,0,0.2c0,1.4,0,2.8,0,4.2C9.5,23.6,9.5,23.7,9.5,23.8z"/>
		<path fill="#14100A" d="M5.8,23.1c-0.1,0,0-0.1,0-0.2c0-0.9,0-1.8,0-2.7c0,0,0-0.1,0-0.1C5.8,21.2,5.8,22.1,5.8,23.1
			C5.8,23.1,5.8,23.1,5.8,23.1z"/>
		<path fill="#D22E18" d="M8.3,20.7c0.1,0,0,0.1,0,0.2c0,0.9,0,1.8,0,2.7c0,0,0,0.1,0,0.1c0-0.1,0-0.1,0-0.2c0-0.1,0-0.2,0-0.2
			c0-0.8,0-1.5,0-2.3C8.3,20.9,8.3,20.8,8.3,20.7z"/>
		<path fill="#DF6E10" d="M8.3,20.7c0,0.9,0,1.9,0,2.8c0,0,0,0,0,0c0-0.2,0-0.3,0-0.5c0-0.7,0-1.4,0-2C8.2,20.9,8.3,20.8,8.3,20.7
			C8.3,20.7,8.3,20.7,8.3,20.7C8.3,20.7,8.3,20.7,8.3,20.7z"/>
		<path fill="#FCEA2A" d="M8.3,20.9c0.1,0.1,0,0.1,0,0.2c0,0.8,0,1.6,0,2.4c-0.1-0.1,0-0.1,0-0.2c0-0.7,0-1.5,0-2.2
			C8.3,21,8.3,21,8.3,20.9z"/>
		<path fill="#6B2413" d="M7.3,23.7c-0.1,0.1-0.3,0-0.4,0c0,0,0,0,0,0C7,23.7,7.1,23.7,7.3,23.7z"/>
		<path fill="#CD3118" d="M7.2,21.2c0,0.1,0.1,0.2,0,0.2C7.1,21.4,7.1,21.3,7.2,21.2z"/>
		<path fill="#CD3018" d="M7.5,19.8c0,0.1,0.1,0.1,0,0.2C7.4,19.9,7.4,19.9,7.5,19.8z"/>
		<path fill="#FFFFFF" d="M17.1,24.6c-0.2-0.1-0.3-0.3-0.3-0.6c0-1.5,0-3,0-4.5c0-0.5,0.2-0.6,0.7-0.5c0.4,0.1,0.8,0.2,1.3,0.3
			c0.7,0.1,1.2,0.4,1.7,0.9c0.1,0.1,0.2,0.3,0.3,0.5c0.1,0.1,0.1,0.2,0.2,0.3c0.1,0.2,0.1,0.4,0.2,0.6c0,0.1,0,0.3,0.1,0.4
			c0,0.1,0,0.3,0,0.4c0,0,0,0.1,0,0.1c0,0.2,0,0.3,0,0.5c0,0,0,0,0,0.1c0,0.1,0,0.3,0,0.4c-0.1,0.3-0.1,0.6-0.3,0.9
			c-0.3,0.5-0.7,0.8-1.3,0.9c-0.4,0.1-0.7,0-1.1-0.1c-0.4-0.1-0.9-0.1-1.3-0.3C17.2,24.7,17.1,24.6,17.1,24.6z"/>
		<path fill="#231C19" d="M21.2,22.9L21.2,22.9L21.2,22.9c0-0.2,0-0.4,0-0.5c0,0,0-0.1,0-0.1c0-0.1,0-0.3,0-0.4
			c0-0.1-0.1-0.2-0.1-0.4c0-0.1-0.1-0.2,0-0.2c0,0.2,0.1,0.4,0.1,0.5c0,0.1,0,0.3,0,0.4c0,0,0,0,0,0c0,0.3,0,0.6,0,0.9
			c0,0.7-0.2,1.3-0.8,1.7c-0.2,0.2-0.5,0.3-0.8,0.3c0,0-0.1,0-0.1,0c-0.1,0-0.2,0-0.2-0.1c0-0.1,0.1-0.1,0.2-0.1c0.1,0,0,0,0,0
			c0.2-0.1,0.4-0.1,0.6-0.2c0.4-0.3,0.6-0.7,0.8-1.2c0-0.1,0.1-0.2,0.1-0.3C21.2,23.1,21.1,23,21.2,22.9z"/>
		<path fill="#231B16" d="M19.7,25c0,0,0.1,0,0.2,0c-0.1,0-0.2,0.1-0.3,0.1c0.1,0.1,0.2,0,0.2,0.1c-0.3,0.1-0.6,0-0.8,0
			c-0.5-0.1-0.9-0.2-1.4-0.3c-0.1,0-0.3-0.1-0.4-0.2c0,0,0-0.1,0.1-0.1c0.6,0.2,1.3,0.3,1.9,0.3C19.3,25,19.5,25,19.7,25z"/>
		<path fill="#E47612" d="M16.7,23.8c0-1.4,0-2.8,0-4.2c0,0,0,0,0,0C16.7,21,16.7,22.4,16.7,23.8C16.7,23.8,16.7,23.8,16.7,23.8z"/>
		<path fill="#281E18" d="M21.1,21.2c-0.1,0.1,0,0.1,0,0.2C21,21.2,21,21,20.9,20.8c0,0,0,0,0,0C21,20.9,21.1,21.1,21.1,21.2z"/>
		<path fill="#281E18" d="M21.3,23.2c0-0.3,0-0.6,0-0.9C21.4,22.6,21.4,22.9,21.3,23.2z"/>
		<path fill="#48352A" d="M20.9,20.8C20.9,20.8,20.9,20.8,20.9,20.8c-0.1,0-0.1-0.2-0.2-0.3C20.9,20.6,20.9,20.7,20.9,20.8z"/>
		<path fill="#281E18" d="M21.3,22.2c-0.1-0.1,0-0.3,0-0.4C21.3,21.9,21.3,22.1,21.3,22.2z"/>
		<path fill="#653F1F" d="M17.2,24.6C17.2,24.7,17.2,24.7,17.2,24.6c-0.1,0-0.2,0-0.2-0.1C17.1,24.6,17.2,24.6,17.2,24.6z"/>
		<path fill="#FFFFFF" d="M34.5,22.4c0,0.1,0,0.1,0,0.2c0,0.2,0,0.4-0.1,0.5c-0.1,0.2-0.2,0.5-0.4,0.7c-0.3,0.2-0.6,0.4-0.9,0.5
			c-0.1,0-0.2,0-0.3,0c0,0-0.1,0-0.1,0c-0.8,0-1.3-0.6-1.3-1.4c0-1,0-2,0-2.9c0-0.2,0-0.4,0-0.7c0-0.2,0.1-0.4,0.2-0.5
			c0.5-0.3,0.7-0.1,0.7,0.4c0,0.7,0,1.5,0,2.2c0,0.3,0,0.7,0,1c0,0.4,0.2,0.6,0.4,0.7c0.1,0,0.2,0,0.3,0c0.1,0,0.1-0.1,0.2-0.1
			c0.4-0.3,0.4-0.8,0.5-1.2c0-0.4,0-0.9,0-1.3c0-0.6,0-1.2,0.1-1.7c0-0.1,0-0.3,0.1-0.4c0.1-0.1,0.2-0.1,0.3-0.2
			c0.2,0,0.4,0,0.4,0.2c0,0.1,0.1,0.3,0,0.4c0,0.6,0,1.2,0,1.8c0,0.1,0.1,0.1,0.1,0.2c0,0.4,0,0.8,0,1.2
			C34.5,22.1,34.6,22.3,34.5,22.4z"/>
		<path fill="#211B19" d="M31.5,18.8c-0.1,0.2-0.2,0.4-0.2,0.6c0,1,0,2,0,3c0,0.4,0,0.8,0.2,1.1c0.2,0.4,0.6,0.6,1,0.6
			c0,0,0.1,0,0.1,0c0,0,0,0,0,0.1c0,0-0.1,0-0.1,0c-0.2,0-0.3,0-0.5,0l0,0c-0.1-0.1-0.1,0-0.2,0c-0.1,0-0.1-0.1-0.2-0.1
			c-0.3-0.1-0.4-0.3-0.4-0.6c-0.1-0.1-0.1-0.3-0.1-0.4c0-0.1,0-0.2,0-0.3c0-0.5,0-0.9,0-1.4c0-0.5,0-1.1,0-1.6c0-0.1,0-0.2,0-0.3
			c0-0.1,0-0.2,0-0.2C31.1,19.1,31.2,19,31.5,18.8z"/>
		<path fill="#221C1A" d="M33.8,18.4c-0.1,0.2-0.1,0.4-0.1,0.6c0,1,0,2,0,3c0,0.3,0,0.7-0.3,1c-0.1,0.1-0.1,0.2-0.3,0.2c0,0,0,0,0,0
			c0,0,0,0,0,0c0.2-0.4,0.3-0.8,0.3-1.2c0-1,0-2,0-3C33.4,18.6,33.5,18.5,33.8,18.4z"/>
		<path fill="#EF9D9F" d="M33,24.2c0.8-0.3,1.3-0.9,1.4-1.7c0.1,0.2,0.1,0.3,0,0.5c-0.1,0.1-0.2,0.3-0.2,0.4c0.1,0,0.1-0.1,0.1-0.1
			c0,0,0.1,0,0.1,0c-0.1,0.1,0.1,0.3-0.1,0.4c0-0.1,0-0.1-0.1-0.2c0,0.1-0.1,0.2-0.1,0.3c0,0.1,0.1,0.1,0.2,0.1
			c0.2-0.1,0.3,0,0.4,0.2c-0.2-0.1-0.3-0.1-0.4,0c-0.1,0.1-0.2,0-0.3-0.1c-0.1,0,0.1-0.1,0-0.2c-0.1,0.1-0.2,0.1-0.3,0.2
			c-0.1,0.2-0.3,0.1-0.4,0.1c-0.2,0-0.3,0.1-0.5,0.1c0,0-0.1,0-0.1,0c0.1-0.1,0.2,0,0.2-0.1C32.9,24.3,32.9,24.3,33,24.2
			C32.9,24.3,32.9,24.3,33,24.2C32.9,24.2,33,24.3,33,24.2z"/>
		<path fill="#EF9E9E" d="M35,18c0,1.9,0,3.8,0,5.7c0,0,0,0,0,0c-0.1-0.1-0.1-0.2,0-0.3c0-0.3,0-0.5,0-0.8c-0.1-0.1,0-0.3-0.1-0.4
			c0-0.2,0-0.3,0-0.5c0,0,0-0.1,0-0.1c0-0.2,0-0.4,0-0.6c0-0.1,0-0.2,0-0.3c0-0.1,0-0.2,0-0.3c0-0.1,0-0.2,0.1-0.3
			c0-0.6,0-1.3,0-1.9C34.9,18.2,34.8,18.1,35,18z"/>
		<path fill="#EF9D9F" d="M34.9,22.2c0,0.1,0,0.3,0,0.4c-0.1,0-0.1,0-0.1,0.1c0,0.1-0.1,0.1-0.1,0c-0.1,0,0-0.1,0-0.1
			c0.1-0.1,0.1-0.2,0.1-0.3c-0.1,0.1-0.2,0-0.3,0.1c0,0,0-0.1,0-0.1c0-0.1,0-0.2,0-0.3c0.1-0.1,0-0.2,0-0.3c0.1-0.1,0-0.2,0-0.3
			c0-0.3,0-0.6,0-0.9c0-0.2,0-0.3,0-0.5c0,0,0,0,0,0c0,0,0.1,0,0.1,0c0,0,0,0,0,0c0,0,0.1,0,0.1,0c0,0.1,0,0.2,0,0.3
			c-0.2,0-0.2,0-0.1,0.3c0,0,0,0.1,0,0.1c0,0,0,0,0-0.1c0,0,0.1,0,0.1,0c0,0.1,0,0.2,0,0.3c-0.1,0.2-0.1,0.4,0,0.6c0,0,0,0,0,0
			c-0.1,0.1,0,0.3-0.2,0.4C34.8,22.1,34.8,22.1,34.9,22.2z"/>
		<path fill="#EF9D9F" d="M31.2,23.6c0.1,0.2,0.2,0.5,0.4,0.6c-0.1,0.2-0.3,0-0.4,0c0.1,0.1,0.2,0.1,0.1,0.2
			c-0.1,0.1-0.2,0.1-0.3,0.1c-0.1,0,0-0.1,0-0.1c0.1-0.1,0.1-0.2,0.1-0.4C31.1,23.9,31.1,23.7,31.2,23.6z"/>
		<path fill="#DB9496" d="M30.9,23.2c0-0.1,0-0.2,0-0.4c0-1,0-1.9,0-2.8c0-0.1,0-0.2,0-0.2C30.9,20.9,30.9,22,30.9,23.2z"/>
		<path fill="#DB9496" d="M31.1,19.6c0,0.6,0,1.2,0,1.9C31,20.9,31,20.3,31.1,19.6C31,19.7,31.1,19.7,31.1,19.6z"/>
		<path fill="#E59B9E" d="M34.6,20.6c0,0.3,0,0.6,0,1c0.1,0.1,0.1,0.1,0,0.2c0,0.1,0,0.2,0,0.3c0,0,0,0,0,0s0,0,0,0
			C34.5,21.6,34.5,21.1,34.6,20.6C34.6,20.6,34.6,20.6,34.6,20.6z"/>
		<path fill="#E9999B" d="M32.3,19.1c0,0.3,0,0.6,0,0.9c0,0,0,0,0,0C32.3,19.7,32.3,19.4,32.3,19.1C32.3,19.1,32.3,19.1,32.3,19.1z"
			/>
		<path fill="#EF9D9F" d="M34.9,23.4c0,0.1,0,0.2,0,0.3c0,0.1,0,0.2-0.1,0.1c-0.1,0-0.1-0.1,0-0.2C34.9,23.6,34.7,23.5,34.9,23.4z"
			/>
		<path fill="#EF9D9F" d="M31.1,24.7c0-0.1,0.1-0.2,0.2-0.1c0,0,0.1,0,0.1,0.1C31.3,24.8,31.2,24.6,31.1,24.7z"/>
		<path fill="#EF9D9F" d="M31.8,24.6c0-0.1-0.2-0.1-0.2-0.2c0,0,0,0,0.1,0C31.8,24.4,31.9,24.5,31.8,24.6z"/>
		<path fill="#EF9E9E" d="M34.6,20.1L34.6,20.1L34.6,20.1c0-0.2,0-0.3,0-0.5c0,0,0,0,0,0C34.6,19.8,34.6,20,34.6,20.1z"/>
		<path fill="#EF9D9F" d="M32,24.4c0.2,0,0.3,0,0.5,0C32.4,24.5,32.2,24.4,32,24.4L32,24.4C32,24.4,32,24.4,32,24.4z"/>
		<path fill="#2A1E1E" d="M32.6,24.4C32.6,24.3,32.6,24.3,32.6,24.4C32.6,24.3,32.7,24.3,32.6,24.4c0.1-0.1,0.2-0.2,0.3-0.1
			C32.8,24.3,32.7,24.4,32.6,24.4z"/>
		<path fill="#DB9496" d="M30.9,19.6c0-0.2,0-0.3,0-0.5C30.9,19.3,30.9,19.5,30.9,19.6z"/>
		<path fill="#866160" d="M32.9,24.3c-0.1-0.1-0.1,0-0.2,0c0.1-0.1,0.2,0,0.3,0C33,24.3,33,24.3,32.9,24.3
			C32.9,24.3,32.9,24.3,32.9,24.3z"/>
		<path fill="#DB9496" d="M31,22.9c0.1,0.1,0,0.2,0,0.3C31,23.1,31,23,31,22.9z"/>
		<path fill="#EF9E9E" d="M34.7,18.5C34.7,18.6,34.7,18.6,34.7,18.5C34.6,18.6,34.6,18.6,34.7,18.5C34.6,18.5,34.6,18.5,34.7,18.5
			C34.7,18.5,34.7,18.5,34.7,18.5z"/>
		<path fill="#EF9E9E" d="M34.8,18.7c0,0.1,0,0.1,0,0.2C34.7,18.9,34.7,18.8,34.8,18.7z"/>
		<path fill="#EF9D9F" d="M32.3,24.5c0.1,0,0.1,0,0.2,0.1C32.4,24.6,32.3,24.5,32.3,24.5z"/>
		<path fill="#674B4A" d="M33.1,23.1C33.1,23.1,33.1,23.1,33.1,23.1c0,0.1-0.1,0.1-0.1,0.1C33,23.1,33.1,23.1,33.1,23.1z"/>
		<path fill="#EF9E9E" d="M34.8,20.2C34.7,20.2,34.8,20.1,34.8,20.2c0-0.1,0-0.1,0-0.1c0,0,0,0,0,0C34.8,20.1,34.8,20.1,34.8,20.2z"
			/>
		<path fill="#EF9D9F" d="M32,24.4C32,24.5,32,24.5,32,24.4C31.9,24.5,31.9,24.5,32,24.4C31.9,24.4,32,24.4,32,24.4L32,24.4z"/>
		<path fill="#EF9D9F" d="M31.8,24.4c0.1,0,0.2,0,0.2,0C32,24.4,31.9,24.4,31.8,24.4z"/>
		<path fill="#7EC7EF" d="M22.3,17.5C22.3,17.5,22.3,17.5,22.3,17.5c0,0.1-0.1,0-0.2,0c-1.2,0-2.3,0-3.5,0c-0.1,0-0.1,0-0.2,0l0,0
			c0.1,0,0.3,0,0.4,0c1,0,2,0,3,0C22,17.4,22.1,17.5,22.3,17.5z"/>
		<path fill="#FFFFFF" d="M11.1,17.5c1,0,2,0,3,0c0.1,0,0.1,0,0.2,0.1c0,0.1,0.1,0.1,0.1,0.2c0.3,0.3,0.5,0.6,0.6,1
			c0.2,0.5,0.3,1,0.2,1.5c0,0.2,0,0.4,0,0.6c0,0,0,0,0,0.1c0,0.3-0.1,0.6-0.2,0.9c-0.3,0.6-0.7,1.1-1.3,1.2c-0.2,0-0.5,0-0.7,0
			c-0.1,0-0.2,0-0.3-0.1c-0.1,0-0.1,0-0.2-0.1c-0.7-0.3-1.3-0.9-1.5-1.6c-0.4-1-0.4-2-0.1-3C10.8,17.8,10.9,17.6,11.1,17.5z"/>
		<path fill="#211A19" d="M13.7,22.8c0.8-0.2,1.2-0.8,1.4-1.6c0-0.2,0.1-0.3,0.1-0.5c0,0,0,0.1,0,0.1c0-0.2,0-0.5,0-0.7
			c0-0.2,0.1-0.4,0.1-0.6c0.1,0.9,0.1,1.8-0.4,2.6c-0.2,0.4-0.6,0.6-1,0.7c-0.3,0-0.6,0-0.9,0l0,0c0,0,0,0,0-0.1
			C13.3,22.9,13.5,22.9,13.7,22.8C13.7,22.9,13.7,22.9,13.7,22.8z"/>
		<path fill="#211A19" d="M15.2,20.8c0-0.7,0-1.4-0.2-2.1c-0.1-0.4-0.3-0.7-0.5-1c0.2,0,0.2,0.1,0.3,0.2c0.4,0.5,0.6,1.1,0.7,1.7
			c-0.1,0.3-0.1,0.7-0.1,1C15.3,20.7,15.3,20.7,15.2,20.8z"/>
		<path fill="#1B1817" d="M15.2,20.8c0.1-0.2,0-0.4,0-0.6c0-0.2,0-0.4,0.1-0.5c0,0,0,0,0,0c-0.1,0.5-0.1,1-0.2,1.4
			C15.2,21,15.2,20.9,15.2,20.8C15.2,20.8,15.2,20.8,15.2,20.8z"/>
		<path fill="#984678" d="M13.1,23c0.3,0,0.6,0,0.9,0C13.7,23.1,13.4,23,13.1,23C13.1,23,13.1,23,13.1,23z"/>
		<path fill="#9C447C" d="M10.3,17.7c0,1.5,0,3,0,4.5c0,0,0,0,0,0C10.3,20.6,10.3,19.2,10.3,17.7C10.3,17.7,10.3,17.7,10.3,17.7z"/>
		<path fill="#3D2330" d="M13.7,22.8C13.7,22.9,13.7,22.9,13.7,22.8c-0.3,0.1-0.5,0-0.8,0.1c0,0,0,0-0.1,0c0,0-0.1,0-0.1-0.1
			c0-0.1,0.1-0.1,0.2,0C13.2,22.9,13.5,22.9,13.7,22.8z"/>
		<path fill="#633E53" d="M12.9,22.8c-0.1,0-0.1,0-0.2,0c-0.1,0-0.1,0-0.2,0c0,0,0-0.1,0-0.1C12.7,22.8,12.8,22.8,12.9,22.8z"/>
		<path fill="#462337" d="M12.6,22.8C12.6,22.8,12.6,22.8,12.6,22.8c-0.1,0-0.2,0-0.2,0C12.5,22.7,12.6,22.7,12.6,22.8z"/>
		<path fill="#984678" d="M12.9,22.9C12.9,22.9,12.9,22.9,12.9,22.9c0.1,0,0.2,0,0.2,0c0,0,0,0,0,0C13,23,12.9,23,12.9,22.9z"/>
		<path fill="#729FD4" d="M22.3,17.5c-1.3,0-2.6,0-3.9,0c0,0,0,0,0,0c0,0,0.1,0,0.1,0c0.2,0,0.4,0,0.5,0c0.9,0,1.9,0,2.8,0
			c0.1,0,0.2,0,0.2,0C22.2,17.4,22.2,17.4,22.3,17.5z"/>
		<path fill="#2E2B70" d="M22.1,17.4c-1.2,0-2.4,0-3.6,0c0.1-0.1,0.1,0,0.2,0c1.1,0,2.1,0,3.2,0C22,17.4,22.1,17.4,22.1,17.4z"/>
		<path fill="#288ACB" d="M23.4,14.2c0,0.2,0,0.4-0.1,0.5c-0.1,0.2-0.2,0.3-0.4,0.3c-0.3,0-0.4-0.1-0.5-0.3c-0.1-0.3-0.1-0.6,0-0.9
			c0.1-0.2,0.2-0.2,0.4-0.2c0.2,0,0.3,0.1,0.4,0.2C23.4,13.9,23.4,14.1,23.4,14.2z"/>
		<path fill="#2D8CCC" d="M28.2,13.7c0.1,0.3,0.2,0.5,0.2,0.8c0,0.1,0,0.1-0.1,0.1c-0.1,0-0.3,0-0.4,0s0-0.2,0.1-0.3
			C28.1,14.1,28.1,13.9,28.2,13.7z"/>
		<path fill="#7F1811" d="M5.7,19.3c-0.1,0.1,0,0.2,0,0.3c0,1.1,0,2.1,0,3.2c0,0.1,0,0.2,0,0.3c0-1.3,0-2.6,0-3.9c0,0,0.1,0,0.1,0
			C5.7,19.2,5.7,19.3,5.7,19.3z"/>
		<path fill="#9D2116" d="M8.3,20.7C8.3,20.7,8.3,20.7,8.3,20.7c0-0.2,0-0.5,0-0.7c0-0.1,0-0.1,0-0.2c0-0.1,0-0.1,0.1-0.2
			C8.3,20,8.3,20.3,8.3,20.7z"/>
		<path fill="#CE2C19" d="M5.7,19.2C5.6,19.2,5.6,19.2,5.7,19.2c-0.1-0.1-0.1-0.1-0.1-0.2C5.7,19,5.7,19.1,5.7,19.2z"/>
		<path fill="#651C13" d="M6.9,21.9C6.9,22,7,22,6.9,21.9C7,22,7,22.1,7,22.1C6.9,22.1,6.9,22,6.9,21.9z"/>
		<path fill="#E97C17" d="M20,22.6c0,0.3,0,0.5-0.1,0.8c-0.2,0.4-0.5,0.6-1,0.5c-0.3,0-0.6-0.1-0.9-0.2C18,23.7,18,23.6,18,23.5
			c0-1,0-2,0-3c0-0.1,0-0.2,0.1-0.2c0,0,0,0,0,0.1c0,1.1,0,2.1,0,3.2c0,0,0,0,0,0.1c0,0,0,0,0,0c0-1,0-2,0-3c0-0.3,0-0.3,0.3-0.2
			c0.1,0,0.2,0,0.2,0c0.3,0,0.5,0.1,0.8,0.2c0.1,0.1,0.2,0.1,0.3,0.2c0.3,0.4,0.4,0.8,0.4,1.3C20,22.2,20,22.4,20,22.6z"/>
		<path fill="#2F2117" d="M18.1,20.3c-0.1,0,0,0.1,0,0.2c0,1.1,0,2.2,0,3.3c-0.2,0-0.2-0.1-0.2-0.2c0-1.1,0-2.2,0-3.3
			c0-0.1,0-0.2,0.2-0.2c0.3,0.1,0.7,0.2,1,0.2c0.1,0,0.3,0.1,0.4,0.2c0,0,0,0.1,0,0c-0.2-0.1-0.5-0.2-0.7-0.2
			C18.4,20.4,18.3,20.3,18.1,20.3z"/>
		<path fill="#E5740D" d="M20,22.6c-0.1-0.2-0.1-0.4,0-0.7C20.1,22.2,20.1,22.4,20,22.6z"/>
		<path fill="#543E2C" d="M19.4,20.6C19.4,20.5,19.4,20.5,19.4,20.6c0.1,0,0.2,0,0.3,0.2C19.5,20.7,19.4,20.6,19.4,20.6z"/>
		<path fill="#281E18" d="M21.2,22.3c0.1,0.2,0.1,0.3,0,0.5C21.2,22.7,21.2,22.5,21.2,22.3z"/>
		<path fill="#281E18" d="M21.2,22.9c0,0.1,0,0.3,0,0.4C21.2,23.1,21.2,23,21.2,22.9z"/>
		<path fill="#281E18" d="M21.1,21.8c0.1,0.1,0,0.3,0,0.4C21.2,22.1,21.2,21.9,21.1,21.8z"/>
		<path fill="#EF9D9F" d="M34.9,22.2c-0.1-0.1-0.2,0.1-0.3,0c0-0.1,0.3-0.2,0.1-0.4c0,0,0.1-0.1,0.1-0.1
			C34.9,21.9,34.9,22,34.9,22.2z"/>
		<path fill="#EF9D9F" d="M34.9,21.7c-0.2-0.2-0.2-0.4,0-0.6C34.9,21.3,34.9,21.5,34.9,21.7z"/>
		<path fill="#EF9D9F" d="M34.9,20.8C34.8,20.8,34.8,20.8,34.9,20.8c-0.1-0.1-0.1-0.1-0.1-0.1c0,0,0,0.1,0,0.1c-0.2-0.1,0-0.3,0-0.5
			c0.1,0,0,0.2,0.2,0.2C34.9,20.5,34.9,20.7,34.9,20.8z"/>
		<path fill="#EF9E9E" d="M34.7,21.2c-0.1-0.1-0.1-0.2,0-0.3C34.7,21,34.7,21.1,34.7,21.2z"/>
		<path fill="#EF9E9E" d="M34.6,21.8c0-0.1,0-0.1,0-0.2C34.7,21.7,34.7,21.7,34.6,21.8z"/>
		<path fill="#EF9E9E" d="M34.7,20.7c0,0,0-0.1,0-0.1c0,0,0,0,0,0C34.8,20.7,34.8,20.7,34.7,20.7C34.8,20.8,34.8,20.8,34.7,20.7
			C34.8,20.8,34.8,20.8,34.7,20.7z"/>
		<path fill="#994579" d="M13.2,18c0.7,0.3,0.8,0.9,0.9,1.6c0,0.3,0,0.6,0,0.9c0,0.4-0.1,0.7-0.4,1c-0.2,0.3-0.6,0.3-0.9,0.3
			c-0.1,0-0.2-0.1-0.3-0.1c0-0.1-0.1-0.1-0.2-0.1c0,0-0.1-0.1-0.1-0.1c-0.3-0.3-0.4-0.7-0.5-1.1c-0.1-0.5-0.1-0.9,0-1.4
			C12,18.2,12.4,17.8,13.2,18z"/>
		<path fill="#211A19" d="M13.2,18c-0.1,0.1-0.2,0-0.3,0c-0.4,0-0.7,0.2-0.9,0.6c-0.2,0.5-0.2,1-0.2,1.6c0,0.4,0.2,0.9,0.4,1.2
			c0,0,0,0.1,0,0.1c-0.3-0.2-0.4-0.5-0.5-0.8c-0.2-0.6-0.2-1.3-0.1-2c0-0.2,0.2-0.4,0.3-0.6C12.3,17.7,12.9,17.8,13.2,18z"/>
		<path fill="#934373" d="M14.2,20.5c-0.1-0.3-0.1-0.6,0-0.9C14.2,19.9,14.2,20.2,14.2,20.5z"/>
		<path fill="#8A5E78" d="M12.4,21.5c0.1,0,0.1,0,0.2,0.1C12.5,21.6,12.4,21.6,12.4,21.5z"/>
		<path fill="#120D0C" d="M13.1,22.9c-0.1,0-0.1,0-0.2,0c0.3-0.1,0.5,0,0.8,0C13.5,23,13.3,22.9,13.1,22.9z"/>
		<path fill="#EC7F18" d="M18.1,20.3c0.2,0,0.4,0.1,0.6,0.1c-0.1,0.1-0.2,0.1-0.3,0c-0.2-0.1-0.2,0-0.2,0.2c0,0.9,0,1.9,0,2.8
			c0,0.1,0,0.1,0,0.2c0,0,0,0,0,0C18.1,22.5,18.1,21.4,18.1,20.3z"/>
	</g>
</g>
</svg>
