<?xml version="1.0" encoding="utf-8"?>
<!-- Generator: Adobe Illustrator 18.0.0, SVG Export Plug-In . SVG Version: 6.00 Build 0)  -->
<!DOCTYPE svg PUBLIC "-//W3C//DTD SVG 1.1//EN" "http://www.w3.org/Graphics/SVG/1.1/DTD/svg11.dtd">
<svg version="1.1" id="Capa_1" xmlns="http://www.w3.org/2000/svg" xmlns:xlink="http://www.w3.org/1999/xlink" x="0px" y="0px"
	 viewBox="0 0 44 44" enable-background="new 0 0 44 44" xml:space="preserve">
<g>
	<g>
		<g>
			<path fill="#1F7C97" d="M38.4,20.2H5.7c-1,0-1.8,0.8-1.8,1.8s0.8,1.8,1.8,1.8h32.5c1,0,1.8-0.8,1.8-1.8S39.3,20.2,38.4,20.2z"/>
			<path fill="#1F7C97" d="M5.7,13h32.5c1,0,1.8-0.8,1.8-1.8s-0.8-1.8-1.8-1.8H5.7c-1,0-1.8,0.8-1.8,1.8S4.7,13,5.7,13z"/>
			<path fill="#1F7C97" d="M38.4,31H5.7c-1,0-1.8,0.8-1.8,1.8c0,1,0.8,1.8,1.8,1.8h32.5c1,0,1.8-0.8,1.8-1.8
				C40.1,31.9,39.3,31,38.4,31z"/>
		</g>
	</g>
</g>
</svg>
