<?xml version="1.0" encoding="utf-8"?>
<!-- Generator: Adobe Illustrator 18.0.0, SVG Export Plug-In . SVG Version: 6.00 Build 0)  -->
<!DOCTYPE svg PUBLIC "-//W3C//DTD SVG 1.1//EN" "http://www.w3.org/Graphics/SVG/1.1/DTD/svg11.dtd">
<svg version="1.1" id="Camada_1" xmlns="http://www.w3.org/2000/svg" xmlns:xlink="http://www.w3.org/1999/xlink" x="0px" y="0px"
	 viewBox="0 0 318 29.5" enable-background="new 0 0 318 29.5" xml:space="preserve">
<g opacity="0.44">
	<g>
		<path fill="#FFFFFF" d="M107,1c69.3,0,138.6,0,208-0.1c3.4,0,4.3,0.7,4.1,4.1c-0.3,7.5-0.3,15,0,22.5c0.1,3-0.6,3.6-3.6,3.6
			c-41.7-0.1-83.3-0.1-125-0.1C129.3,31,68.2,30.9,7,31.1c-5.1,0-7.1-1-6-6.1c0.3-0.3,0.7-0.6,1.1-0.8c2.5-0.6,4.9-1.1,7.4-1.8
			c0.4-0.1,0.9-0.2,1.3-0.2c2,0.4,2.9-1.3,4.4-2c0.9-0.3,1.7-0.3,2.6-0.4c1.8,0,3.4-0.7,4.9-1.5c2.2-1.5,5.2-1,7.4-2.7
			c0.3-0.3,0.7-0.5,1.1-0.8c0.4-0.2,0.8-0.4,1.2-0.5c1.5-0.3,3,0.2,4.4-0.5c1.5,0,2.9-0.1,4.4-0.1c1.7-0.1,3.2-1.2,4.8-1.5
			c0.9-0.1,1.7-0.1,2.5,0.1c1.5,0.7,2.7-0.3,3.9-0.9c1.9-0.6,4-0.5,6-1.2c0.4-0.1,0.9-0.2,1.4-0.2c1.5-0.1,3.1,0,4.6-0.6
			c1.3-0.4,2.3-1.3,3.6-1.7c0.5-0.1,0.9-0.1,1.4-0.1C74.2,8,79,7.9,83.6,6.3c0.9-0.4,1.7-0.7,2.6-1C87.1,5,88,4.8,89,4.8
			c1.4,0,2.8-0.1,4.2,0.4c0.4,0.2,0.8,0.5,1.1,0.8c0.1,0.5,0,0.9-0.2,1.3c-1.2,0.9-2.7,1.2-4,1.9c-0.4,0.2-0.7,0.4-1.1,0.6
			c-0.8,0.4-1.6,0.7-2.4,0.9c-1.9-0.1-3.6,0.3-4.7,2c-0.5,0.5-1,0.9-1.7,1.2c-1.3,0.6-2.6,1-4,1.1c-1.8,0.4-4.2-1.8-5.3,1.3
			c-2,1.6-4.6,2.4-6.5,4.1c-1.4,1-3.2,1.5-4.7,2.3c-0.9,0.5-1.9,1-2.9,1.4c-0.9,0.4-1.7,1-2.1,2c0,0.6,0.3,1,0.8,1.4
			c1.5,0.5,2.9,0.3,4.4,0c2.4-0.7,4.6-2,7.1-2.5c1.7-0.3,3.6-0.3,5.1-1.4c3.1-0.5,6.2-1,9.1-2.5c0.6-0.4,1.1-0.6,1.8-0.8
			c1.4-0.1,2.9,0.5,4.3-0.1c0.4-0.1,0.8-0.2,1.3-0.3c1.9-0.1,3.3-1,4.5-2.4c0.4-0.2,0.8-0.4,1.3-0.5c1.5-0.3,3.1-0.2,4.7-0.8
			c0.6-0.2,1.3-0.3,2-0.4c0.4-0.1,0.9-0.1,1.3-0.1c2-0.1,3.8-0.7,5.6-1.5c1-0.4,2-0.9,3.2-1c0.5,0,0.9,0.1,1.4,0.2
			c1.3,0.6,2.5,1.3,2.3,3.1c-0.2,0.4-0.5,0.8-0.9,1c-1.2,0.8-3.7-1.3-3.9,1.8c0,0.4-0.1,0.8-0.3,1.2c-0.5,1.3-1.4,2.5-0.4,3.9
			c1,1.2,2.4,1.3,3.8,1.4c1.2,0,2.5,0,3.6-0.5c0.4-0.2,0.8-0.3,1.2-0.5c4.6,0.5,8.9-1.5,13.3-2.1c1.1-0.2,2-0.9,3-1.2
			c0.4-0.1,0.9-0.1,1.3-0.1c1.9,0.4,3.8,0.5,5.7-0.3c0.4-0.2,0.9-0.3,1.3-0.4c3.3-0.6,6.8-2.7,9.9,0.8c0.9,1.8,2.2,3,4.3,2.4
			c2.2-0.6,4.1,0.5,6.2,0.7c1.2,0.1,2.4,0.1,3.6,0c1,0,2,0,2.9,0c1.8,0,3.5,0,5.2-0.6c3.5-0.4,7.1-0.5,10.6-1.5
			c3.7,1.7,7.4,0,11.1,0.1c2,0,4,0.7,5.9-0.5c2.1-0.6,4.4-0.5,6.5-1.1c0.5-0.1,0.9-0.2,1.4-0.2c1.6-0.1,3.1,0,4.7-0.4
			c0.4-0.1,0.9-0.1,1.3-0.1c0.8,0.1,1.7,0.3,2.6,0.2c2,0,3.9,0,5.7-1.1c1.9-0.3,3.8-0.1,5.8-0.2c1.8,0.2,3.2-1.3,5-1.1
			c1.4,0.2,2.9,0.3,4.3-0.1c1-0.2,2.1-0.5,3.1-0.8c0.9-0.2,1.8-0.2,2.6,0c1.5,0.4,3,0.8,4.5,0.1c0.4-0.2,0.8-0.4,1.2-0.5
			c2.9-0.1,5.8,0.3,8.6-0.5c0.5-0.1,0.9-0.1,1.4-0.1c3.9-0.5,8,0.7,11.6-1.7c0.5-0.2,1-0.2,1.5-0.2c4.8,1.4,9.4-0.4,14-1.1
			c4.3,1.2,8.6,0,12.8-0.4c0.5-0.1,0.9-0.1,1.4-0.1c1.9-0.6,3.9,0.1,6.2-0.5c-1.9,0.3-3.6-0.2-5.2,0.1c-1.5,0.2-2.9,0.1-4.4,0.2
			c-0.5,0-1,0-1.5,0c-1.5,0-3.1,0-4.6,0.1c-4.9,0.2-9.7,0.5-14.6,0.9c-2.3,0.2-4.8-0.7-6.8,1.1c-0.8,0.6-1.6,1.1-2.6,1.2
			c-0.5,0-1-0.1-1.4-0.2c-3.4-1.6-6.9-1.7-10.5-0.5c-0.9,0.6-1.8,1.4-3,1.3c-1.3-0.7-2.6-1.3-4.2-1c-3.1,1.7-6.6,0.8-9.8,1.7
			c-0.5,0.1-0.9,0.1-1.4,0.1c-1,0-1.9,0-2.9,0.1c-1.2,0-2.5,0-3.7,0.3c-3.5,1.3-7.2,0.3-10.7,1.3c-0.5,0.1-1,0.2-1.5,0.3
			c-2.2,0.3-4.6,0-6.8,0.7c-1,0.2-1.9,0.4-2.9,0.4c-2.9,0.1-6-0.6-8.5,1.7c-0.4,0.3-0.8,0.4-1.2,0.4c-2.1-1-4.2-1.9-6.7-1.3
			c-2.7-0.1-5.3,0.6-8,0.8c-3.6-0.4-7,1.2-10.6,0.8c-3.1-0.8-6.1-0.1-9.1,0.6c-1.4,0.6-2.2-1.9-3.8-0.8c-2.9-1.1-1.1-2.3-0.1-3.5
			c1.2-1.3,3.5-1.2,3.9-3.8c-2.8-0.6-5.4,0.5-8,0.9c-1.4,0.1-2.7,0.2-4.1,0.7c-0.4,0.1-0.9,0.2-1.4,0.3c-1.8,0.2-3.6,0.1-5.4,0.6
			c-1.7,0.4-3.4,0.7-4.8,1.9c-0.8,0.5-1.5,0.9-2.5,0.8c-1.7-0.8-3.3-0.3-4.8,0.3c-0.6,0.2-1.2,0.4-1.9,0.6c-0.6,0.2-1.3,0.4-1.9,0.6
			c-2.3,0.4-4.5,1-6.8,1.3c-1.1,0.1-2.3,0.2-3.4,0.4c-0.5,0-0.9,0-1.4-0.1c-1.8-0.7-2.6-1.9-1.6-3.9c0.6-1,1.6-1.6,2.5-2.3
			c1.7-1,2.8-2.9,4.9-3.4c1.7-0.4,3.2-1.5,4.6-2.4c0.3-0.3,0.7-0.6,1-0.9c0.4-1,1.5-2.2-0.6-2.6c-2.1,0.8-4.4,0.5-6.6,0.7
			c-2.8,0-5.2,1.5-8,1.7c-1.8-0.1-3.6,0.4-5.2,1.2c-0.9,0.3-1.8,0.5-2.7,0.7c-2,0.6-4.1,1.1-6.1,1.6c-2.4,0.2-4.7,1.2-6.9,2
			c-0.5,0.1-1,0.2-1.5,0.2c-1.8,0-3.6,0.2-5.3-0.8c-0.4-0.4-0.6-0.8-0.6-1.3c2.4-2.1,5.5-3,8.4-4.1c1.5-0.3,3-0.7,4.3-1.7
			c0.9-0.7,1.7-1.4,2.6-2C104.7,5.5,106.2,3.6,107,1z"/>
		<path fill="#FFFEFF" d="M2.1,24.9C1.8,25,1.4,25,1,25c0-7,0.1-14-0.1-21C0.9,1.5,1.5,0.9,4,0.9C32,1,60,1,88,1
			c0.4,0.5,0.3,0.9,0,1.3c-0.4,0.3-0.8,0.5-1.3,0.7c-2.9,0.3-5.7,0.6-8.4,1.8c-0.7,0.2-1.4,0.3-2.1,0.4c-2.3,0-4.3,1.6-6.6,1.5
			c-1.4-0.2-2.9-0.6-4.3,0c-0.8,0.3-1.5,0.7-2.3,1c-1.5,0.4-2.8,1-4,2c-2.9,2.2-6.4,0.4-9.5,1.4c-0.9,0.1-1.9,0.2-2.8,0.3
			c-0.9,0.2-1.8,0.5-2.8,0.6c-1.2,0.2-2.4,0.2-3.6,0.1c-4,0.8-8.4-1.1-11.9,2.1c-1.7,1.3-3.6,2.4-5.1,4c-1.5,0.1-2.5,1.6-4.1,1.6
			c-1.5-0.2-3-0.3-4.1,1.2c-0.8,1.9-1.8,3.3-4.1,2c-1.3-1.4-2.7-0.4-4-0.1C5.2,23.3,3.8,24.3,2.1,24.9z"/>
		<path fill="#272727" d="M107,1c1.8,4.9-1.8,5.3-4.9,6.1c-0.2,0-0.4-0.1-0.6-0.1c-0.8-0.4-1.3-0.9-1.9-1.6
			c-0.6-0.8-1.4-1.5-1.8-2.4c-0.1-1,0.7-1.4,1.3-1.9C101.7,1,104.3,1,107,1z"/>
		<path fill="#9A9A9A" d="M99,1c-0.3,0.7-0.5,1.3-0.8,2c0.1,0.8-0.3,1.2-0.9,1.5c-0.4,0.1-0.9,0-1.3-0.1c-0.9-0.6-1.6-1.4-2.3-2.3
			C93.5,1.7,93.6,1.3,94,1C95.7,1,97.3,1,99,1z"/>
		<path fill="#EDEDED" d="M94,1c0,0.3,0,0.7,0,1c-0.2,0.8-0.7,1.3-1.4,1.7c-1.9,0.4-3.5,0-4.6-1.8c0-0.3,0-0.6,0-0.9C90,1,92,1,94,1
			z"/>
		<path fill="#181919" d="M161.9,25.8c-1.8,0.5-3.6-2.8-5.7-0.2c-0.1,0.2-4.7,0.3-4.4-3.3c-0.6-2.1-2.7-4.2,0.2-6.2
			c0.3-0.1,0.6-0.2,0.9-0.4c1.5,0.4,2.8,0.2,4.1-0.6c2.1-1.3,4.5-1,6.7-1.3c1.4-0.2,2.5-0.8,3.2,1.5c0.8,2.5-0.7,2.9-2.2,3.4
			c-1.4,0.5-3,0.7-3.9,1.9c-0.9,1.1,0.5,1.1,1.2,1.4C163.1,23.2,162.6,24.5,161.9,25.8z"/>
		<path fill="#222222" d="M53.9,28c-1.3-0.4-1.4-1.1-0.6-2c1-0.8,1.9-1.7,2.7-2.7c0.9-0.5,1.8-1,2.7-1.5c2.7-0.4,5.5-0.8,8.2-0.2
			c0.7,0.5,0.9,1.2,1,2.1c0,0.8-0.3,1.5-0.9,2.1c-2,1.7-4.7,1.9-7,3C58,28,55.8,29.1,53.9,28z"/>
		<path fill="#333333" d="M123,8c2.1-1.8,4.8,0.3,6.9-1.1c2.2,1.2,1.7,3,1,4.8c-0.3,0.1-0.7,0.2-1,0.3c-2.2,0-3.4,1.9-5,2.8
			c-2.7-0.7-2.1,4.1-5.1,2.9c-0.8,0.2-1.6,0.2-2.4-0.2c-0.4-0.2-0.7-0.5-0.8-0.9c-0.1-1.1,0.3-2.1,1-2.9c0.8-0.7,1.7-1.1,2.6-1.7
			c0.9-0.5,1.5-1.3,2.1-2C123.5,9.7,122.4,8.6,123,8z"/>
		<path fill="#555454" d="M287.7,14.2c-4.9,1.3-9.7,3.2-14.7,0.7c-0.1-3,3.6-0.4,4-2.7c4.9-1.4,10.1-0.2,15-1.2
			c0.6,0.7,0.6,1.4,0.2,2.2C290.8,14.1,289.3,14.4,287.7,14.2z"/>
		<path fill="#242424" d="M113,26.9c-2,0.5-3.9,0.6-5.1-1.6c-0.9-2,0.6-3.4,1.2-5l-0.1-0.3c1.1-2.1,3.2-2.2,5.1-2.8l0,0
			c0.3-0.4,0.6-0.6,1.1-0.6c0.2,0,0.4,0.1,0.7,0.1c0.2,0.1,0.3,0.3,0.5,0.4c0.2,0.4,0.4,0.8,0.5,1.3c0.1,0.7-0.1,1.4-0.4,2
			c-0.4,0.6-0.8,1-1.4,1.3c0,0.6-2,0-0.7,1.3c0.6,0,1.2,0.1,1.8,0.3c1.3,0.6,1.8,1.6,1.1,2.9l0,0C115.9,27,114.2,25.5,113,26.9z"/>
		<path fill="#2A2A2A" d="M117.1,26.2c-0.2-1.4-0.9-2.2-2.3-2.3c0.8-2.7,2.7-1.2,4.2-1.2c0.3,0.1,0.7,0.2,1,0.2
			c1.1,0.1,2.1-0.3,3.1-0.9c2.7-0.2,5.1-1.8,7.9-1c0,1.1,1.3,1.7,1,2.9C127.1,25.4,122.2,26.1,117.1,26.2z"/>
		<path fill="#464645" d="M185,21c2.6-0.6,5.3-1.6,8-0.9c1.3,1,3.4-0.7,4.3,1.5c0,1.1-0.7,1.7-1.3,2.5c-2.1-0.1-4,0.2-6.1,0.6
			c-1.7,0.4-3.9,1.1-5.1-1.4C184.3,22.6,184.3,21.8,185,21z"/>
		<path fill="#333334" d="M185,21c0,0.8-0.1,1.5-0.1,2.3c-3.2,2.8-7.1,1.4-10.7,2c-0.7-0.2-1.2-0.7-1.5-1.3
			c-0.1-1.1,0.3-1.8,1.3-2.1C177.7,22.6,181.2,19.6,185,21z"/>
		<path fill="#3D3D3D" d="M219.9,17.8c3.5-1.7,7.6-0.1,11.1-1.6c0.9,0.4,1.5,0.9,1.1,2c-0.7,0.8-1.5,1.5-2.3,2.1
			c-2,0.3-3.9,0.6-5.8-0.2C222,20.5,219.6,21.5,219.9,17.8z"/>
		<path fill="#303030" d="M199.8,22c0.1-2.5,1.6-3.5,3.9-3.3c1.8,0.1,3.5,0.3,5.3,0.5c0.4,1,0.7,2,0,3c-2.1,1.6-4.6,0.6-6.9,1
			C200.9,23.5,200.2,22.9,199.8,22z"/>
		<path fill="#4E4E4E" d="M81.8,21.9c-3,1.2-5.7,3.9-9.4,2.2c-0.2,0-0.5,0-0.7,0c-3.2-1.5-1.8-2.7,0.2-3.9c1.6-0.4,3.2-0.4,4.7-0.7
			c0.5-0.1,0.9-0.1,1.4,0C79.5,19.9,81.2,20.1,81.8,21.9z"/>
		<path fill="#4F4F4F" d="M101,13.1c2-0.7,4-1.3,6.1-2c0.9,1.5,3.9,0,4,2.7c-1,0.5-2,0.9-3,1.4c-2.1,0.3-4.3,0.5-6.2,1.7
			c-0.3-0.1-0.6-0.2-1-0.3C98.6,15.3,100.1,14.2,101,13.1z"/>
		<path fill="#6B6B6B" d="M174,21.9c-0.4,0.7-0.7,1.4-1.1,2.1c-0.9,1.5-2.9,0.7-3.9,1.9c-1,0-2.1,0-3.1,0c-0.9-0.8-1.3-1.8-1.1-3
			C167.7,20.4,170.8,20.8,174,21.9z"/>
		<path fill="#646464" d="M287.7,14.2c1.3-1,2.8-1.5,4.5-1.4c1.1-2.1,3.3-0.7,4.8-1.6c0.4,0,0.8,0,1.1,0c1.1,0.8,3.5,0.3,3,2.8
			C296.5,14.1,292.1,16,287.7,14.2z"/>
		<path fill="#414141" d="M239,16.1c3.3-0.7,6.7-1.3,10-2c2,0.9,1.9,2.4,1.1,4l0,0c-1.9,0.6-3.8,0.4-5.8,0c-0.8,0-1.5,0-2.3,0
			C240.9,17.7,239,18.4,239,16.1z"/>
		<path fill="#383939" d="M95.9,10.7c-3,1-5.5,3.4-8.8,3.4c-0.4,0.3-0.9,0.3-1.3,0c-1.1-3.1,2.3-3.2,3.2-5l0,0
			c1.6-0.9,3.3-0.5,5-0.7C95.2,8.7,96.1,9.2,95.9,10.7z"/>
		<path fill="#545454" d="M152,16.1c-1.4,2,0.9,4.2-0.2,6.2c-3.1-3.1-6.5-1.3-9.9-0.5c-0.3-1.1,0.3-1.8,1.1-2.3
			c1-0.5,2.1-0.5,3.2-0.8c1.2-0.4,0.4-0.8-0.1-1.2c-0.1-0.2-0.2-0.3-0.3-0.5C147.7,15.1,150,16.6,152,16.1z"/>
		<path fill="#1F1F1F" d="M253,15.7c0.7-0.6,1.4-1.1,2-1.7c4.1-0.7,8.1-0.7,12.1,0.9c0.3,0,0.5,0.1,0.7,0.3
			c-2.2,2.5-5.3,0.9-7.9,1.7l-0.4,0.2l-0.5,0C254.3,17.9,254.3,17.9,253,15.7z"/>
		<path fill="#272828" d="M87.9,20.9c-0.3,0.1-0.6,0.1-0.8,0.1c-1.5,1.1-2.7-0.5-4-0.6c-0.8-0.1-1.2-0.5-1.3-1.3
			c0.9-1.5,2.3-2.2,3.8-2.9c0.9-0.3,1.8-0.3,2.7-0.6c0.7-0.1,1.4-0.1,2,0.2c1.2,0.7,3.6-0.5,3.7,2.2c-0.3,0.1-0.6,0.2-0.9,0.2
			C91.5,19.5,89.3,19.4,87.9,20.9z"/>
		<path fill="#636262" d="M23,18.6c0.2-3.1,2.7-3.7,5-4.6c0.8-0.8,1.5-0.5,2.1,0.2C30,15,30.3,15.6,31,16c-2.1,2.8-5.2,2-8,2.4
			L23,18.6z"/>
		<path fill="#323232" d="M123,8c0.1,0.7,1.1,1.5-0.1,2.1c-0.6,1.1-1.5,1.7-2.8,1.9c-1.1,0.4-2.3,0.8-3.5,0.7
			c-1.1-0.1-1.9-0.5-2.2-1.7c0-0.5,0.1-1,0.4-1.4C117.5,8.9,119.9,7,123,8z"/>
		<path fill="#353636" d="M101,13.1c0.4,1.2-1.3,2.3-0.1,3.4c-0.6,0.1-1.3,0.3-1.9,0.4c-2.1,0.7-4.3,1.4-4.9-1.9
			C96.1,13.4,98.5,13.3,101,13.1z"/>
		<path fill="#626262" d="M49,10.1c3.2-1.3,6.8,0.2,9.9-1.3c0.6,0.7,0.6,1.3,0,2c-2.1,1.7-4.6,0.7-6.9,1.2c-0.5,0.6-1.2,0.7-1.9,0.5
			C49.2,11.9,48.6,11.2,49,10.1z"/>
		<path fill="#5B5B5B" d="M86,5.9c-0.2,1.1-1.2,1-2,1.3c-1.6,0.6-3.1,0.6-4.2-0.9c-0.2-0.5-0.2-1,0-1.5c1.8-2.6,4.4-2.4,7-2.1
			C88,4.1,86.8,4.9,86,5.9z"/>
		<path fill="#232323" d="M143,19.8c-0.3,0.7-0.7,1.3-1,2c-0.2,0.3-0.4,0.4-0.7,0.3c-2.2,0.6-4.4,0.5-6.5,0l-0.3,0.1l-0.2-0.1
			c-1.6,0.4-2.2-0.3-2.1-1.8c0.6-0.1,1.3-0.2,1.9-0.3c1.6-1,3.3-0.4,5-0.1c0.6-0.4,1.2-0.7,1.9-1.1c0.6-0.3,1.3-0.5,2-0.2
			c0.3,0.2,0.4,0.5,0.3,0.7C143.1,19.7,143,19.8,143,19.8z"/>
		<path fill="#F8F7F8" d="M80,6c1.1,1.2,2.7,0.6,4,1.1c-4.8,2.2-9.9,2.3-15,1.4c-0.1-0.5,0.1-0.9,0.5-1.2c1.2-0.4,2.4-0.5,3.6-0.6
			C75.5,7.2,77.6,5.1,80,6z"/>
		<path fill="#1E1F1F" d="M276.9,12.1c0.5,0.6,0.9,1.2,1.4,1.8c-0.5,0.3-1.2,0.8-1.6,0.7c-1.3-0.3-2.6-1.7-3.8,0.2
			c-0.3,0-0.7,0.1-1,0.1c-0.9,0.4-1.2-0.1-1.4-0.9C271.5,9.6,274.8,12.7,276.9,12.1z"/>
		<path fill="#171717" d="M115,11.1c0.7,0.3,1.4,0.6,2.1,0.9c0.2,0.5,0.2,0.9-0.1,1.4c-1.5,1.1-3.1,1.4-4.9,0.8
			c-0.3-0.1-0.7-0.2-1-0.3c-0.9-1.5-4,0.1-4-2.7c0.9-0.1,1.8-0.2,2.7-0.3C111.5,11,113.3,9.4,115,11.1z"/>
		<path fill="#525151" d="M270.5,14.1c0.5,0.3,1,0.6,1.4,0.9c-3.6,3.3-7.9,2-12,1.9c2.3-2.2,5.6,0.2,7.9-1.7
			C268.8,14.8,269.7,14.5,270.5,14.1z"/>
		<path fill="#9D9C9C" d="M40.3,11.1c1.2,0,2.5,0,3.7,0c0.4,2.3-2.2,2.2-3,3.7c-0.9-1.5-2.9,2-3.6-0.8c-1.6,1.6-3.9-0.4-5.5,1.1
			l0.1-0.1c-0.5,0.5-1,0.4-1.4-0.1c-0.4-3,2-2.7,3.5-2.5C36.4,12.6,38.3,11.8,40.3,11.1z"/>
		<path fill="#3A3A3A" d="M97,4c0.4-0.3,0.8-0.7,1.2-1c1.2,0.1,1.7,0.8,1.7,2c0.2,1,1,1.4,1.8,1.7c0,0,0.3,0.4,0.3,0.4
			c-0.5,0.9-1.2,1.6-2.3,1.8C97.5,9.3,95.6,8.6,94,7c0-0.3,0-0.6,0.1-1C94.7,4.8,96.3,5,97,4z"/>
		<path fill="#525151" d="M267.1,14.9c-4-0.2-8.1,0.1-12.1-0.9C259.1,13.6,263.4,10.8,267.1,14.9z"/>
		<path fill="#3D3D3D" d="M302.9,11.1c2.5,0,5.1,0,8,0c-2.7,2.9-6.2,1.6-9,2.7C300.9,12.4,301.8,11.7,302.9,11.1z"/>
		<path fill="#484848" d="M253,15.7c1.6,2.3,4.1,0.4,6,1.3c-2.8,1.9-6.1-0.3-9,1.1c-0.4-1.3-0.7-2.7-1.1-4
			C250.4,14.5,252.7,12.6,253,15.7z"/>
		<path fill="#020304" d="M80,13.1c0.3-0.3,0.7-0.7,1-1c0.7-0.8,1.6-1,2.5-0.9c1,0.2,1.8,0.6,1.9,1.8c0,0.5,0,0.9-0.1,1.4
			c-0.3,0.9-0.8,1.8-1.7,2.2c-1,0.3-1.9,0.3-2.9-0.2C79.8,15.5,78.9,14.5,80,13.1z"/>
		<path fill="#343434" d="M67,22c-2.8,1.5-5.5,0.3-8.3-0.1c1.8-0.7,3.5-1.3,5.3-2c0.6-0.6,1.1-1.5,2.3-1C67.1,19.8,67.6,20.7,67,22z
			"/>
		<path fill="#535353" d="M164.9,22.9c1.2,0.7,1.2,1.8,1.1,3c-1.4,0-2.7-0.1-4.1-0.1c-1.1-1.3,0.3-2.5,0.1-3.8
			C163.4,20.8,163.9,22.6,164.9,22.9z"/>
		<path fill="#2E2E2E" d="M2.1,24.9c1.7-0.8,1.9-3.7,4.5-3.1c1.2,0,2.9-1.4,3.3,1.1C7.5,24.2,5,25.1,2.1,24.9z"/>
		<path fill="#111111" d="M209,22.1c-0.5-1-0.6-2,0-3c1-0.1,1.9-0.1,2.9-0.2c1.2-0.7,2.6-0.6,3.8-0.3c2.3,0.4,1.5,1.5,0.3,2.5
			l-0.5,0.1l-0.5,0c-1.7,0-3.4,0.1-5.1,0.8C209.6,22,209.3,22.1,209,22.1z"/>
		<path fill="#474747" d="M63,7c0.7-0.4,1.3-0.7,2-1.1c1.7-0.3,2.6,0.6,3,2.1c-0.3,1.6-1.8,1.5-2.9,1.9c-1.2,0.6-1.8-0.1-2.4-0.9
			C62.3,8.3,62.4,7.6,63,7z"/>
		<path fill="#323232" d="M80,13.1c0.3,1,0.7,2.1,1,3.1c0,1.9-1.1,2.4-2.8,2.2c-1.3-0.7-1.9-2-2.6-3.2c-0.1-0.5,0-0.9,0.4-1.2
			C77.5,14.5,78.5,12.4,80,13.1z"/>
		<path fill="#373738" d="M94,7c2.2-0.3,3.9,1,5.7,1.9c-1.1,1-2.1,2.2-3.8,1.8c-0.6-0.6-1.3-1.1-1.9-1.7C93.4,8.4,93.4,7.7,94,7
			L94,7z"/>
		<path fill="#303131" d="M219.9,17.8c0.4,2.5,2.8,1.4,4.1,2.3c-1.4,3-3.9,1.3-6,1.6c-1.2-1.6,0.2-2.5,1-3.6
			C219.2,17.8,219.5,17.7,219.9,17.8z"/>
		<path fill="#575756" d="M86,5.9c0.3-1,0.7-2,1-2.9c-0.4-0.5-0.2-0.7,0.4-0.8c0.3,0.1,0.5,0,0.6-0.3c1.7,0.2,3.2,1.5,5,1.1
			c0.2,3-2.5,1.1-3.5,2.2c0,0.4-0.2,0.7-0.5,0.9C88,6,87,5.9,86,5.9z"/>
		<path fill="#414141" d="M219,18c-0.3,1.2-0.6,2.4-1,3.6c-0.8,0.4-1.5,0.2-2.1-0.6c0.3-3.8-2.9-1.2-4.1-2.2C214,17,216.7,19,219,18
			z"/>
		<path fill="#F4F4F4" d="M114,17c-1.7,0.9-3.4,1.9-5.1,2.8c-0.3-0.9-1.2-2.3-1-2.5C109.8,15.9,112,16.4,114,17z"/>
		<path fill="#858586" d="M41.1,14.8c-0.8-2.7,2.7-1.8,3-3.7c0.7-0.3,1.4-0.7,2.1-1c0.7,0.9,0.8,1.8,0,2.7
			C44.5,13.6,43.2,15.3,41.1,14.8z"/>
		<path fill="#BABABA" d="M87.9,20.9c0.3-3.6,3-2.7,5.2-2.8C92.5,21.2,90.3,21.2,87.9,20.9z"/>
		<path fill="#EAE9EA" d="M119,22.7c-1.5-0.1-3,0.2-4.2,1.2c-0.4,0-0.9-0.1-1.3-0.1c-2.3-2.2,0.7-1.9,1.3-2.8
			c0.4-0.4,0.8-0.8,1.2-1.1c0.6-0.4,1.2-0.5,1.9-0.2C117.1,21.1,118,21.9,119,22.7z"/>
		<path fill="#818181" d="M63,7c0,0.7,0,1.4,0,2.1c-0.4,1.7-2.1,1.2-3.1,1.9c-0.3,0-0.6-0.1-0.9-0.2c0-0.7,0-1.3,0-2
			C59.2,5.8,61.6,7.5,63,7z"/>
		<path fill="#414141" d="M234.9,16.2c1,0,2-0.1,3.1-0.1c0.5,1,1.7,1.6,1,3c-1.3,0.9-2.6,0.6-4,0.1c-0.3-0.3-0.5-0.7-0.7-1.1
			C234.2,17.3,234.4,16.7,234.9,16.2z"/>
		<path fill="#676767" d="M23,18.6c0,0,0-0.1,0-0.1c-1,2.3-3.1,2.2-5,2.5c-0.6-1.1,0.2-1.5,1-2C20.3,18.9,21.3,15.7,23,18.6z"/>
		<path fill="#F8F7F8" d="M76,14c-0.1,0.3-0.2,0.6-0.2,0.9c-1,1.4-2.4,1.6-4,1.7c-0.4-0.1-0.8-0.4-1-0.7c0.2-0.7-2.1-0.9-0.3-1.9
			C72.4,12.9,74.2,13.7,76,14z"/>
		<path fill="#F8F7F8" d="M66,18.9c-0.7,0.3-1.3,0.6-2,1c1.6-2.6,4.1-3.5,6.9-4c0.1,0.1,0.2,0.3,0.4,0.4c-0.2,1.6-1.2,2.6-2.6,3.3
			C67.6,19.9,66.7,19.8,66,18.9z"/>
		<path fill="#616060" d="M94,15.1c1,2.3,3,1.9,4.9,1.9c-1.3,2.1-3.4,0.5-5,0.9c-0.8-1.8-3.2,0-4-1.9c0.8-1,2.3-0.1,3.1-1
			C93.4,15,93.7,15,94,15.1z"/>
		<path fill="#414141" d="M46.1,12.8c0-0.9,0-1.8,0-2.7c1,0,1.9,0,2.9,0c0.3,0.6,0.7,1.3,1,1.9c0.3,0.9,0,1.3-1,1.1
			C48,13,47.1,12.9,46.1,12.8z"/>
		<path fill="#F4F4F4" d="M112,14.2c1.6-0.7,3.2-1.4,4.9-1.3c0.3,0.2,0.5,0.5,0.5,0.9c-0.1,0.2-0.1,0.3-0.2,0.5
			c-0.1,0.3-0.3,0.7-0.4,1c-0.2,0.3-0.4,0.6-0.6,0.9c-0.4,0.4-1,0.5-1.4,0.8c-0.3,0-0.5,0.1-0.8,0.1C114.2,15.5,112.8,15.1,112,14.2
			z"/>
		<path fill="#565656" d="M84.8,13.8c0.2-1-0.3-1.6-1.1-2c0.2-2.1,2.4-0.7,3.1-1.8C87.5,9.7,88.3,9.4,89,9c0.4,2.5-3.1,2.7-3,5
			C85.5,14.2,85.1,14.2,84.8,13.8z"/>
		<path fill="#3D3D3D" d="M125,14.8c1.2-1.8,2-4.3,5-2.8C128,12.3,127.4,15.2,125,14.8z"/>
		<path fill="#F8F7F8" d="M86.8,10c-0.6,1.4-2.6,0.3-3.1,1.8c-0.9,0.1-1.8,0.2-2.7,0.4C82.1,9.1,84.2,9,86.8,10z"/>
		<path fill="#010202" d="M82,19.2c0.3,0.3,0.7,0.5,1,0.8c0.3,0.2,0.4,0.4,0.3,0.6c-0.1,0.2-0.2,0.3-0.4,0.3c-0.4,0.3-0.8,0.7-1.2,1
			c-1.3-0.7-2.6-1.3-3.8-2C78.9,17.6,80.4,18.1,82,19.2z"/>
		<path fill="#5A5A5A" d="M94,7c0,0.7,0.1,1.4,0.1,2c-1.7,1.2-3.4,0.5-5,0C90.4,7.7,92,7,94,7z"/>
		<path fill="#989797" d="M199.8,22c0.8,0.4,1.5,0.8,2.3,1.2c-1.8,1.7-4.1,0.3-6,0.9c0.1-0.8,0-1.7,0.9-2.1c0.7-0.5,1.5,0.2,2.3-0.1
			C199.5,21.7,199.6,21.7,199.8,22z"/>
		<path fill="#101010" d="M169.1,25.9c0.1-3,2.5-1.4,3.9-1.9c0.4,0.5,0.8,0.9,1.3,1.4C172.6,26.6,170.8,25.8,169.1,25.9z"/>
		<path fill="#8F8F8F" d="M143,19.1c-0.7-0.1-1.4-0.2-2.1-0.3c1-2.4,3.3-1.4,5-1.9c0.2-0.1,0.4,0,0.6,0.1
			C146.6,19.9,144.9,19.7,143,19.1z"/>
		<path fill="#F8F7F8" d="M89,6c0.1-0.3,0.2-0.6,0.3-0.9c2.2-0.7,4.5-1.4,6.9-1c0.3,0,0.6,0,0.9-0.1c0.3,2.5-1.4,2.1-2.9,2.1
			C92.4,6,90.7,6,89,6z"/>
		<path fill="#484949" d="M199.2,21.8c-0.7,1.5-1.5,0.3-2.3,0.1c-0.9-1.6-3-0.4-4-1.8C195.3,19.9,197.9,18.5,199.2,21.8z"/>
		<path fill="#3D3D3D" d="M131,11.7c0.1-1.7-0.2-3.3-1-4.8C133.1,7.2,133.1,7.2,131,11.7z"/>
		<path fill="#B3B2B2" d="M67.9,8c-1-0.7-2-1.4-3-2.1C66.3,4.8,67.7,4.5,69,6c0.6,0.6,0.6,1.2,0,1.9c0.1,0.2,0.1,0.4,0,0.6
			C68.6,8.3,68.3,8.2,67.9,8z"/>
		<path fill="#3B3B3B" d="M19,19c-0.3,0.7-0.7,1.3-1,2c-1,0-2,0-3,0C15.1,17.8,16.4,17.1,19,19z"/>
		<path fill="#8D8D8D" d="M139,19.9c-1.6,1.6-3.3-0.2-5,0.1C135.7,19.9,137.3,16.1,139,19.9z"/>
		<path fill="#2D2D2D" d="M234.9,17.9c0,0.4,0.1,0.8,0.1,1.2c-1.8,0.1-3.1,2-5.1,1.2C230,19,230.5,18,232,18
			C232.9,17.1,233.9,17.2,234.9,17.9z"/>
		<path fill="#1E1E1E" d="M239,19.1c-0.3-1-0.7-2-1-3c0.3-0.1,0.7-0.1,1,0c0.7,1.1,2.6,0.6,3.1,2.1C241.3,19.4,240.1,19.2,239,19.1z
			"/>
		<path fill="#4C4B4B" d="M132.1,20.3c0.7,0.6,1.4,1.2,2.1,1.8c-0.7,0.6-1.5,1.2-2.2,1.8c-0.5-0.9-2.2-1.4-1-2.9
			C131.1,20.5,131.4,20.1,132.1,20.3z"/>
		<path fill="#3A3A3A" d="M115,11.1c-1.7-0.3-3.5,1-5.2-0.2c1.4-1.8,3.1-2,5.1-1.1C114.9,10.2,114.9,10.6,115,11.1z"/>
		<path fill="#303030" d="M302.9,11.1c-0.3,0.9-0.7,1.8-1,2.7c-0.3,0-0.6,0-1,0.1c-0.4-1.5-2.1-1.7-3-2.8
			C299.7,10.9,301.3,10.3,302.9,11.1z"/>
		<path fill="#373837" d="M117.8,19.7c-0.6,0.1-1.2,0.1-1.9,0.2c0-0.6,0-1.2,0-1.8c0.4-0.8,1.5-0.3,1.9-1c0.7,0.2,1.3,0.5,2,0.7
			C119.2,18.4,118.5,19,117.8,19.7z"/>
		<path fill="#E7E6E7" d="M101.8,16.9c1.7-1.9,3.8-2.1,6.2-1.7C106.1,16.3,104.1,17.3,101.8,16.9z"/>
		<path fill="#343434" d="M67,25.8c0-0.6,0-1.3,0-1.9c1.6-1.2,3.1,0.2,4.6,0.1c0.3,0.1,0.5,0.1,0.8,0.1C71.4,27.4,68.8,25.3,67,25.8
			z"/>
		<path fill="#6B6B6B" d="M157,15.1c-1.2,1.4-2.3,3-4.1,0.6C154.1,14.2,155.7,15.4,157,15.1z"/>
		<path fill="#414141" d="M210,22c1.5-1.3,3.1-2.5,5.1-0.8C213.5,22.5,211.6,21.5,210,22z"/>
		<path fill="#F8F7F8" d="M59.9,10.9c1-0.6,2.1-1.3,3.1-1.9c0.7,0.3,1.3,0.6,2,0.9C63.6,11.7,61.6,10.8,59.9,10.9z"/>
		<path fill="#323232" d="M32,15.1c1.5-1.9,3.7-0.5,5.5-1.1C36.4,18.3,33.6,13.8,32,15.1z"/>
		<path fill="#131313" d="M234.9,17.9c-1,0-1.9,0-2.9,0.1c-0.3-0.6-0.6-1.2-1-1.8c1.3-0.4,2.6-0.7,3.9,0
			C234.9,16.8,234.9,17.4,234.9,17.9z"/>
		<path fill="#2A2A2A" d="M109.1,20.2c-0.4,1.7-0.8,3.4-1.2,5C105.5,22.9,108.2,21.8,109.1,20.2z"/>
		<path fill="#E9E8E8" d="M93.1,15c-0.7,1.4-2,0.8-3.1,1c-0.7,0-1.3,0-2-0.1c-0.5,0.2-0.9,0.1-1.2-0.4c0-0.2,0-0.5,0.1-0.7
			C88.9,14.9,91,15,93.1,15z"/>
		<path fill="#4C4C4C" d="M134.7,22.2c2.2,0,4.4,0,6.5,0C139,22.8,136.9,24,134.7,22.2z"/>
		<path fill="#2D2D2D" d="M296.9,11.1c-1.6,0.5-3.2,1.1-4.8,1.6c-0.1-0.6-0.1-1.2-0.2-1.8C293.6,11,295.2,11.1,296.9,11.1z"/>
		<path fill="#262627" d="M113,26.9c0.8-3.4,2.8-0.3,4.2-0.8C116,27.6,114.4,26.6,113,26.9z"/>
		<path fill="#262626" d="M53.9,28c2,0.2,4.2-0.7,6.1,0.8C58,28.2,55.7,30.1,53.9,28z"/>
		<path fill="#5C5B5B" d="M82.9,20.9c0-0.3,0-0.6,0.1-0.9c1.4,0.3,2.7,0.7,4.1,1C85.6,22.8,84.3,21.4,82.9,20.9z"/>
		<path fill="#202020" d="M30.9,14.8c0.4,0.1,0.8,0.1,1.2,0.2c-0.4,0.3-0.7,0.7-1.1,1c-0.8,0-1.7,0-2.5,0c0.1-1,1-0.9,1.7-1.1
			C30.4,14.5,30.6,14.5,30.9,14.8z"/>
		<path fill="#484848" d="M244.3,18.1c1.9,0,3.8,0,5.8,0C248.2,19.5,246.3,18.9,244.3,18.1z"/>
		<path fill="#515151" d="M10,23c-0.8-1.3-2.2-0.7-3.3-1.1c1.7-0.6,3.6-2.4,4.2,1.1C10.6,23,10.3,23,10,23z"/>
		<path fill="#ECECEC" d="M49,13.1c0.3-0.4,0.7-0.7,1-1.1c0.7,0,1.3,0,2,0C51.6,14.1,50.7,14.6,49,13.1z"/>
		<path fill="#878787" d="M123.1,22.1c-0.8,1.2-1.6,2.3-3.1,0.9C120.8,21.8,121.9,22.1,123.1,22.1z"/>
		<path fill="#262626" d="M56,23.3c-0.2,1.6-1.1,2.5-2.7,2.7C53.9,24.8,54.8,23.9,56,23.3z"/>
		<path fill="#646363" d="M84.8,13.8c0.4,0.1,0.8,0.1,1.2,0.2c0.4,0,0.7,0,1.1,0.1c-0.1,0.3-0.2,0.6-0.2,0.8c0,0,0,0,0,0
			c-0.2,0.4-0.6,0.6-1.1,0.6c-0.7-0.2-1.2-0.6-0.8-1.4L84.8,13.8z"/>
		<path fill="#F9F8F8" d="M30.9,14.8l-0.4,0.1c0,0-0.4,0-0.4,0c-0.4-1-1.4-0.6-2.1-0.9c-0.7-1.4-0.5-3.1,1.2-2.8
			c3.8,0.8,7.4-1,11.1-0.1c-1.8,2.1-4.3,1.9-6.7,2C32.3,13.2,31,12.9,30.9,14.8z"/>
		<path fill="#525252" d="M80,6c-2.1,1.5-4.4,2.1-6.9,1.9c-0.9-2.7,1.1-3.1,3-3.7c0.6,0,1.3-0.1,1.9-0.1c0.8,0,1.7-0.8,2.2,0.5
			C80.1,5.1,80,5.5,80,6z"/>
		<path fill="#838383" d="M76,4.2c-1.5,0.8-2,2.4-3,3.7c-1.4,0.6-2.7,0.6-4.1,0c0-0.6,0-1.2,0-1.9C71.4,5.7,73.4,3.6,76,4.2z"/>
		<path fill="#EDEDED" d="M80.2,4.6C79.7,3,78.5,5.3,78,4.1c2.8-2.4,6.1-2.3,9.4-2c-0.1,0.3-0.2,0.5-0.4,0.8
			C84.5,2.5,82.2,3.3,80.2,4.6z"/>
		<path fill="#0B0B0B" d="M101.8,6.7c-0.8,0.2-1.6,0.5-2.2-0.1C99,5.9,99.4,5.4,100,5C100.6,5.5,101.2,6.1,101.8,6.7z"/>
		<path fill="#5F5F5E" d="M96.1,4.1c-2,2-4.7,0.1-6.9,1C89.6,2.8,92.5,5,93,2.9c0.3-0.3,0.7-0.6,1-1C95.3,2.1,95.9,2.9,96.1,4.1z"/>
		<path fill="#1D1E1E" d="M71.6,24c-1.6,1.7-3.1-0.3-4.6-0.1c0-0.6,0-1.3,0-1.9c-0.3-1-0.7-2.1-1-3.1c0.9,0,1.7,0,2.6,0
			c1.8-0.5,3.4-2.4,5.5-0.7c0.6,1.7-1,2-1.8,2.8C70.1,21.5,70.7,22.8,71.6,24z"/>
		<path fill="#DDDCDC" d="M117,14c0-0.4,0-0.8,0-1.1c0-0.3,0-0.6,0.1-0.8c1-0.3,1.9-0.7,2.9-1c0.5,0.6,1.6,0.8,0.9,2
			c-1,0.4-1.9,0.8-2.9,1.2C117.6,14.4,117.3,14.3,117,14z"/>
		<path fill="#414142" d="M120.9,13c0.4-1-0.6-1.3-0.9-2c1-0.3,1.9-0.6,2.9-0.9C122.9,11.6,122.3,12.6,120.9,13z"/>
		<path fill="#474747" d="M117,14c0.3,0,0.7,0.1,1,0.1c-0.3,0.9-0.7,1.9-1,2.8c-0.3,0.4-0.7,0.4-1,0l0,0c-0.3-0.2-0.3-0.4-0.3-0.6
			c0.1-0.2,0.2-0.3,0.3-0.3c0.1-0.3,0.1-0.5,0.1-0.8C116.3,14.7,116.7,14.4,117,14L117,14z"/>
		<path fill="#080909" d="M116,17c0.3,0,0.7,0,1,0c0.3,0,0.6,0,1,0c-0.4,0.8-1.2,0.9-1.9,1C116,17.7,116,17.3,116,17z"/>
		<path fill="#2A2A2A" d="M114.8,21c-0.5,0.9-2,1.4-1.3,2.8c-0.7,0-1.9,0.4-1.7-1C112,21.2,113.3,20.9,114.8,21z"/>
		<path fill="#1C1C1C" d="M116,16c0,0.3,0,0.6,0,1c-0.4,0-0.8,0-1.2,0C115.2,16.6,115.6,16.3,116,16z"/>
		<path fill="#9D9C9C" d="M82,19.2c-1.4,0-2.9-0.8-4,0.7C77.6,20,77.3,20,77,20.1c-0.8-0.2-1.2-0.7-1.3-1.5c0.4-1.1,1.2-1.3,2.2-0.8
			c1.5,0.4,2.4-0.4,3.1-1.5c0.9-0.1,1.8-0.2,2.7-0.3c0.6-0.5,1.3-0.5,2.1-0.3c0.3,0.2,0.5,0.5,0.5,0.7c0,0.3,0,0.5-0.1,0.5
			C84.6,17.4,84,19.6,82,19.2z"/>
		<path fill="#A6A6A6" d="M75.8,18.9c0.4,0.4,0.8,0.8,1.3,1.2c-1.3,1.7-3.2,0.4-4.8,0.9c0-1.1,0.9-1.6,1.7-2.1
			C74.6,18.4,75.2,18.4,75.8,18.9z"/>
		<path fill="#151515" d="M143,19.1c1.5-0.1,2.8-0.6,3.5-2.1c0.9,0.1,2.3-0.5,2.7,0.6c0.3,1-0.9,1.7-1.8,1.9
			c-1.4,0.3-2.9,0.2-4.4,0.3C143,19.6,143,19.4,143,19.1z"/>
		<path fill="#EEEEEE" d="M86.1,16.8c0-0.3-0.1-0.6-0.2-0.8c-0.3-0.3-0.3-0.5-0.2-0.7c0.1-0.2,0.3-0.2,0.4-0.2
			c0.3-0.1,0.5-0.2,0.8-0.2c0.4,0.4,0.7,0.8,1.1,1.1C87.6,16.8,86.9,17,86.1,16.8z"/>
		<path fill="#A8A8A8" d="M86.1,15.1c-0.1,0.3-0.1,0.6-0.2,0.9c-0.7,0-1.4-0.1-2.2-0.1c0.5-0.6,0-1.9,1.3-1.9
			C85.3,14.4,85.7,14.7,86.1,15.1z"/>
		<path fill="#222222" d="M75.8,18.9c-0.6,0-1.2,0-1.8,0c-1.8-1.5-3.6,0.9-5.4,0c0.9-0.9,1.8-1.7,2.6-2.6c1.5-0.5,3.1-0.9,4.6-1.4
			c1.3,0.5,2.1,1.4,2.2,2.9C77.1,18,76.2,17.9,75.8,18.9z"/>
		<path fill="#E7E6E7" d="M117,14c-0.3,0.4-0.6,0.8-0.9,1.2C116.4,14.8,116.7,14.4,117,14z"/>
	</g>
</g>
</svg>
